<svg xmlns="http://www.w3.org/2000/svg" width="307.531" height="138.352" viewBox="0 0 307.531 138.352">
  <g id="installation-illustration" transform="translate(-104.235 -213.49)">
    <g id="ac">
      <rect id="Rectangle_34" data-name="Rectangle 34" width="215.48" height="66.3" rx="15.402" transform="translate(150.721 214.24)" fill="none" stroke="#0c6cb9" stroke-linecap="round" stroke-miterlimit="10" stroke-width="1.5"/>
      <path id="Path_133" data-name="Path 133" d="M172.671,286.108h0a11.175,11.175,0,0,1,11.175-11.175h172.5a11.175,11.175,0,0,1,11.174,11.175h0" transform="translate(-12.261 -10.997)" fill="none" stroke="#0c6cb9" stroke-linecap="round" stroke-miterlimit="10" stroke-width="1.5"/>
      <line id="Line_13" data-name="Line 13" x2="30.091" transform="translate(241.313 257.665)" fill="none" stroke="#0c6cb9" stroke-linecap="round" stroke-miterlimit="10" stroke-width="1.5"/>
    </g>
    <g id="breeze">
      <path id="Path_134" data-name="Path 134" d="M276.592,361.589s-16.99-14.239.2-29.068c8.188-7.843,5.732-22.927-5.732-27.021" transform="translate(-29.733 -16.535)" fill="none" stroke="#0c6cb9" stroke-linecap="round" stroke-miterlimit="10" stroke-width="1.5"/>
      <path id="Path_135" data-name="Path 135" d="M306.592,368.589s-16.99-14.239.2-29.068c8.188-7.843,5.732-22.927-5.732-27.021" transform="translate(-35.168 -17.803)" fill="none" stroke="#0c6cb9" stroke-linecap="round" stroke-miterlimit="10" stroke-width="1.5"/>
      <path id="Path_136" data-name="Path 136" d="M243.592,368.589s-16.99-14.239.2-29.068c8.188-7.843,5.732-22.927-5.732-27.021" transform="translate(-23.754 -17.803)" fill="none" stroke="#0c6cb9" stroke-linecap="round" stroke-miterlimit="10" stroke-width="1.5"/>
      <path id="Path_137" data-name="Path 137" d="M335.592,361.589s-16.99-14.239.2-29.068c8.188-7.843,5.732-22.927-5.732-27.021" transform="translate(-40.423 -16.535)" fill="none" stroke="#0c6cb9" stroke-linecap="round" stroke-miterlimit="10" stroke-width="1.5"/>
    </g>
    <g id="left_hand" data-name="left hand" transform="translate(105 260.384)">
      <path id="Path_138" data-name="Path 138" d="M142.576,320.412c3.779-1.684,8.365-4.221,10.2-8.113,1.576-3.339-.613-6.25-3.114-5.684-1.986.45-3.377,1.905-4.9,2.215-19.963,4.065-20.012-23.155-9.709-31.484a3.825,3.825,0,0,0-.213-6.161,3.655,3.655,0,0,0-3.962-.015c-7.607,4.593-14.577,12.654-16.458,20.782a29.33,29.33,0,0,0,.1,13.928,17.294,17.294,0,0,1-2,13.547l-6.35,10.125a7.684,7.684,0,0,0,2.293,10.505l8.006,5.254a5.238,5.238,0,0,0,7.305-1.589l9.916-15.75A20.037,20.037,0,0,1,142.576,320.412Z" transform="translate(-105 -270.595)" fill="none" stroke="#0c6cb9" stroke-linecap="round" stroke-miterlimit="10" stroke-width="1.5"/>
      <path id="Path_139" data-name="Path 139" d="M140.944,278.808s3.1-.469,3.07,2.181a2.954,2.954,0,0,1-.855,1.973c-4.777,5.057-5.222,7.548-5.808,13.411" transform="translate(-110.862 -272.077)" fill="none" stroke="#0c6cb9" stroke-linecap="round" stroke-miterlimit="10" stroke-width="1.5"/>
      <path id="Path_140" data-name="Path 140" d="M142.028,286.662s2.559.855,1.173,4.1-4.571,8.444-1.173,19.933" transform="translate(-111.435 -273.506)" fill="none" stroke="#0c6cb9" stroke-linecap="round" stroke-miterlimit="10" stroke-width="1.5"/>
    </g>
    <g id="right_hand" data-name="right hand" transform="translate(362.69 257.194)">
      <path id="Path_141" data-name="Path 141" d="M430.446,316.516c-3.779-1.683-8.365-4.221-10.2-8.112-1.576-3.34.613-6.251,3.114-5.685,1.986.45,3.377,1.905,4.9,2.215,19.963,4.065,20.012-23.154,9.709-31.484a3.825,3.825,0,0,1,.213-6.161,3.654,3.654,0,0,1,3.962-.015c7.607,4.593,14.577,12.654,16.458,20.782a29.331,29.331,0,0,1-.1,13.928,17.3,17.3,0,0,0,2,13.548l6.35,10.124a7.684,7.684,0,0,1-2.293,10.505l-8.006,5.254a5.237,5.237,0,0,1-7.305-1.589l-9.916-15.75A20.038,20.038,0,0,0,430.446,316.516Z" transform="translate(-419.712 -266.699)" fill="none" stroke="#0c6cb9" stroke-linecap="round" stroke-miterlimit="10" stroke-width="1.5"/>
      <path id="Path_142" data-name="Path 142" d="M441.294,274.913s-3.1-.469-3.07,2.181a2.955,2.955,0,0,0,.855,1.973c4.777,5.057,5.222,7.548,5.808,13.411" transform="translate(-423.066 -268.181)" fill="none" stroke="#0c6cb9" stroke-linecap="round" stroke-miterlimit="10" stroke-width="1.5"/>
      <path id="Path_143" data-name="Path 143" d="M441,282.766s-2.56.856-1.173,4.1S444.4,295.314,441,306.8" transform="translate(-423.282 -269.61)" fill="none" stroke="#0c6cb9" stroke-linecap="round" stroke-miterlimit="10" stroke-width="1.5"/>
    </g>
  </g>
</svg>
