<svg xmlns="http://www.w3.org/2000/svg" width="178.574" height="173.985" viewBox="0 0 178.574 173.985">
  <g id="repairs-illustration" transform="translate(-183.655 -194.75)">
    <line id="Line_14" data-name="Line 14" x1="70.591" transform="translate(229.497 230.474)" fill="none" stroke="#0c6cb9" stroke-linecap="round" stroke-linejoin="round" stroke-width="1.5"/>
    <path id="Path_144" data-name="Path 144" d="M313.767,230.552c-6.8,12.088-20.9,16.65-35.366,16.65s-29.218-4.561-35.366-16.65l.052-25.983a9.087,9.087,0,0,1,9.087-9.068h52.454a9.087,9.087,0,0,1,9.087,9.069Z" transform="translate(-13.608)" fill="none" stroke="#0c6cb9" stroke-linecap="round" stroke-linejoin="round" stroke-width="1.5"/>
    <path id="Path_145" data-name="Path 145" d="M313.329,241.043a43.215,43.215,0,0,1,.96,9.093c0,21.835-16.169,39.537-36.114,39.537s-36.115-17.7-36.115-39.537a43.225,43.225,0,0,1,.99-9.233" transform="translate(-13.382 -10.538)" fill="none" stroke="#0c6cb9" stroke-linecap="round" stroke-linejoin="round" stroke-width="1.5"/>
    <path id="Path_146" data-name="Path 146" d="M296.772,293.247c12.306,2.518,19.572,13.559,21.563,26.456,2.473,16.026,3.942,66.363,3.942,66.363a3.952,3.952,0,0,1-3.952,3.952H230.446a3.952,3.952,0,0,1-3.952-3.952s1.542-49.437,4.842-66.363c2.455-12.59,8.943-23.565,20.934-26.32" transform="translate(-9.769 -22.687)" fill="none" stroke="#0c6cb9" stroke-linecap="round" stroke-linejoin="round" stroke-width="1.5"/>
    <path id="Path_147" data-name="Path 147" d="M238.43,247.087s-4.8-1.275-7.1,2.786a7.812,7.812,0,0,0,2.191,10.218,7.651,7.651,0,0,0,6.122,1.047" transform="translate(-10.653 -11.929)" fill="none" stroke="#0c6cb9" stroke-linecap="round" stroke-linejoin="round" stroke-width="1.5"/>
    <path id="Path_148" data-name="Path 148" d="M336.217,247.087s4.8-1.275,7.1,2.786a7.812,7.812,0,0,1-2.192,10.218,7.649,7.649,0,0,1-6.122,1.047" transform="translate(-34.955 -11.929)" fill="none" stroke="#0c6cb9" stroke-linecap="round" stroke-linejoin="round" stroke-width="1.5"/>
    <line id="Line_15" data-name="Line 15" y2="87.981" transform="translate(229.889 279.103)" fill="none" stroke="#0c6cb9" stroke-linecap="round" stroke-linejoin="round" stroke-width="1.5"/>
    <circle id="Ellipse_2" data-name="Ellipse 2" cx="3.041" cy="3.041" r="3.041" transform="translate(234.055 301.805)" fill="none" stroke="#0c6cb9" stroke-linecap="round" stroke-linejoin="round" stroke-width="1.5"/>
    <line id="Line_16" data-name="Line 16" y2="89.783" transform="translate(299.046 277.582)" fill="none" stroke="#0c6cb9" stroke-linecap="round" stroke-linejoin="round" stroke-width="1.5"/>
    <path id="Path_149" data-name="Path 149" d="M306.51,295.149l-1.52,23.535a6.522,6.522,0,0,1-6.522,6.522H263.407a6.522,6.522,0,0,1-6.522-6.522l-1.52-23.535" transform="translate(-16.47 -23.129)" fill="none" stroke="#0c6cb9" stroke-linecap="round" stroke-linejoin="round" stroke-width="1.5"/>
    <circle id="Ellipse_3" data-name="Ellipse 3" cx="3.041" cy="3.041" r="3.041" transform="translate(288.797 301.805)" fill="none" stroke="#0c6cb9" stroke-linecap="round" stroke-linejoin="round" stroke-width="1.5"/>
    <path id="Path_150" data-name="Path 150" d="M399.814,340.054l-3.808,7.873a3.316,3.316,0,0,1-5.97-2.888l3.786-7.828a10.207,10.207,0,0,0-1.021-.051,9.937,9.937,0,0,0-7.448,16.528L371.582,382.16a8.495,8.495,0,1,0,5.789,3.222c.028-.051.065-.094.091-.148l13.7-28.323a9.895,9.895,0,0,0,11.588-9.8A9.917,9.917,0,0,0,399.814,340.054ZM370.692,393.67a3.082,3.082,0,1,1,3.082-3.082A3.081,3.081,0,0,1,370.692,393.67Z" transform="translate(-41.27 -32.879)" fill="none" stroke="#0c6cb9" stroke-linecap="round" stroke-linejoin="round" stroke-width="1.5"/>
    <g id="Group_85" data-name="Group 85" transform="translate(184.405 277.014)">
      <path id="Path_151" data-name="Path 151" d="M195.331,375.5v-3.631h-6.651V375.5a7.618,7.618,0,0,0-4.276,6.82v19.454c0,4.18,3.42,7.148,7.6,7.148s7.6-2.968,7.6-7.148V382.317A7.618,7.618,0,0,0,195.331,375.5Z" transform="translate(-184.405 -317.948)" fill="none" stroke="#0c6cb9" stroke-linecap="round" stroke-linejoin="round" stroke-width="1.5"/>
      <path id="Path_152" data-name="Path 152" d="M196.03,309.12l-1.245-7.468H192.3l-1.245,7.468h1.312v46.449h2.318V309.12Z" transform="translate(-185.948 -301.651)" fill="none" stroke="#0c6cb9" stroke-linecap="round" stroke-linejoin="round" stroke-width="1.5"/>
      <path id="Path_153" data-name="Path 153" d="M189.973,376.594a12.2,12.2,0,0,0,6.651,0" transform="translate(-185.697 -319.046)" fill="none" stroke="#0c6cb9" stroke-linecap="round" stroke-linejoin="round" stroke-width="1.5"/>
      <line id="Line_17" data-name="Line 17" y2="17.634" transform="translate(4.276 65.032)" fill="none" stroke="#0c6cb9" stroke-linecap="round" stroke-linejoin="round" stroke-width="1.5"/>
      <line id="Line_18" data-name="Line 18" y2="17.634" transform="translate(7.512 66.028)" fill="none" stroke="#0c6cb9" stroke-linecap="round" stroke-linejoin="round" stroke-width="1.5"/>
      <line id="Line_19" data-name="Line 19" y2="17.634" transform="translate(10.748 65.032)" fill="none" stroke="#0c6cb9" stroke-linecap="round" stroke-linejoin="round" stroke-width="1.5"/>
    </g>
  </g>
</svg>
