<svg xmlns="http://www.w3.org/2000/svg" width="161.782" height="154.691" viewBox="0 0 161.782 154.691">
  <g id="servicing-illustration" transform="translate(-219.75 -211.75)">
    <path id="Path_154" data-name="Path 154" d="M340.5,226.5h28.47a3.328,3.328,0,0,1,3.328,3.328v86.964" transform="translate(-15.461 -1.804)" fill="none" stroke="#0c6cb9" stroke-miterlimit="10" stroke-width="1.5"/>
    <line id="Line_20" data-name="Line 20" x2="63" transform="translate(257.5 224.5)" fill="none" stroke="#0c6cb9" stroke-miterlimit="10" stroke-width="1.5"/>
    <path id="Path_155" data-name="Path 155" d="M328.434,344.107H223.828a3.328,3.328,0,0,1-3.328-3.328V229.828a3.328,3.328,0,0,1,3.328-3.328h28.905" transform="translate(0 -1.804)" fill="none" stroke="#0c6cb9" stroke-miterlimit="10" stroke-width="1.5"/>
    <rect id="Rectangle_35" data-name="Rectangle 35" width="5" height="23" rx="1.374" transform="translate(252.5 212.5)" fill="none" stroke="#0c6cb9" stroke-miterlimit="10" stroke-width="1.5"/>
    <rect id="Rectangle_36" data-name="Rectangle 36" width="5" height="23" rx="1.374" transform="translate(320.5 212.5)" fill="none" stroke="#0c6cb9" stroke-miterlimit="10" stroke-width="1.5"/>
    <line id="Line_21" data-name="Line 21" x2="136.337" transform="translate(220.5 250.831)" fill="none" stroke="#0c6cb9" stroke-miterlimit="10" stroke-width="1.5"/>
    <path id="Path_156" data-name="Path 156" d="M391.532,355.938v-6.511a.419.419,0,0,1,.408-.373l4.013-2.255a.671.671,0,0,0,.327-.735,28.194,28.194,0,0,0-3.452-8.383.672.672,0,0,0-.772-.284l-4.236,1.328a.426.426,0,0,1-.571.04l-4.6-4.6a.42.42,0,0,1,.025-.552l1.241-4.427a.671.671,0,0,0-.287-.75,28.157,28.157,0,0,0-8.366-3.5.674.674,0,0,0-.748.344l-2.058,3.937a.425.425,0,0,1-.375.432h-6.512a.419.419,0,0,1-.372-.409l-2.255-4.013a.673.673,0,0,0-.735-.328,28.185,28.185,0,0,0-8.383,3.453.671.671,0,0,0-.284.771l1.327,4.236a.424.424,0,0,1,.041.57l-4.6,4.6a.417.417,0,0,1-.551-.025l-4.427-1.241a.673.673,0,0,0-.751.287,28.221,28.221,0,0,0-3.5,8.366.673.673,0,0,0,.345.748l3.937,2.059a.425.425,0,0,1,.431.375v6.511a.419.419,0,0,1-.408.373l-4.013,2.255a.672.672,0,0,0-.328.735,28.184,28.184,0,0,0,3.452,8.383.672.672,0,0,0,.772.284l4.236-1.328a.426.426,0,0,1,.571-.04l4.6,4.6a.42.42,0,0,1-.025.552l-1.241,4.427a.671.671,0,0,0,.287.75,28.158,28.158,0,0,0,8.366,3.5.672.672,0,0,0,.748-.344l2.058-3.937a.426.426,0,0,1,.375-.432h6.512a.419.419,0,0,1,.372.409l2.255,4.013a.674.674,0,0,0,.735.328,28.187,28.187,0,0,0,8.383-3.453.669.669,0,0,0,.284-.771l-1.327-4.236a.424.424,0,0,1-.041-.57l4.6-4.6a.417.417,0,0,1,.551.025L392,367.773a.672.672,0,0,0,.751-.287,28.214,28.214,0,0,0,3.5-8.366.673.673,0,0,0-.345-.748l-3.937-2.059A.425.425,0,0,1,391.532,355.938Zm-22.872,11.8a15.22,15.22,0,1,1,15.22-15.219A15.22,15.22,0,0,1,368.66,367.74Z" transform="translate(-15.528 -14.479)" fill="none" stroke="#0c6cb9" stroke-miterlimit="10" stroke-width="1.5"/>
    <rect id="Rectangle_37" data-name="Rectangle 37" width="22.65" height="22.65" rx="1.237" transform="translate(232.261 308.763)" fill="none" stroke="#0c6cb9" stroke-miterlimit="10" stroke-width="1.5"/>
    <path id="Path_157" data-name="Path 157" d="M240.19,337.7l4.659,3.613,6.409-12.127" transform="translate(-2.537 -15.034)" fill="none" stroke="#0c6cb9" stroke-linecap="round" stroke-linejoin="round" stroke-width="1.5"/>
  </g>
</svg>
