<svg xmlns="http://www.w3.org/2000/svg" viewBox="0 0 169.07 220.8"><defs><style>.cls-1,.cls-2{fill:none;stroke:#fff;stroke-linecap:round;stroke-width:1.5px;}.cls-1{stroke-linejoin:round;}.cls-2{stroke-miterlimit:10;}</style></defs><g id="Layer_2" data-name="Layer 2"><g id="solutions"><line class="cls-1" x1="73.92" y1="99.93" x2="11.96" y2="99.93"/><path class="cls-1" d="M74,100c-6,10.61-18.34,14.61-31,14.61s-25.64-4-31-14.61l0-22.81a8,8,0,0,1,8-8H66a8,8,0,0,1,8,8Z"/><path class="cls-1" d="M73.8,100a38,38,0,0,1,.84,8c0,19.16-14.19,34.7-31.7,34.7s-31.7-15.54-31.7-34.7a37.88,37.88,0,0,1,.87-8.11"/><path class="cls-1" d="M84.35,220.05H4.22a3.47,3.47,0,0,1-3.47-3.47S2.1,173.19,5,158.33c2.16-11.05,7.85-20.68,18.37-23.1"/><path class="cls-1" d="M10.45,104s-4.21-1.12-6.23,2.45a6.85,6.85,0,0,0,1.92,9,6.69,6.69,0,0,0,5.37.92"/><path class="cls-1" d="M75,104s4.21-1.12,6.23,2.45a6.85,6.85,0,0,1-1.92,9,6.69,6.69,0,0,1-5.37.92"/><line class="cls-1" x1="12.3" y1="142.61" x2="12.3" y2="219.83"/><circle class="cls-1" cx="18.63" cy="165.21" r="2.67"/><path class="cls-1" d="M73,132.28s0,37.26,13.67,33.07"/><path class="cls-1" d="M65.1,132.75l-1.34,24.3A5.73,5.73,0,0,1,58,162.78H27.27a5.74,5.74,0,0,1-5.73-5.73L20.21,136.4"/><circle class="cls-1" cx="66.68" cy="165.21" r="2.67"/><path class="cls-1" d="M152.6,158.51a31.91,31.91,0,0,1,1.75,6.84c1.92,12.46,3.07,51.62,3.07,51.62a3.08,3.08,0,0,1-3.08,3.08H86A3.08,3.08,0,0,1,82.9,217s1.2-38.46,3.77-51.62c1.91-9.8,7-18.34,16.29-20.48"/><path class="cls-1" d="M91.5,117.22s-3.73-1-5.52,2.17a6.08,6.08,0,0,0,1.7,8,6,6,0,0,0,4.76.82"/><path class="cls-1" d="M148.67,117.22s3.73-1,5.52,2.17a6.08,6.08,0,0,1-1.7,8,6,6,0,0,1-4.76.82"/><path class="cls-1" d="M85.18,176.42l9.52,5.27a2.41,2.41,0,0,1,1.24,2.18l-1.07,36.18"/><path class="cls-1" d="M155,176.42l-9.52,5.27a2.41,2.41,0,0,0-1.24,2.18l1.07,36.18"/><path class="cls-1" d="M147.71,113.62c-3.62,0-16.76-.63-20.84-9.33-6.35,7.92-26.74,9.16-32.9,9.22a2.19,2.19,0,0,1-2.2-2.06c-.44-6.94.36-29.19,28.53-29.17,32.36,0,29.46,25.27,28.53,30.42A1.13,1.13,0,0,1,147.71,113.62Z"/><path class="cls-1" d="M93,113.5a33.82,33.82,0,0,0-.77,7.18c0,17,12.58,30.76,28.1,30.76s28.09-13.77,28.09-30.76a33.44,33.44,0,0,0-.75-7.07"/><path class="cls-1" d="M144.59,136.16a34,34,0,0,1,5.59,3.47c4,3.1,6.79,6.5,7.31,11.55.79,7.6-8,8.75-11.81,7.44-5.28-1.81-11.54-8.07-8.85-13.07"/><path class="cls-1" d="M65.1,132.75a219.34,219.34,0,0,1,28.26-3.29"/><path class="cls-2" d="M108.14,62.55l-16,4.3a.35.35,0,0,1-.41-.46l6-16.51-1-18.23c0-17,13-30.9,29-30.9h13.72c15.92,0,28.94,13.9,28.94,30.9h0c0,17-13,30.9-28.94,30.9Z"/><path class="cls-2" d="M136.74,17.31h5.49a1.22,1.22,0,0,1,1.25,1.19V46.38a1.22,1.22,0,0,1-1.25,1.19H121.14a1.22,1.22,0,0,1-1.25-1.19V18.5a1.22,1.22,0,0,1,1.25-1.19h5.49"/><path class="cls-2" d="M128.18,34.42l2.12,1.65a.34.34,0,0,0,.52-.12l4.37-7.22"/><rect class="cls-2" x="126.63" y="15.82" width="10.11" height="3.79" rx="1.45"/><path class="cls-2" d="M129.56,15.82a2.12,2.12,0,0,1,4.24,0"/></g></g></svg>