<svg xmlns="http://www.w3.org/2000/svg" viewBox="0 0 487.47 338.97"><defs><style>.cls-1{fill:none;stroke:#fff;stroke-miterlimit:10;stroke-width:1.5px;}</style></defs><g id="Layer_2" data-name="Layer 2"><g id="house_with_walls" data-name="house with walls"><polyline class="cls-1" points="346.16 50.67 308.39 36.36 300.46 42.12"/><path class="cls-1" d="M43.1,131.21l42.46-24.12a1.83,1.83,0,0,1,1.73,0l77.2,40.54"/><line class="cls-1" x1="123.21" y1="233.38" x2="123.21" y2="177.77"/><line class="cls-1" x1="190.35" y1="154.76" x2="190.35" y2="209.1"/><line class="cls-1" x1="396.85" y1="69.88" x2="397.19" y2="33.27"/><path class="cls-1" d="M386,79.73l10-9.11a1.79,1.79,0,0,1,1.85-.35l63.23,24"/><line class="cls-1" x1="311.43" y1="106.6" x2="411.02" y2="147.07"/><path class="cls-1" d="M379.78,179.25l-67.31-31.16a1.78,1.78,0,0,1-1-1.63v-39a1.79,1.79,0,0,1,.63-1.36l85.13-72.8"/><line class="cls-1" x1="356.49" y1="106.6" x2="356.49" y2="68.66"/><path class="cls-1" d="M423.35,134.18,357.54,107a1.79,1.79,0,0,0-1.9.33l-13.06,11.89"/><line class="cls-1" x1="86.63" y1="62.55" x2="86.42" y2="106.6"/><path class="cls-1" d="M204.15,118.6,87.44,62.94a1.77,1.77,0,0,0-1.6,0L1.73,106.1a1.81,1.81,0,0,0-1,1.6v46.59a1.79,1.79,0,0,0,.83,1.51l120.66,77a1.61,1.61,0,0,0,1.86-.11L145,215.87"/><polyline class="cls-1" points="216.27 109.85 210.75 107.27 198.72 116.01"/><line class="cls-1" x1="210.82" y1="65.87" x2="210.75" y2="107.27"/><path class="cls-1" d="M254.37,83.33,204.15,118.6l-80,58.47a1.79,1.79,0,0,1-2,.11L.75,106.6"/><path class="cls-1" d="M210.82,65.87l42.42,17a1.78,1.78,0,0,1,1.13,1.67v42.3a1.79,1.79,0,0,1-.66,1.4l-13,10.52"/><line class="cls-1" x1="288.73" y1="272.14" x2="288.73" y2="338.32"/><line class="cls-1" x1="267.91" y1="202.56" x2="267.91" y2="152.82"/><path class="cls-1" d="M267.91,152.82,235.8,177.09a1.81,1.81,0,0,1-1.91.16l-42.52-22a1.82,1.82,0,0,0-1.93.17l-43.79,33.59a1.81,1.81,0,0,0-.7,1.43V246.2a1.59,1.59,0,0,0,.74,1.35L287.48,338a1.69,1.69,0,0,0,2.21-.34l196.6-233.18a1.75,1.75,0,0,0,.43-1.16V67.52a1.79,1.79,0,0,0-1.18-1.69L309.25.86a1.79,1.79,0,0,0-1.62.19L161.24,98.13"/><line class="cls-1" x1="234.89" y1="234.07" x2="234.89" y2="177.77"/><line class="cls-1" x1="233.89" y1="177.35" x2="233.89" y2="135.64"/><path class="cls-1" d="M326.75,233.88l-57.69-30.71a1.8,1.8,0,0,0-2.09.29l-31.11,29.69a1.8,1.8,0,0,1-2.13.27l-42.3-23.72a1.8,1.8,0,0,0-2,.19l-3.89,3.24"/><path class="cls-1" d="M202,160.78,233,136a1.8,1.8,0,0,1,2-.2l33,17L361.54,198"/><path class="cls-1" d="M411,147.07,289.71,272a1.79,1.79,0,0,1-2.19.31L145,189.59"/><polyline class="cls-1" points="411.02 147.07 451.45 104.78 486.71 66.26"/><line class="cls-1" x1="451.45" y1="104.78" x2="356.68" y2="68.5"/><line class="cls-1" x1="308.39" y1="36.36" x2="308.39" y2="0.55"/><line class="cls-1" x1="338.12" y1="56.99" x2="338.12" y2="83.78"/><line class="cls-1" x1="266.15" y1="67.04" x2="266.15" y2="28.56"/><polyline class="cls-1" points="328.01 92.42 266.15 67.04 247.26 80.75"/><line class="cls-1" x1="377.52" y1="26.02" x2="377.52" y2="50.09"/><path class="cls-1" d="M266.15,28.56l71,28.05a1.77,1.77,0,0,0,1.77-.26L377.52,26"/><path class="cls-1" d="M64.85,195.74V156.07a.5.5,0,0,1,.75-.43l40.34,24.1a1.8,1.8,0,0,1,.88,1.54v41.23"/><path class="cls-1" d="M50.21,187.36V148.79a1.8,1.8,0,0,0-.88-1.54l-35.4-21.17a.5.5,0,0,0-.76.43v37.23"/><path class="cls-1" d="M231.49,282.57l-19.28-12a1.8,1.8,0,0,1-.85-1.53v-17a.5.5,0,0,1,.76-.43l19.27,11.71a1.79,1.79,0,0,1,.87,1.53v17.27A.51.51,0,0,1,231.49,282.57Z"/><path class="cls-1" d="M257.22,298.73l-19-11.84a1.8,1.8,0,0,1-.85-1.53V268a.49.49,0,0,1,.76-.42l19,11.54a1.8,1.8,0,0,1,.87,1.54v17.66A.5.5,0,0,1,257.22,298.73Z"/></g><g id="ducted_ac" data-name="ducted ac"><line class="cls-1" x1="250.93" y1="111.64" x2="250.93" y2="95.26"/><path class="cls-1" d="M230.44,88.37l.61,2.95a1.82,1.82,0,0,0,1.33,1.38l15.7,3.94"/><path class="cls-1" d="M228.72,85.09l21.2,9.71a1.81,1.81,0,0,0,1.87-.23l9-7.14"/><path class="cls-1" d="M248.08,110.32l1.84.85a1.81,1.81,0,0,0,1.88-.22l8.28-6.6a1.79,1.79,0,0,0,.68-1.4V88.64A1.81,1.81,0,0,0,259.64,87L239.3,78.71a1.8,1.8,0,0,0-1.71.19l-8.1,5.66a1.78,1.78,0,0,0-.77,1.47v6.35"/><path class="cls-1" d="M230.14,102.73V103a.57.57,0,0,0,0,.18l.65,1.73A1.81,1.81,0,0,0,232,106l3.09.88"/><path class="cls-1" d="M245.13,109.75l2.31.66a.5.5,0,0,0,.64-.48V97a.51.51,0,0,0-.28-.45l-16.94-8.18a.5.5,0,0,0-.72.45V93"/><line class="cls-1" x1="231.28" y1="91.89" x2="231.28" y2="105.8"/><line class="cls-1" x1="266.53" y1="86.33" x2="260.76" y2="90.83"/><path class="cls-1" d="M260.76,101.2l5.39-4.27a1.8,1.8,0,0,0,.68-1.41v-8.2a1.79,1.79,0,0,0-1.13-1.67l-20.09-8.27a1.81,1.81,0,0,0-1.74.23l-2.57,1.91"/><path class="cls-1" d="M296.92,64.16l-7.26,5.65a1.51,1.51,0,0,1-1.5.22l-18.67-7.51"/><line class="cls-1" x1="273.97" y1="72.81" x2="275.97" y2="73.66"/><path class="cls-1" d="M282.41,76.4l5.73,2.44a1.51,1.51,0,0,0,1.54-.21l6.92-5.51a1.53,1.53,0,0,0,.57-1.19V65a1.52,1.52,0,0,0-1-1.42l-17.35-6.52a1.55,1.55,0,0,0-1.47.19l-7.22,4.82a1.53,1.53,0,0,0-.68,1.27v5.22"/><line class="cls-1" x1="288.97" y1="70.35" x2="288.97" y2="79.19"/><path class="cls-1" d="M260.06,83.33,275,72c1.46-1.2,2.47-2,2.09-3.74a3,3,0,0,0-3.46-2.52,3,3,0,0,0-1.18.61L253.05,80.44"/><path class="cls-1" d="M266.83,89.23l16.75-13.79c1.52-1.27,2.47-2,2.09-3.74a3,3,0,0,0-3.47-2.52,2.62,2.62,0,0,0-1.17.6L262,84.14"/><path class="cls-1" d="M272.51,203.39l7.46,4.09a.5.5,0,0,1,.1.8l-10.95,10.44a.5.5,0,0,1-.59.07l-14.83-8.32a.51.51,0,0,1-.1-.81l7.29-6.72"/><path class="cls-1" d="M386.38,102l6,2.6a.5.5,0,0,1,.15.82l-9.25,8.76a.51.51,0,0,1-.54.09l-13-5.75a.5.5,0,0,1-.13-.83l5.73-5.27"/><path class="cls-1" d="M424.77,61.67l8.56,3.41a.5.5,0,0,1,.16.83l-8.46,8a.48.48,0,0,1-.53.1l-12.75-5.19a.5.5,0,0,1-.15-.83l3.71-3.41"/><path class="cls-1" d="M323.48,23l7,2.75a.5.5,0,0,1,.12.86l-8.44,6.47a.51.51,0,0,1-.49.07L310,28.5a.5.5,0,0,1-.12-.86l3.37-2.52"/><path class="cls-1" d="M290,93.4l9.4,4.25a.5.5,0,0,1,.12.84l-10.33,8.58a.51.51,0,0,1-.53.07l-10-4.61"/><path class="cls-1" d="M218.75,93.7,208.84,101a.49.49,0,0,1-.51,0l-12.31-6a.5.5,0,0,1-.07-.86l7.5-5.4"/><path class="cls-1" d="M261.05,154.76h0a17.77,17.77,0,0,0,3,12.2c4.64,6.76,8.51,9.74,8.51,42.85a3.78,3.78,0,0,1-1.11,2c-2,2-5.79,2.26-8.53.66a6,6,0,0,1-1.41-1.15,3.62,3.62,0,0,1-.68-3.54c.53-26.84-3.31-30.62-8.47-38.09a27,27,0,0,1-4.46-11c-.67-4.14-1.07-9.32.58-11.62"/><path class="cls-1" d="M231.28,102.32s-8,3.93-11.31-6.46a5.78,5.78,0,0,0-.9-1.85c-4.54-4.78-6,.95-6,.95a3.11,3.11,0,0,1-1,1.14c-2,1.46-5.63,1.65-8.16.42-1.66-.81-2.4-2-2.14-3.16,0,0,2.25-11.71,12.65-11.45a14.45,14.45,0,0,1,12,7.45c1.43,2.5,2.48,3.77,4.56,3.77"/><path class="cls-1" d="M251.22,132.45a22.78,22.78,0,0,0,13.24-13.77,16.86,16.86,0,0,0,.71-3.85c1.77-21.92,7.59-23.34,12.87-24.68,3.42-1.05,14.24.35,14.63,9.46a3.35,3.35,0,0,1-1.12,2c-1.92,1.77-5.57,2.12-8.15.79a4.91,4.91,0,0,1-1.45-1.16s-4.39-1.14-4.95,7c-1.8,18.65-5.59,27.38-19.34,31.77"/><path class="cls-1" d="M361.54,74.42c9.38-12.89,20.22-21.59,39.54-17.68,13.37,3,16.3,11.12,16.3,11.12a3.64,3.64,0,0,0,2.28,1.87c2.42,1,5.67.52,7.25-1a2.18,2.18,0,0,0,.37-3.08s-7.42-15-23.22-17.86c-33.48-6.42-53.6,16.18-58,36.13"/><path class="cls-1" d="M386.64,106.61a82.78,82.78,0,0,0-1.53-14c-1.68-8.17-5.94-13.44-13.46-17-9.87-4.73-30.56,1.34-33.39,30-.09.89-1.27,17.61-13.08,27.74C306.53,149.19,244,166.72,245,102.68a4.18,4.18,0,0,0,0-.71,5.53,5.53,0,0,0-3-4.58,5.28,5.28,0,0,0-4.91,0c-1,.58-2.36,1.44-2.36,3.2,1.89,28.73,3.46,62.89,60.81,56.78A66.32,66.32,0,0,0,332.69,141c6.43-5.76,12.25-12.64,14.13-19.36,1.09-4.44,1.91-9.26,2.54-12.67.4-2.16.92-4.62,1.6-7.11,1.77-15.52,24.5-25.9,24.62,5.33h0a4.08,4.08,0,0,0,2.28,2.58c2.54,1.16,6,.67,7.79-1.09A2.93,2.93,0,0,0,386.64,106.61Z"/><path class="cls-1" d="M224.19,86.33s15.07-6.6,50.66-48.44a46.9,46.9,0,0,1,20.24-13.33c12.36-4.06,19.4-.35,20.13,2.64,0,.79.59,1.56,1.82,2.05a7.46,7.46,0,0,0,6.54-.66,2.1,2.1,0,0,0,.92-1.42S324.28,10.88,299,14.3C266.3,18.16,244.74,68,214.41,81.91"/></g></g></svg>