<svg xmlns="http://www.w3.org/2000/svg" viewBox="0 0 517.37 342.03"><defs><style>.cls-1{fill:none;stroke:#fff;stroke-miterlimit:10;stroke-width:1.5px;}</style></defs><g id="Layer_2" data-name="Layer 2"><g id="house_with_walls" data-name="house with walls"><polyline class="cls-1" points="360.3 53.74 322.53 39.42 314.6 45.18"/><path class="cls-1" d="M57.23,134.28,99.7,110.16a1.78,1.78,0,0,1,1.73,0l77.19,40.53"/><line class="cls-1" x1="137.35" y1="236.45" x2="137.35" y2="180.84"/><line class="cls-1" x1="204.49" y1="157.83" x2="204.49" y2="212.17"/><line class="cls-1" x1="410.99" y1="72.94" x2="411.33" y2="36.34"/><path class="cls-1" d="M400.16,82.8l10-9.11a1.79,1.79,0,0,1,1.85-.35l63.23,24"/><line class="cls-1" x1="325.56" y1="109.67" x2="425.16" y2="150.13"/><path class="cls-1" d="M393.92,182.31l-67.31-31.15a1.82,1.82,0,0,1-1.05-1.64v-39a1.79,1.79,0,0,1,.63-1.37l85.14-72.79"/><line class="cls-1" x1="370.62" y1="109.67" x2="370.62" y2="71.73"/><path class="cls-1" d="M437.49,137.24l-65.81-27.13a1.79,1.79,0,0,0-1.9.33l-13.06,11.89"/><line class="cls-1" x1="100.77" y1="65.62" x2="100.56" y2="109.67"/><path class="cls-1" d="M218.29,121.67,101.57,66A1.78,1.78,0,0,0,100,66L15.87,109.17a1.79,1.79,0,0,0-1,1.6v46.58a1.79,1.79,0,0,0,.83,1.52l120.66,77a1.59,1.59,0,0,0,1.86-.1l20.85-16.79"/><polyline class="cls-1" points="230.4 112.92 224.89 110.34 212.85 119.08"/><line class="cls-1" x1="224.95" y1="68.93" x2="224.89" y2="110.34"/><path class="cls-1" d="M268.51,86.4l-50.22,35.27-80,58.47a1.81,1.81,0,0,1-2,.1L14.89,109.67"/><path class="cls-1" d="M225,68.93l42.43,17a1.82,1.82,0,0,1,1.13,1.68v42.3a1.78,1.78,0,0,1-.67,1.4l-13,10.52"/><line class="cls-1" x1="302.87" y1="275.21" x2="302.87" y2="341.39"/><line class="cls-1" x1="282.05" y1="205.63" x2="282.05" y2="155.89"/><path class="cls-1" d="M282.05,155.89l-32.12,24.26a1.81,1.81,0,0,1-1.91.17l-42.52-22a1.79,1.79,0,0,0-1.92.17l-43.79,33.59a1.81,1.81,0,0,0-.7,1.43v55.72a1.61,1.61,0,0,0,.74,1.35L301.62,341a1.7,1.7,0,0,0,2.21-.34L500.43,107.5a1.8,1.8,0,0,0,.42-1.16V70.58a1.8,1.8,0,0,0-1.18-1.69l-176.29-65a1.77,1.77,0,0,0-1.61.19L175.37,101.2"/><line class="cls-1" x1="249.03" y1="237.14" x2="249.03" y2="180.84"/><line class="cls-1" x1="248.02" y1="180.41" x2="248.02" y2="138.71"/><path class="cls-1" d="M340.88,236.94l-57.68-30.7a1.8,1.8,0,0,0-2.09.28L250,236.22a1.8,1.8,0,0,1-2.12.27l-42.3-23.72a1.8,1.8,0,0,0-2,.19l-3.89,3.24"/><path class="cls-1" d="M216.13,163.84l31-24.81a1.8,1.8,0,0,1,1.95-.19l33,17,93.63,45.17"/><path class="cls-1" d="M425.16,150.13l-121.31,125a1.8,1.8,0,0,1-2.2.3L159.09,192.66"/><polyline class="cls-1" points="425.16 150.13 465.58 107.85 500.85 69.33"/><line class="cls-1" x1="465.58" y1="107.85" x2="370.82" y2="71.57"/><line class="cls-1" x1="322.53" y1="39.42" x2="322.53" y2="3.61"/><line class="cls-1" x1="352.25" y1="60.06" x2="352.25" y2="86.85"/><line class="cls-1" x1="280.28" y1="70.1" x2="280.28" y2="31.63"/><polyline class="cls-1" points="342.15 95.49 280.28 70.1 261.4 83.82"/><line class="cls-1" x1="391.66" y1="29.09" x2="391.66" y2="53.16"/><path class="cls-1" d="M280.28,31.63l71,28.05a1.81,1.81,0,0,0,1.78-.26l38.59-30.33"/><path class="cls-1" d="M79,198.8V159.13a.5.5,0,0,1,.76-.43l40.33,24.11a1.78,1.78,0,0,1,.88,1.54v41.22"/><path class="cls-1" d="M64.34,190.43V151.86a1.82,1.82,0,0,0-.87-1.55l-35.4-21.16a.5.5,0,0,0-.76.42v37.24"/><path class="cls-1" d="M245.63,285.63l-19.29-12a1.83,1.83,0,0,1-.85-1.53v-17a.5.5,0,0,1,.76-.43l19.28,11.7a1.82,1.82,0,0,1,.86,1.54v17.27A.5.5,0,0,1,245.63,285.63Z"/><path class="cls-1" d="M271.36,301.8l-19-11.84a1.8,1.8,0,0,1-.85-1.53V271.06a.5.5,0,0,1,.76-.43l19,11.55a1.8,1.8,0,0,1,.87,1.54v17.65A.5.5,0,0,1,271.36,301.8Z"/></g><g id="roof"><line class="cls-1" x1="105.19" y1="194.02" x2="150.31" y2="160.4"/><path class="cls-1" d="M159.09,252l-53.48-57.55a1.84,1.84,0,0,0-1-.56l-46.77-7.83"/><path class="cls-1" d="M189.21,225.54l-29.07,26a1.79,1.79,0,0,1-2.22.15l-8-5.52a19.23,19.23,0,0,1-3.15-2.69l-43.65-45.92a1.8,1.8,0,0,0-1-.54l-37.32-6.63a6.38,6.38,0,0,1-2.16-.79l-3.94-2.32a1.81,1.81,0,0,1-.09-3.05l39.18-26.43,51.79,2.53a1.8,1.8,0,0,1,1.26.6l12.7,14.37a1.8,1.8,0,0,1-.27,2.64l-10.82,8,36.87,37A1.8,1.8,0,0,1,189.21,225.54Z"/><path class="cls-1" d="M156.37,189.94h35.27a1.8,1.8,0,0,1,1.21.47L304.11,292.05a6.44,6.44,0,0,0,2.33,1.36l6.52,2.18a1.81,1.81,0,0,0,1.88-.48L516.14,79.79a1.8,1.8,0,0,0-.15-2.6l-88.92-76A1.8,1.8,0,0,0,425.9.75H308.21a1.79,1.79,0,0,0-1,.28L164.82,90.79"/><line class="cls-1" x1="193.68" y1="185.86" x2="426.56" y2="0.75"/><path class="cls-1" d="M313.6,295.54,194.2,186.33a1.84,1.84,0,0,0-1.22-.47l-40.56.12"/><path class="cls-1" d="M97.76,157.83l75.85-55.35a1.79,1.79,0,0,0,.17-2.77l-36-33.66a1.76,1.76,0,0,0-1.08-.48l-39.3-3.16a1.86,1.86,0,0,0-1,.19L1.74,110.69a1.8,1.8,0,0,0,0,3.22l9.09,4.51a6.41,6.41,0,0,0,1.17.45L37.74,126a1.69,1.69,0,0,1,.72.39l29.59,26.3a65,65,0,0,0,9.77,7.18l8.6,5.12a.19.19,0,0,0,.23-.31l-46-40.91a1.86,1.86,0,0,0-.7-.39L.75,112.25"/><line class="cls-1" x1="137.35" y1="65.62" x2="40.3" y2="123.46"/><line class="cls-1" x1="67.94" y1="190.99" x2="67.94" y2="245.18"/><path class="cls-1" d="M72.64,191.82v48.86a1.81,1.81,0,0,1-.7,1.43l-3,2.28a1.8,1.8,0,0,1-2.11.06l-5-3.37a1.83,1.83,0,0,1-.79-1.49l0-50.81"/><line class="cls-1" x1="148.72" y1="245.4" x2="148.97" y2="299.35"/><path class="cls-1" d="M153.67,248.8v46.05a1.77,1.77,0,0,1-.71,1.42l-3,2.28a1.79,1.79,0,0,1-2.11.06l-4.95-3.37a1.79,1.79,0,0,1-.78-1.49l0-55"/></g></g></svg>