<svg xmlns="http://www.w3.org/2000/svg" viewBox="0 0 166.61 412.82"><defs><style>.cls-1{fill:none;stroke:#fff;stroke-linecap:round;stroke-linejoin:round;stroke-width:1.5px;}.cls-2{fill:#fff;}</style></defs><g id="Layer_2" data-name="Layer 2"><g id="installs"><line class="cls-1" x1="45.68" y1="321.42" x2="52.82" y2="296.77"/><line class="cls-1" x1="37.5" y1="349.72" x2="43.04" y2="330.56"/><line class="cls-1" x1="73.65" y1="330.51" x2="66.34" y2="300.99"/><path class="cls-1" d="M96.25,362.06,99,372.36a1.64,1.64,0,0,1-1,1.95l-9.82,3.84a1.63,1.63,0,0,1-1.11,0l-.95-.31a1.64,1.64,0,0,1-1.07-1.16L80.9,359.79" transform="translate(0)"/><line class="cls-1" x1="88.28" y1="332.37" x2="93.49" y2="351.78"/><path class="cls-1" d="M14.5,372.78l-5.73,18a1.63,1.63,0,0,0,.93,2l.06,0a1.71,1.71,0,0,0,1,.09L24.94,390a1.63,1.63,0,0,0,1.24-1.15L31,372.21" transform="translate(0)"/><line class="cls-1" x1="40.19" y1="292.17" x2="33.19" y2="314.13"/><path class="cls-1" d="M114.56,285.18l27.61,102.88a1.64,1.64,0,0,1-1,1.95L131,394a1.67,1.67,0,0,1-1.26,0l-1.21-.54a1.64,1.64,0,0,1-.92-1.1L101.32,286.93" transform="translate(0)"/><line class="cls-1" x1="104.16" y1="298.33" x2="97.79" y2="297.07"/><line class="cls-1" x1="82.19" y1="286.81" x2="89.09" y2="288.62"/><line class="cls-1" x1="45.25" y1="277.13" x2="63.03" y2="281.79"/><path class="cls-1" d="M64.41,274.71l-18.51,2.2A1.65,1.65,0,0,0,44.54,278l-4.37,13.07a1.63,1.63,0,0,0,1.07,2.08L82,305.87a1.64,1.64,0,0,0,2.06-1.11l4.3-15.21a1.63,1.63,0,0,1,1.37-1.17l28-3.94" transform="translate(0)"/><path class="cls-1" d="M119,301.06l1.88.2C122.1,301,122.3,300,122,299c-1-3.25-3.22-11.22-4-13.82a1.5,1.5,0,0,0-1-1.22l-9.18-1.25" transform="translate(0)"/><path class="cls-1" d="M81,305.53,50.71,409.73a1.65,1.65,0,0,0,.95,2l.59.24a1.63,1.63,0,0,0,1.15,0l14-4.71a1.64,1.64,0,0,0,1-1.12L100.49,287" transform="translate(0)"/><line class="cls-1" x1="80.38" y1="307.49" x2="79.76" y2="305.17"/><line class="cls-1" x1="61.34" y1="373.12" x2="51.51" y2="369.6"/><path class="cls-1" d="M83,352l8-.66a5.1,5.1,0,0,1,1.9.21l26.49,7.64" transform="translate(0)"/><polyline class="cls-1" points="120.72 364.62 97.05 357.19 82.8 352.71"/><line class="cls-1" x1="82.45" y1="357.5" x2="122.22" y2="370.63"/><line class="cls-1" x1="91.07" y1="322.03" x2="111.57" y2="327.97"/><line class="cls-1" x1="112.91" y1="333.33" x2="89.96" y2="326.13"/><line class="cls-1" x1="88.69" y1="330.85" x2="114.41" y2="339.34"/><line class="cls-1" x1="72.58" y1="334.38" x2="33.72" y2="321.31"/><line class="cls-1" x1="56.17" y1="366.34" x2="62.7" y2="368.41"/><line class="cls-1" x1="59.61" y1="378.75" x2="40.83" y2="371.79"/><path class="cls-1" d="M70.71,340.82,33.15,326.89a1.79,1.79,0,0,1-1.08-2.25l.76-2.3a1.83,1.83,0,0,1,1.66-1.23l6.3-.18a18.09,18.09,0,0,1,6.06.87l26.86,8.69" transform="translate(0)"/><path class="cls-2" d="M149.43,23.85a19,19,0,0,1,2.8-1.88c1-.55,2-1,3-1.5a33.24,33.24,0,0,1,3.11-1.19,18.4,18.4,0,0,1,3.27-.81,19,19,0,0,1-2.8,1.88,28.4,28.4,0,0,1-3,1.49A31.67,31.67,0,0,1,152.7,23,18.4,18.4,0,0,1,149.43,23.85Z" transform="translate(0)"/><path class="cls-2" d="M48.89,9c5.73.67,11.45,1.44,17.17,2.16L83.2,13.52c11.43,1.56,22.83,3.26,34.25,4.88L134.55,21l4.28.65L141,22a14.39,14.39,0,0,1,2.21.44,9.44,9.44,0,0,1,6.33,6.23,9.13,9.13,0,0,1,.43,2.25c.05.78,0,1.48,0,2.2l0,4.33-.1,8.65c-.13,5.76-.2,11.53-.37,17.3-.17-5.77-.25-11.54-.37-17.3L149,37.41l0-4.33c0-.71,0-1.46-.05-2.11a9,9,0,0,0-.43-2,8.47,8.47,0,0,0-5.61-5.34,12.38,12.38,0,0,0-2-.39L138.64,23l-4.28-.61-17.13-2.46c-11.4-1.74-22.81-3.42-34.2-5.22L66,11.93C60.26,11,54.57,10.05,48.89,9Z" transform="translate(0)"/><path class="cls-1" d="M140.12,64.69l-90.32-17a9,9,0,0,1-7.34-8.91l.17-24a9,9,0,0,1,6.14-8.47L64.05,1.22A9,9,0,0,1,68.19.84l89.95,12.92a9,9,0,0,1,7.72,8.91V51.21a9,9,0,0,1-.81,3.74" transform="translate(0)"/><path class="cls-1" d="M49.8,47.71a17.27,17.27,0,0,1-3.47-5.06,2,2,0,0,1,2.18-2.8l86.2,15.67A9,9,0,0,1,141,59.9l1.31,2.41" transform="translate(0)"/><line class="cls-1" x1="81.23" y1="40.83" x2="100" y2="43.98"/><path class="cls-2" d="M58,102.74a3.56,3.56,0,0,0,3.37-.62,3.3,3.3,0,0,0,.93-1.67c0-.07.05-.15.07-.23l0-.07s0,0,0-.05.11-.17,0-.1.08-.07.1-.09l0,0,.08-.06h0l.09,0c.05,0,0,0,0,0s.07,0,0,0,0,0,0,0c-.09,0-.1,0,0,0a.75.75,0,0,0,1-.27.76.76,0,0,0-.27-1,1.56,1.56,0,0,0-2,.36,2.75,2.75,0,0,0-.55,1c0,.15-.09.31-.14.46s-.08.22,0,.13a1.62,1.62,0,0,1-.1.18s-.13.19,0,0l-.12.14-.14.12c-.13.13.12-.06,0,0s-.21.13-.32.18c.15-.07,0,0-.06,0l-.18,0-.19,0c-.06,0-.18,0,0,0h-.57l-.1,0-.4-.1a.75.75,0,0,0-.92.52.77.77,0,0,0,.52.93Z" transform="translate(0)"/><path class="cls-2" d="M56.47,92.51a2.87,2.87,0,0,0-3.36.48,3.75,3.75,0,0,0-.82,3.79,8.71,8.71,0,0,0,2.41,3.52A9,9,0,0,0,58,102.74c.91.31,1.31-1.13.4-1.45A6.91,6.91,0,0,1,56,99.51,10.45,10.45,0,0,1,54,97a2.74,2.74,0,0,1-.07-2.66,1.43,1.43,0,0,1,1.8-.54.75.75,0,0,0,.76-1.29Z" transform="translate(0)"/><path class="cls-2" d="M62.41,83.67c.92,2,3.26,2.43,4.48,4.11,1.35,1.88,1.65,4.42,2.08,6.63a35.75,35.75,0,0,1,.6,4.38,12.56,12.56,0,0,1-.19,3.87c-.49,1.86-2.12,3-3.6,4.06-2,1.41-3.91,2.88-4,5.51a.75.75,0,0,0,1.5,0c0-2.24,2.16-3.43,3.77-4.61s3.12-2.44,3.7-4.4a12.49,12.49,0,0,0,.32-4,32.63,32.63,0,0,0-.49-4.18,25,25,0,0,0-1.9-7.19,7.25,7.25,0,0,0-2.43-2.7,6.62,6.62,0,0,1-2.58-2.28c-.41-.88-1.7-.12-1.29.75Z" transform="translate(0)"/><path class="cls-2" d="M32.45,101.83a20.32,20.32,0,0,0,8,.66,25.71,25.71,0,0,0,9-2.21A10.63,10.63,0,0,0,53,97.68c.63-.73-.43-1.79-1.06-1.06-1.68,2-4.3,3-6.74,3.59a28.16,28.16,0,0,1-8.53.84,14.5,14.5,0,0,1-3.81-.66c-.92-.31-1.31,1.14-.4,1.44Z" transform="translate(0)"/><path class="cls-2" d="M33,100.89a27,27,0,0,1-.47-13.47,16.5,16.5,0,0,1,1.59-4.53A15.65,15.65,0,0,1,38,78.44a18.45,18.45,0,0,1,11.37-4.12A20.55,20.55,0,0,1,59.39,77a7.37,7.37,0,0,1,2.54,1.86,3.24,3.24,0,0,1,.38,3,26.5,26.5,0,0,1-1.89,3.67,36.61,36.61,0,0,1-4.76,6.56c-.65.71.4,1.77,1.06,1.06a38,38,0,0,0,4.65-6.27c.7-1.17,1.34-2.36,1.93-3.58A5.6,5.6,0,0,0,64,80.06c-.35-2.47-2.54-3.72-4.57-4.76A22.39,22.39,0,0,0,52.18,73C43.56,71.85,34,76.77,31.52,85.41a28.4,28.4,0,0,0,.06,15.88c.28.92,1.73.53,1.45-.4Z" transform="translate(0)"/><path class="cls-2" d="M50.8,97.76c-2.22,5.11-5.06,11.26-10.66,13.35-3,1.13-8,1-9.1-2.74-.74-2.43.55-5,1.91-6.9.56-.79-.74-1.54-1.29-.76-1.48,2.1-2.66,4.67-2.24,7.3a6,6,0,0,0,3.33,4.4c4.57,2.26,10-.11,13.27-3.59,2.72-2.93,4.5-6.68,6.08-10.31.38-.87-.92-1.64-1.3-.75Z" transform="translate(0)"/><path class="cls-2" d="M63.85,188.62a42.66,42.66,0,0,1,11.05.63,11.92,11.92,0,0,1,3.61,1.06,1.19,1.19,0,0,1,.48.39,4.37,4.37,0,0,1,.69,1.34,10.22,10.22,0,0,1,.44,1.62,23.32,23.32,0,0,1-.17,7.86,56.78,56.78,0,0,1-2.22,8.9,47.85,47.85,0,0,1-3.11,7.47,17.77,17.77,0,0,1-1.56,2.49,7.62,7.62,0,0,1-.68.76,2.77,2.77,0,0,1-.48.33l-.32.14-.57.27c-.39.18-.79.36-1.18.52-.81.34-1.63.66-2.45.95-1.79.65-3.61,1.2-5.45,1.68a72.88,72.88,0,0,1-12.19,2.15,38.81,38.81,0,0,1-9.14,0,14,14,0,0,0-8,.74,7,7,0,0,0-1.89,1.3c-.69.67.37,1.73,1.07,1.06,2.06-2,5.41-2,8.08-1.69a45.67,45.67,0,0,0,8.84.16,73.77,73.77,0,0,0,12.44-2A58.07,58.07,0,0,0,72,223.08a5.29,5.29,0,0,0,1.83-1.27,14.77,14.77,0,0,0,1.68-2.4,44.9,44.9,0,0,0,3.28-7.4,58.7,58.7,0,0,0,2.46-9.14,28.9,28.9,0,0,0,.5-8.5,10.56,10.56,0,0,0-1.14-4,4.71,4.71,0,0,0-3.09-2.08A38.83,38.83,0,0,0,66.66,187c-.94,0-1.88,0-2.81.1s-1,1.57,0,1.5Z" transform="translate(0)"/><path class="cls-2" d="M46.78,228.14c.36,7.87,1.49,16-.45,23.71a5.07,5.07,0,0,1-4.21,3.83c-2.18.33-4.37.58-6.56.86a72.66,72.66,0,0,1-13.9.8,21,21,0,0,1-5.86-1.16,6.14,6.14,0,0,1-3.21-2.12,6.07,6.07,0,0,1-.57-3.12c0-1.26-.06-2.52-.1-3.78-.06-2.47,0-5-.31-7.45a21.65,21.65,0,0,0-1.92-6.9,15.81,15.81,0,0,0-1.84-3,25,25,0,0,1-2.19-3.47,31.65,31.65,0,0,1-4.08-12.44,24.93,24.93,0,0,1,1.1-9.32c.79-2.58,1.88-5,2.74-7.59.2-.59.39-1.18.55-1.77a.75.75,0,0,0-1.45-.4c-.71,2.63-1.84,5.12-2.73,7.68A29.08,29.08,0,0,0,0,211.83,29.45,29.45,0,0,0,2.83,224c.55,1.22,1.16,2.42,1.81,3.59.35.62.71,1.24,1.09,1.85s.78,1,1.17,1.57a17.58,17.58,0,0,1,2.9,6.82,42.66,42.66,0,0,1,.58,7.74c0,1.27.07,2.54.1,3.8a20.6,20.6,0,0,0,.23,3.93c.78,3.48,5,4.67,8.06,5.18a50.7,50.7,0,0,0,14.08-.14c2.37-.26,4.74-.59,7.1-.9A22.15,22.15,0,0,0,43.2,257,6.61,6.61,0,0,0,46,255.37c1.53-1.5,1.91-3.54,2.28-5.57a39.86,39.86,0,0,0,.61-5.34c.17-4-.18-8.1-.41-12.13-.07-1.4-.15-2.8-.21-4.19,0-1-1.54-1-1.5,0Z" transform="translate(0)"/><path class="cls-2" d="M80.51,192.25a23.18,23.18,0,0,1,9.81,2.5,15.68,15.68,0,0,1,4.47,3.09A9.26,9.26,0,0,1,97,203.15a29.58,29.58,0,0,1-1.58,12.47,106,106,0,0,1-5,12.2,83.76,83.76,0,0,0-5.32,13.67.75.75,0,0,0,1.45.39c2.31-8.86,7.34-16.69,10.18-25.37a31.71,31.71,0,0,0,1.83-13,11.77,11.77,0,0,0-1.94-5.83A13.61,13.61,0,0,0,92.19,194a24.78,24.78,0,0,0-11.68-3.29.75.75,0,0,0,0,1.5Z" transform="translate(0)"/><path class="cls-2" d="M67.63,223.6a35.2,35.2,0,0,0-.77,19.14.75.75,0,0,0,1.45-.4A33.74,33.74,0,0,1,69.07,224c.3-.92-1.15-1.32-1.44-.4Z" transform="translate(0)"/><path class="cls-2" d="M66.74,234.18a19.43,19.43,0,0,0,7.85,1.69,28.68,28.68,0,0,0,9.87-1.27,18.63,18.63,0,0,0,5.06-2.44c.78-.55,0-1.85-.76-1.3A20.5,20.5,0,0,1,80,234.09a27.28,27.28,0,0,1-8.88-.09,13.71,13.71,0,0,1-3.66-1.11c-.86-.43-1.62.86-.76,1.29Z" transform="translate(0)"/><path class="cls-2" d="M12.84,256.22A52.81,52.81,0,0,0,14.77,263a12,12,0,0,1,.7,5.23,12.37,12.37,0,0,1-.91,3.85q-.78,1.69-1.41,3.45a46.13,46.13,0,0,0-1.89,7.33c-1.76,10.11-.73,20.47.67,30.55.66,4.69,1.47,9.36,1.92,14.07.09.95,1.6,1,1.5,0-.4-4.16-1.08-8.3-1.68-12.44-.72-4.93-1.35-9.88-1.65-14.86a75.84,75.84,0,0,1,.47-15.58,47.81,47.81,0,0,1,1.71-7.49,37.33,37.33,0,0,1,1.34-3.57,16.51,16.51,0,0,0,.74-1.68,18.38,18.38,0,0,0,.49-2.2,13.25,13.25,0,0,0-.35-6.44,67.59,67.59,0,0,1-2.13-7.38c-.18-1-1.63-.55-1.45.39Z" transform="translate(0)"/><path class="cls-2" d="M44.64,254.92a34.92,34.92,0,0,1,.45,5.78,26.54,26.54,0,0,1-.4,2.71A22.2,22.2,0,0,1,43,268.67c-.89,2.06-1.84,4.09-2.61,6.19a39.09,39.09,0,0,0-1.54,7c-.52,3-1.08,5.9-1.67,8.85-1.15,5.78-2.38,11.54-3.54,17.33-1.25,6.24-2.42,12.51-3.23,18.82-.13,1,1.37.95,1.5,0,1.48-11.47,4.11-22.77,6.39-34.1q.88-4.42,1.7-8.85a60,60,0,0,1,1.45-7.56,63.49,63.49,0,0,1,2.48-6.11,31.14,31.14,0,0,0,2.1-5.64,28.36,28.36,0,0,0,.57-3.54,30.26,30.26,0,0,0-.43-6.16c-.12-.95-1.63-1-1.5,0Z" transform="translate(0)"/><path class="cls-2" d="M12.6,317a13,13,0,0,0,8.16,3.75,17.85,17.85,0,0,0,9.33-.91,5.5,5.5,0,0,0,3.3-2.7c.37-.89-1.08-1.28-1.44-.4s-1.61,1.39-2.4,1.71a14.92,14.92,0,0,1-3.71,1,19.36,19.36,0,0,1-4.5-.09,16.57,16.57,0,0,1-4.26-1A9.22,9.22,0,0,1,13.66,316c-.65-.71-1.71.35-1.06,1.06Z" transform="translate(0)"/><path class="cls-2" d="M41.9,36.42a9.48,9.48,0,0,0-4.18,4.8A32.92,32.92,0,0,0,36.07,48a40.75,40.75,0,0,1-2.13,8.06,24.84,24.84,0,0,1-2.32,4.46,46.34,46.34,0,0,1-3.31,4.1c-1.78,2.11-3.61,4.17-5.44,6.22A29.23,29.23,0,0,0,19.61,75a42.92,42.92,0,0,0-5.12,13.75A61.2,61.2,0,0,0,13.4,95.9a22.59,22.59,0,0,0-.07,4.65c.11,1,1.62,1,1.5,0a20.54,20.54,0,0,1,0-3.92,55.51,55.51,0,0,1,.78-5.89,46.13,46.13,0,0,1,4.47-13.55c2-3.77,5.21-6.74,8-10a45.11,45.11,0,0,0,6-7.86A32.12,32.12,0,0,0,37,51c.57-2.64.87-5.36,1.64-8a8.54,8.54,0,0,1,4-5.35c.84-.47.09-1.77-.76-1.3Z" transform="translate(0)"/><path class="cls-2" d="M41.75,50.9a6,6,0,0,0,2.44-.49c1.07-.35,2.12-.76,3.19-1.1a15,15,0,0,1,1.45-.42,3.39,3.39,0,0,1,.44-.08,1.23,1.23,0,0,1,.27,0s.34,0,.18,0a1.73,1.73,0,0,1,1.5,2.27,4.58,4.58,0,0,1-1.14,1.42c-.51.49-1,1-1.5,1.51-1.08,1.19-2.11,2.44-3.07,3.73a38.92,38.92,0,0,0-4.8,8.41,27,27,0,0,0-2.1,10.4.75.75,0,0,0,1.5,0c-.06-6.81,3-13.25,7.08-18.56a34.72,34.72,0,0,1,3.33-3.84c.95-.93,2.14-1.89,2.26-3.31a3.1,3.1,0,0,0-1.58-3.08,3.8,3.8,0,0,0-2.88-.27c-1.24.3-2.45.77-3.65,1.19a7.5,7.5,0,0,1-2.92.74c-1-.11-1,1.39,0,1.5Z" transform="translate(0)"/><path class="cls-2" d="M91.52,111a44.55,44.55,0,0,1,6.7-.89,51.58,51.58,0,0,1,6.57.37,10.67,10.67,0,0,0,7-1.3c1.79-1.12,2.81-2.86,4.13-4.46a71.39,71.39,0,0,1,9-8.89,76,76,0,0,1,8.83-6.54,21.58,21.58,0,0,0,3-2,20,20,0,0,0,3.39-3.84A14.75,14.75,0,0,0,142.54,78a9.93,9.93,0,0,0,.15-3,12.28,12.28,0,0,0-1-3.38c-.84-2-1.64-4.31-.92-6.52.53-1.6,2.5-3,4.18-2.09a3.69,3.69,0,0,1,1.3,2,4.78,4.78,0,0,0,1.31,2c1.92,1.5,4.17-.1,4.95-2a17.13,17.13,0,0,0,.76-3c.23-1,.5-2,.83-3a17.24,17.24,0,0,1,2.79-5.38c1.14-1.41,2.91-3,4.81-3.21,1.28-.11,1.64.87,2,1.92a16.77,16.77,0,0,1,.72,3.36c.48,4.79-.94,9.58-3,13.87a57.08,57.08,0,0,1-4.88,8.26c-2.06,2.91-4.19,5.7-6,8.8s-3.39,6.26-5,9.46c-1.05,2.15-2.05,4.31-3.28,6.37-1.11,1.87-2.29,3.69-3.53,5.48a90.82,90.82,0,0,1-8.45,10.51,49.38,49.38,0,0,1-9.15,7.93,14.32,14.32,0,0,1-4.32,2.06c-2.18.51-4.38.92-6.57,1.39a39.22,39.22,0,0,0-3.87,1c-1.15.38-2.26.85-3.4,1.26a30.79,30.79,0,0,1-6,1.41c-.81.11-1.62.2-2.43.25-.29,0-.58,0-.88,0h-.33s-.37,0-.14,0c-.95-.15-1.35,1.3-.4,1.45A14.76,14.76,0,0,0,97,135a31.92,31.92,0,0,0,6.18-1.38c1.16-.39,2.28-.88,3.44-1.27a37,37,0,0,1,3.85-1c2.25-.48,4.51-.9,6.74-1.43a15.18,15.18,0,0,0,4.55-2.1,40.9,40.9,0,0,0,4.69-3.51,72.49,72.49,0,0,0,9.16-9.62,95.54,95.54,0,0,0,7.82-11.13c2.32-3.86,4.09-8,6.18-12a84.18,84.18,0,0,1,6.93-11.14c4-5.33,7.53-11.28,8.92-17.84a21.87,21.87,0,0,0,.42-7,17.71,17.71,0,0,0-.71-3.46,4.28,4.28,0,0,0-1.76-2.79c-1.89-1-4.18.29-5.67,1.46A13.87,13.87,0,0,0,154,55.4a25,25,0,0,0-2.08,5.92,18,18,0,0,1-.79,3.18c-.38.87-1.29,1.93-2.35,1.47-.71-.3-1-1.24-1.25-1.88A4.91,4.91,0,0,0,146,61.91a4.31,4.31,0,0,0-5.14.39c-1.74,1.42-2.07,3.88-1.77,6a13.36,13.36,0,0,0,1,3.34,13.35,13.35,0,0,1,1.12,3.48c.41,3.85-1.94,7.6-4.55,10.23a14.49,14.49,0,0,1-3,2.28c-1.4.82-2.74,1.74-4.06,2.69a92.46,92.46,0,0,0-9.67,8c-1.56,1.48-3.06,3-4.47,4.64-.64.75-1.26,1.51-1.85,2.3a10.44,10.44,0,0,1-2.11,2.34,7.7,7.7,0,0,1-3.17,1.41,14,14,0,0,1-3.88,0,45,45,0,0,0-6.66-.31,49.84,49.84,0,0,0-6.66.92c-.95.18-.55,1.62.39,1.45Z" transform="translate(0)"/><path class="cls-1" d="M43.61,110.26a35.59,35.59,0,0,1,9.22,1.92,9.94,9.94,0,0,0,4.2.41c2.07-.23,6.4-.46,8.52.3,1.5.7,6,.49,9.24-.36a47.79,47.79,0,0,1,14-3.25,3.1,3.1,0,0,1,2.78,1.3c3.83,5.69,3.13,14.43,1.7,21.19A6.08,6.08,0,0,1,91.75,135a6.44,6.44,0,0,1-2.44,1.29,43.66,43.66,0,0,1-10.91,2.25,7,7,0,0,0-3.48.83c-1.26.87-1.73,2.49-2.09,4-2.63,11-6.11,22.49-9.56,33.17a14.94,14.94,0,0,0-.65,6.86,11,11,0,0,0,1.3,3.87.53.53,0,0,1-.54.79c-4.29-.65-12.94,1.15-14.77,1.46s-8.87,2.46-10.19,2.94c-10,4.78-26.06,3.5-32.33,2.41a2.59,2.59,0,0,1-2.09-3c.41-2.35.5-5.46-.5-17.17-1.29-21.57,15.14-40.53,10.85-61.71-.5-2.47-1.2-4.89-1.8-7.33a5.16,5.16,0,0,1,1.54-5.07c4.57-4,11.43-6.38,17.09-4.94" transform="translate(0)"/><path class="cls-1" d="M43.38,351.67a10.26,10.26,0,0,0,1.81.05c5-.67,9.86-.08,9.55,9.25a2.71,2.71,0,0,1-1.83,2.47,60,60,0,0,1-20,3.5,9.3,9.3,0,0,0-1.58.16c-18.82,3.48-20.06-2.92-20.06-2.92C9.06,358.24,13,349.4,13.68,346s0-11,0-11c.16.47.49,1.48,4.3,1.79a21.9,21.9,0,0,0,8.08-.9c1.53-.46,3.25-1,4.4-1.43,0,0,1.88-1.14,2.09,1.82A72.58,72.58,0,0,0,33.64,347" transform="translate(0)"/><path class="cls-1" d="M38.33,350.67c.62.16,1.27.32,1.93.47" transform="translate(0)"/><path class="cls-1" d="M34.5,349.3a2,2,0,0,0,.77.47l.67.21" transform="translate(0)"/><path class="cls-1" d="M54.88,360l.62.15a1.44,1.44,0,0,1,1.11,1.48l-.21,3.7A3.45,3.45,0,0,1,54.92,368c-1.79,1.24-5.77,3-14.49,3.88a29.55,29.55,0,0,1-5.72,0,9.84,9.84,0,0,0-3.06.21c-12,2.63-18.43.7-21.08-.59a2.69,2.69,0,0,1-1.51-2.42v-4.27a1.94,1.94,0,0,1,1-1.7l.76-.43" transform="translate(0)"/><path class="cls-1" d="M28,335.32v-3.18a2.09,2.09,0,0,1,1.88-2.09,2,2,0,0,0,1.35-2.72.57.57,0,0,1,.2-.81c1.16-.58,3.48-.78,1.08,9.09" transform="translate(0)"/><path class="cls-1" d="M44.05,351.72s4.89,1.54,5.31,12.19" transform="translate(0)"/><path class="cls-1" d="M18.38,336.66s-.5-3.34-.72-4.45c-.56-2.8-.28-4.43.24-4.43" transform="translate(0)"/><path class="cls-1" d="M15,336.29c-2.49-2.61-3.26-7.45-2.31-8.23,1.4-1.17,5.22-.28,5.22-.28.66,0,1.7,2.68,1.8,9" transform="translate(0)"/><path class="cls-1" d="M92.67,264.91c.6.15,1.26.29,2,.42" transform="translate(0)"/><path class="cls-1" d="M88.47,263a4.73,4.73,0,0,0,1.8,1.19l.07,0" transform="translate(0)"/><path class="cls-1" d="M97.59,265.67a32.36,32.36,0,0,0,3.42,0c5-.67,9.86-.08,9.55,9.26a2.7,2.7,0,0,1-1.82,2.46A72.12,72.12,0,0,1,89,281.79c-2.4.16-4.8.47-7.19.8-15.65,2.17-16.74-3.46-16.74-3.46-2.18-5.93,1.72-14.77,2.44-18.2s0-11,0-11c.21.45.49,1.48,4.3,1.79a22,22,0,0,0,8.1-.9c1.53-.46,3.23-1,4.38-1.43,0,0,1.88-1.13,2.09,1.83a90,90,0,0,0,.82,9.21,4.54,4.54,0,0,0,.12.53" transform="translate(0)"/><path class="cls-1" d="M110.7,273.92l.62.15a1.44,1.44,0,0,1,1.11,1.48l-.21,3.7a2.91,2.91,0,0,1-1.64,2.28c-1.81,1.23-9.7,3.32-17.6,4.25-22.9,2.44-25.55,1.47-28.32.12a2.67,2.67,0,0,1-1.5-2.42l-.28-3.73a2,2,0,0,1,1-1.71l.76-.42" transform="translate(0)"/><path class="cls-1" d="M81.79,250.27V247.1A2.09,2.09,0,0,1,83.67,245c1.08-.09,2.11-1.66,2.19-3.31-.19-.84,4.69-3.21.44,8.86" transform="translate(0)"/><path class="cls-1" d="M99.87,265.68s4.89,1.53,5.31,12.18" transform="translate(0)"/><path class="cls-1" d="M72.2,251.61s-.5-3.34-.72-4.44c-.56-2.8-.28-4.43.24-4.44" transform="translate(0)"/><path class="cls-1" d="M68.81,251.25c-2.49-2.62-3.26-7.45-2.31-8.23,1.4-1.17,5.22-.29,5.22-.29.66,0,1.7,2.68,1.8,9" transform="translate(0)"/><path class="cls-2" d="M73.34,220.69c.72-.13,1.49-.32,2.22-.52s1.49-.46,2.21-.73A21.1,21.1,0,0,0,82,217.33a21.84,21.84,0,0,1-3.87,2.78q-1,.6-2.13,1.11a22.71,22.71,0,0,1-2.26.92.75.75,0,0,1-.5-1.42l.12,0Z" transform="translate(0)"/><path class="cls-1" d="M40.85,350.16l.66,0c1.45.17,3,3.23,3,3.23a.65.65,0,0,1-.45,1l-.55.07a1.38,1.38,0,0,1-1.37-.71,5.53,5.53,0,0,0-1.84-2.66A.65.65,0,0,1,40.85,350.16Z" transform="translate(0)"/><path class="cls-1" d="M36.84,349.46l.61.24c1.33.63,1.79,4,1.79,4a.66.66,0,0,1-.76.84l-.54-.11a1.35,1.35,0,0,1-1.07-1.1,5.51,5.51,0,0,0-.91-3.11A.65.65,0,0,1,36.84,349.46Z" transform="translate(0)"/><path class="cls-1" d="M95.32,264.5l.65,0c1.46.17,3,3.23,3,3.23a.66.66,0,0,1-.45,1l-.55.07a1.38,1.38,0,0,1-1.37-.71,5.53,5.53,0,0,0-1.84-2.66A.65.65,0,0,1,95.32,264.5Z" transform="translate(0)"/><path class="cls-1" d="M91.12,263.86l.63.2c1.37.53,2.08,3.86,2.08,3.86a.66.66,0,0,1-.7.9l-.55-.07a1.38,1.38,0,0,1-1.15-1,5.52,5.52,0,0,0-1.13-3A.65.65,0,0,1,91.12,263.86Z" transform="translate(0)"/><path class="cls-1" d="M30.43,350.17l.24.74a1,1,0,0,0,1.32.55A6,6,0,0,0,34.67,349a1.78,1.78,0,0,0,.08-1.34,3.34,3.34,0,0,0-.15-.38.64.64,0,0,0-1-.31c-.22.78-2.12,2.1-2.76,2.34A.71.71,0,0,0,30.43,350.17Z" transform="translate(0)"/><path class="cls-1" d="M83.81,264.3l.25.75a1.08,1.08,0,0,0,1.43.54,6.37,6.37,0,0,0,2.9-2.46,1.65,1.65,0,0,0,.1-1.34c0-.13-.11-.26-.17-.38a.7.7,0,0,0-1-.42c-.24.78-2.35,2.21-3,2.45A.69.69,0,0,0,83.81,264.3Z" transform="translate(0)"/><circle class="cls-1" cx="29.76" cy="342.5" r="1.07"/><circle class="cls-1" cx="83.15" cy="258.98" r="1.07"/></g></g></svg>