<svg xmlns="http://www.w3.org/2000/svg" viewBox="0 0 162.95 221.31"><defs><style>.cls-1,.cls-2{fill:none;stroke:#fff;stroke-linecap:round;stroke-width:1.5px;}.cls-1{stroke-linejoin:round;}.cls-2{stroke-miterlimit:10;}</style></defs><g id="Layer_2" data-name="Layer 2"><g id="solutions"><line class="cls-1" x1="73.92" y1="100.41" x2="11.96" y2="100.41"/><path class="cls-1" d="M74,100.48c-6,10.61-18.34,14.61-31,14.61s-25.64-4-31-14.61l0-22.81a8,8,0,0,1,8-8H66a8,8,0,0,1,8,8Z"/><path class="cls-1" d="M73.8,100.43a38.13,38.13,0,0,1,.84,8c0,19.16-14.19,34.7-31.7,34.7s-31.7-15.54-31.7-34.7a37.88,37.88,0,0,1,.87-8.11"/><path class="cls-1" d="M62.43,135.59c10.81,2.21,17.18,11.9,18.93,23.22,2.17,14.07,3.46,58.25,3.46,58.25a3.47,3.47,0,0,1-3.47,3.47H4.22a3.47,3.47,0,0,1-3.47-3.47S2.1,173.67,5,158.81c2.16-11.05,7.85-20.68,18.37-23.1"/><path class="cls-1" d="M10.45,104.52S6.24,103.4,4.22,107a6.86,6.86,0,0,0,1.92,9,6.69,6.69,0,0,0,5.37.92"/><path class="cls-1" d="M75,104.52s4.21-1.12,6.23,2.44a6.86,6.86,0,0,1-1.92,9,6.69,6.69,0,0,1-5.37.92"/><line class="cls-1" x1="12.3" y1="143.09" x2="12.3" y2="220.31"/><circle class="cls-1" cx="18.63" cy="165.68" r="2.67"/><line class="cls-1" x1="73" y1="141.75" x2="73" y2="220.56"/><path class="cls-1" d="M65.1,136.87l-1.34,20.66A5.72,5.72,0,0,1,58,163.25H27.27a5.73,5.73,0,0,1-5.73-5.72l-1.33-20.66"/><circle class="cls-1" cx="66.68" cy="165.68" r="2.67"/><path class="cls-2" d="M136,27a10.75,10.75,0,1,0-18.7,7.23,9.13,9.13,0,0,1,2.48,6.13v2.47a1.53,1.53,0,0,0,1.52,1.53h7.9a1.53,1.53,0,0,0,1.53-1.53v-2.2a9.79,9.79,0,0,1,2.55-6.49A10.64,10.64,0,0,0,136,27Z"/><path class="cls-2" d="M120.13,44.06a1.31,1.31,0,0,0,.13,1.72,1.91,1.91,0,0,0,1.34.53h7.25a1.87,1.87,0,0,0,1.56-.8,1.27,1.27,0,0,0,0-1.39"/><path class="cls-2" d="M120.37,45.88l-.16.22a1.41,1.41,0,0,0,.39,2.07,2,2,0,0,0,1,.27h7.25a2,2,0,0,0,1-.27,1.41,1.41,0,0,0,.39-2.07l-.17-.22"/><path class="cls-2" d="M129,48.44a3.79,3.79,0,0,1-7.56,0"/><path class="cls-2" d="M126.45,44.06l1.32-12.64a1.07,1.07,0,0,1,1.63-.81h0a1.08,1.08,0,0,1,0,1.83L127,33.9a2.32,2.32,0,0,1-1.2.34h-1.15a2.35,2.35,0,0,1-1.21-.34l-2.39-1.46a1.08,1.08,0,0,1,0-1.83h0a1.08,1.08,0,0,1,1.64.81L124,44.06"/><path class="cls-2" d="M102,62.55l-16,4.3a.35.35,0,0,1-.41-.46l6-16.51-1-18.23c0-17,13-30.9,28.94-30.9h13.72c15.92,0,28.95,13.9,28.95,30.9h0c0,17-13,30.9-28.95,30.9Z"/></g></g></svg>