<svg xmlns="http://www.w3.org/2000/svg" viewBox="0 0 264.66 125.17"><defs><style>.cls-1{fill:none;stroke:#fff;stroke-linecap:round;stroke-miterlimit:10;stroke-width:1.5px;}</style></defs><g id="Layer_2" data-name="Layer 2"><g id="repairs"><path class="cls-1" d="M223.28,81.72h25.23a15.39,15.39,0,0,0,15.4-15.4V16.15A15.4,15.4,0,0,0,248.51.75H16.15A15.41,15.41,0,0,0,.75,16.15V66.32a15.4,15.4,0,0,0,15.4,15.4H182.5"/><path class="cls-1" d="M212,61.44h25a13.65,13.65,0,0,1,13.64,13.65h0"/><path class="cls-1" d="M12.58,75.09h0A13.65,13.65,0,0,1,26.23,61.44H193.82"/><line class="cls-1" x1="111.39" y1="53.78" x2="148.14" y2="53.78"/><path class="cls-1" d="M225.3,85.35,207.25,53a5,5,0,0,0-8.73,0L180.47,85.35a5,5,0,0,0,4.37,7.44h36.1A5,5,0,0,0,225.3,85.35Z"/><path class="cls-1" d="M203.37,80.88h-1a1.13,1.13,0,0,1-1.21-.95l-.59-16.36a1.1,1.1,0,0,1,1.2-1H204a1.11,1.11,0,0,1,1.21,1l-.6,16.36A1.12,1.12,0,0,1,203.37,80.88Z"/><circle class="cls-1" cx="202.89" cy="86.13" r="2.27"/><path class="cls-1" d="M67.29,81.73l1.46,1.09c3,2.24,4.28,8.26,3.23,11.85l-.61,2.1a4.13,4.13,0,0,0,4,5.29h0a4.13,4.13,0,0,0,3.94-5.37L78.44,94c-1-3.24-.11-8.93,2.34-11.28l1-1"/><path class="cls-1" d="M75.23,110.08a.72.72,0,0,0-1.38,0s.33,2.92-2.67,9.5a3.63,3.63,0,0,0,3.37,4.84h0a3.62,3.62,0,0,0,3.37-4.85C75.12,113.79,75.23,110.08,75.23,110.08Z"/><path class="cls-1" d="M89.94,81.73s3.83,3.17,1.19,10.16a6.68,6.68,0,0,0,1.36,6.53c3.09,2.43,7.34-.13,5.69-8.21a3.52,3.52,0,0,1,3.88-4.13,3.75,3.75,0,0,1,.47,0c2,.38,4.42,2.81,3.31,8.34-2.24,10.69-1,13.64.91,14.65a4.56,4.56,0,0,0,6.48-3.09c.41-1.89.25-4.68-1.11-8.76-.32-1-2.61-7.32-.82-10.13a1.85,1.85,0,0,1,2.71,0c.53.54.48,2.36.48,2.36,0,3.91,3,3.75,3,3.75,2.61,0,4.48-2,3.49-4.44-2-3.06.57-7.09.57-7.09"/></g></g></svg>