<svg xmlns="http://www.w3.org/2000/svg" viewBox="0 0 327.77 170.44"><defs><style>.cls-1,.cls-3,.cls-4{fill:none;stroke-linecap:round;}.cls-1,.cls-3,.cls-4,.cls-5{stroke:#fff;}.cls-1,.cls-3{stroke-linejoin:round;}.cls-1,.cls-4{stroke-width:1.5px;}.cls-2,.cls-5{fill:#fff;}.cls-4,.cls-5{stroke-miterlimit:10;}.cls-5{stroke-width:0.25px;}</style></defs><g id="Layer_2" data-name="Layer 2"><g id="breakdowns"><path class="cls-1" d="M182.19,115.4,171.93,118a3.09,3.09,0,0,1-1.45,0l-54.13-13.09"/><line class="cls-1" x1="171.93" y1="118.02" x2="173.04" y2="124.68"/><path class="cls-1" d="M160.79,91.82l19-4.64a10,10,0,0,1,4.8,0l11.86,3"/><path class="cls-1" d="M186.91,121.27l-11.93,3a5.93,5.93,0,0,1-2.9,0L115.7,110.7a3,3,0,0,1-2.12-1.9l-1.11-3.1a1.8,1.8,0,0,1,1.25-2.35l2.63-.67"/><path class="cls-2" d="M243.29,77c-.37-1.48-.72-3-1-4.46l-1-4.46c-.66-3-1.28-6-1.9-8.94V59a4.81,4.81,0,0,0-2.77-3.86,5.44,5.44,0,0,0-1.2-.38L234,54.48l-2.77-.64c-3.67-.85-7.35-1.73-11-2.63s-7.33-1.84-11-2.81-7.29-2-10.92-3q5.58,1,11.14,2.13t11.07,2.37c3.69.83,7.37,1.67,11,2.55l2.76.66,1.38.33a7,7,0,0,1,1.48.51,6.18,6.18,0,0,1,3.42,5v-.06c.5,3,1,6,1.45,9l.66,4.52C242.89,73.93,243.11,75.44,243.29,77Z"/><path class="cls-2" d="M246.25,107.11a10.79,10.79,0,0,0,.81-3.3c.17-1.13.26-2.27.36-3.4.16-2.27.26-4.54.24-6.81a49.27,49.27,0,0,0-.4-6.76L247,85.19c-.14-.54-.23-1.11-.41-1.63A11.2,11.2,0,0,0,246,82a5.5,5.5,0,0,0-1.06-1.31,4.63,4.63,0,0,1,1.4,1.07,8.91,8.91,0,0,1,.94,1.52c.28.53.45,1.09.68,1.64s.33,1.14.49,1.71a30.94,30.94,0,0,1,.75,7,40.61,40.61,0,0,1-.58,7,28.59,28.59,0,0,1-.8,3.41A8.36,8.36,0,0,1,246.25,107.11Z"/><path class="cls-2" d="M176,97.25l-.75,17.08-.75-17.08a.75.75,0,0,1,1.5-.07Z"/><path class="cls-1" d="M182.31,64.72,116.92,80.58a.35.35,0,0,0,0,.67l53.63,12.92a20,20,0,0,0,9.39,0L239.25,79.8a.63.63,0,0,0,0-1.22L184.1,65.16a1.64,1.64,0,0,0-2,1.57h0l-.28,19.87"/><path class="cls-2" d="M306.86,65l6.52-.58a12.18,12.18,0,0,1,3.31.25,18,18,0,0,1,3.1,1.07,18.29,18.29,0,0,0-3.15-.76,11.75,11.75,0,0,0-3.19.06c-1,.2-2.12.48-3.17.71l-3.19.73a.75.75,0,1,1-.33-1.46Z"/><path class="cls-1" d="M182.31,64.72a10.51,10.51,0,0,1,.54-1.73L189,48.37a10,10,0,0,1,6.88-5.85l26.78-6.45a19.94,19.94,0,0,1,9.28,0l38.9,9.18a20,20,0,0,1,8.33,4.21l15.11,12.48a13.35,13.35,0,0,1,1.58,1.55"/><path class="cls-1" d="M281.1,51.08,313,59.45c4.49,1.09,12.23,5,14.07,10.58V86.88a6.15,6.15,0,0,1-2.44,4.9l-.73.55a.5.5,0,0,1-.8-.45h0a4.06,4.06,0,0,0-.52-2.46c-4.17-7.07-11.15-4.61-13.87-2.6-3.19,2.92-3.83,8.64-3.83,8.64-.2,1.19-1.11,1.41-2.29,1.69l-58.46,13.73a3.25,3.25,0,0,0-1.59.9l-1.38,1.43a.49.49,0,0,1-.75-.48s-1.39-3.93-6.61-6.16a14.91,14.91,0,0,0-7.87-1,17,17,0,0,0-10.16,5.25,15.92,15.92,0,0,0-4.22,8.45,1.8,1.8,0,0,1-1.73,1.51l-22.9.49-.1-4.78a1.8,1.8,0,0,0-2.25-1.7L175.73,117l-59.38-14.35V80.92"/><path class="cls-1" d="M235.16,60.77l.92,11a1.8,1.8,0,0,1-2.22,1.9L190.41,63.11a1.8,1.8,0,0,1-1.22-2.47l4.38-10a1.81,1.81,0,0,1,2.09-1l38.15,9.57A1.8,1.8,0,0,1,235.16,60.77Z"/><path class="cls-1" d="M260.81,53.76l6.55,15.34A1.78,1.78,0,0,1,266,71.53l-16.46,4a1.88,1.88,0,0,1-2.32-1.57l-4-16.07a1.81,1.81,0,0,1,1.43-1.92l13.88-3.24A1.9,1.9,0,0,1,260.81,53.76Z"/><path class="cls-1" d="M272.36,69.55l14.95-3.89a1.77,1.77,0,0,0,.77-3.14l-14.2-13.23a1.93,1.93,0,0,0-1.66-.36l-7.63,1.78a1.78,1.78,0,0,0-1.29,2.45l6.88,15.34A1.92,1.92,0,0,0,272.36,69.55Z"/><path class="cls-2" d="M217.48,139.71a15.25,15.25,0,0,1-2.25-3.72,18.38,18.38,0,0,1-1.16-4.24,19.66,19.66,0,0,1,.76-8.75,20.29,20.29,0,0,1,4.36-7.62,19.28,19.28,0,0,1,3.31-2.88,16.17,16.17,0,0,1,3.91-1.93,20.26,20.26,0,0,0-6.64,5.31,22.52,22.52,0,0,0-4,7.42,21.3,21.3,0,0,0-.95,8.36,18,18,0,0,0,.86,4.16A17.33,17.33,0,0,0,217.48,139.71Z"/><path class="cls-1" d="M207.21,133.42a12.32,12.32,0,0,0,5.32,6.67,38.73,38.73,0,0,0,6,3.4,15.64,15.64,0,0,0,7.28,1.28c11.19-.6,19.45-11.58,17.4-23a15.88,15.88,0,0,0-4.88-9.1,19.24,19.24,0,0,0-4.1-2.5c-7.54-2.73-13.66-1.94-17.33-.57"/><path class="cls-2" d="M272.84,74.73a6.89,6.89,0,0,1,1.72,3,22.31,22.31,0,0,1,.82,3.39,40.89,40.89,0,0,1,.54,6.9,42,42,0,0,1-.6,6.89,23.06,23.06,0,0,1-.84,3.37,8.4,8.4,0,0,1-1.64,3.06,10.92,10.92,0,0,0,.93-3.24c.18-1.1.29-2.22.39-3.34q.25-3.37.26-6.75c0-2.25,0-4.51-.19-6.75-.09-1.12-.19-2.24-.38-3.35A8.35,8.35,0,0,0,272.84,74.73Z"/><path class="cls-2" d="M309,116.74a13.15,13.15,0,0,1-1.83-3.2,17.21,17.21,0,0,1-.95-3.6,18.11,18.11,0,0,1,.51-7.43,17.8,17.8,0,0,1,3.42-6.62,13.58,13.58,0,0,1,5.94-4.31,14.72,14.72,0,0,0-2.94,2.11,16.42,16.42,0,0,0-2.4,2.67,20.21,20.21,0,0,0-3.06,6.42,20.56,20.56,0,0,0-.71,7.07,16.89,16.89,0,0,0,.65,3.53A15.51,15.51,0,0,0,309,116.74Z"/><path class="cls-1" d="M297.48,105.39c0,.72.06,1.47.14,2.24a11.12,11.12,0,0,0,4.74,8.2,32,32,0,0,0,4.8,2.93,11.52,11.52,0,0,0,5.78,1.1c8.9-.51,15.46-10,13.83-19.84a14.21,14.21,0,0,0-3.88-7.86A15,15,0,0,0,319.63,90a19,19,0,0,0-12.78-.84"/><path class="cls-3" d="M147.79,121.6a15.23,15.23,0,0,1-1.89-3.49"/><path class="cls-1" d="M140.57,118.19a11.62,11.62,0,0,0,3.5,3.27,38.05,38.05,0,0,0,5.76,3.23,14.72,14.72,0,0,0,6.93,1.22,17.06,17.06,0,0,0,8.94-3.12"/><path class="cls-1" d="M211.89,117.48V134a.5.5,0,0,1-.62.48l-8.89-2.21a.51.51,0,0,1-.38-.49V120.94"/><path class="cls-1" d="M305,101.9v4.71a.5.5,0,0,1-.62.48L295.88,105a.5.5,0,0,1-.38-.49v-.27"/><path class="cls-1" d="M295.8,68.08a6,6,0,0,1-1.44,0,1.39,1.39,0,0,1-1-.62l-1-1.52a.34.34,0,0,1,.39-.52,4.7,4.7,0,0,0,3,.08"/><path class="cls-1" d="M295.8,68.08V63.83a1.33,1.33,0,0,1,1.69-1.19c3.46,0,8.2,2.17,7,4.76s-5,2.45-7.16,2.22A1.62,1.62,0,0,1,295.8,68.08Z"/><ellipse class="cls-1" cx="228.4" cy="126.85" rx="7.2" ry="5.83" transform="translate(56.89 323.93) rotate(-78.02)"/><ellipse class="cls-1" cx="316.27" cy="104.52" rx="5.19" ry="4.2" transform="translate(148.36 392.19) rotate(-78.02)"/><line class="cls-1" x1="306.12" y1="98.25" x2="302.54" y2="97.15"/><path class="cls-1" d="M243.36,111.14l6,1.19a4.94,4.94,0,0,0,2.13,0l54.62-12.94"/><path class="cls-1" d="M306.09,98.25v3.39l-55,13.5a3.1,3.1,0,0,1-1.42,0l-8.59-1.94"/><line class="cls-1" x1="98.79" y1="120.86" x2="43.65" y2="134.34"/><line class="cls-1" x1="103.22" y1="129.93" x2="48.07" y2="143.42"/><line class="cls-1" x1="108.13" y1="123.64" x2="58.76" y2="135.72"/><path class="cls-1" d="M45.37,154.07A14.49,14.49,0,0,1,25.69,167.6a5.46,5.46,0,0,1-9.44-1.55,12.39,12.39,0,0,1-2.94.35,12.55,12.55,0,0,1-9-21.27A10.56,10.56,0,0,1,4,142.6,10.67,10.67,0,0,1,13.28,132a13.66,13.66,0,0,1,26.2,5.4,13.47,13.47,0,0,1-.75,4.46A14.46,14.46,0,0,1,45.37,154.07Z"/><path class="cls-2" d="M14.51,155.22a5.17,5.17,0,0,0,1.79,2.72,6.65,6.65,0,0,0,2.8,1.33,6.78,6.78,0,0,0,3.1-.08,14.07,14.07,0,0,0,3.12-1.37,6.43,6.43,0,0,1-2.71,2.47,5.93,5.93,0,0,1-3.83.44,5.82,5.82,0,0,1-3.31-2A4,4,0,0,1,14.51,155.22Z"/><path class="cls-2" d="M24.63,133.88a5.18,5.18,0,0,0-3,1.17,6.53,6.53,0,0,0-1.89,2.45,6.82,6.82,0,0,0-.59,3.05,14.58,14.58,0,0,0,.68,3.34A6.45,6.45,0,0,1,18,140.71a6,6,0,0,1,.38-3.83A5.89,5.89,0,0,1,21,134.07,4,4,0,0,1,24.63,133.88Z"/><ellipse class="cls-1" cx="123.73" cy="118.84" rx="2.06" ry="3.3" transform="translate(-7.34 8.15) rotate(-3.66)"/><line class="cls-1" x1="123" y1="115.69" x2="129.78" y2="114.1"/><line class="cls-1" x1="123.73" y1="122.16" x2="143.62" y2="117.45"/><path class="cls-4" d="M178.79,32.58,187,34.8a.19.19,0,0,0,.21-.24l-3.09-8.51.52-9.38C184.68,7.91,178,.75,169.77.75H162.7c-8.2,0-14.91,7.16-14.91,15.92h0c0,8.75,6.71,15.91,14.91,15.91Z"/><path id="phone_icon" data-name="phone icon" class="cls-5" d="M174.26,22.06,172,19.82a1.58,1.58,0,0,0-2.24,0l-1,1a1.2,1.2,0,0,1-1.7,0l-4.42-4.43a1.19,1.19,0,0,1,0-1.69h0l1-1a1.58,1.58,0,0,0,0-2.24h0l-2.24-2.23a1.58,1.58,0,0,0-2.24,0l-.82.81a5.73,5.73,0,0,0,0,8.09l7,7a5.72,5.72,0,0,0,8.08,0h0l.81-.82A1.58,1.58,0,0,0,174.26,22.06ZM159.92,10a.53.53,0,0,1,.75,0h0l2.24,2.23a.53.53,0,0,1,0,.75h0l-.37.38-3-3Zm6.19,14.4-7-7a4.65,4.65,0,0,1-.29-6.27l3,3a2.26,2.26,0,0,0,.09,3.09l4.42,4.42h0a2.26,2.26,0,0,0,3.09.1l3,3a4.65,4.65,0,0,1-6.27-.3Zm7.4-.81-.37.37-3-3,.38-.37a.53.53,0,0,1,.75,0h0l2.23,2.24a.53.53,0,0,1,0,.75Z"/><path class="cls-1" d="M167.61,12.34A3.91,3.91,0,0,1,171.25,16"/><path class="cls-1" d="M167.61,8.76a7.71,7.71,0,0,1,7.17,7.17"/></g></g></svg>