<?xml version="1.0" encoding="utf-8"?>
<!-- Generator: Adobe Illustrator 25.3.1, SVG Export Plug-In . SVG Version: 6.00 Build 0)  -->
<svg version="1.1" id="Layer_1" xmlns="http://www.w3.org/2000/svg" xmlns:xlink="http://www.w3.org/1999/xlink" x="0px" y="0px"
	 viewBox="0 0 258.9 173.5" style="enable-background:new 0 0 258.9 173.5;" xml:space="preserve">
<style type="text/css">
	.st0{fill:none;stroke:#FFFFFF;stroke-width:1.5;stroke-linecap:round;stroke-linejoin:round;}
	.st1{fill:none;stroke:#FFFFFF;stroke-width:1.5;stroke-linecap:round;stroke-linejoin:round;stroke-miterlimit:10;}
	.st2{fill:none;stroke:#FFFFFF;stroke-width:1.5;stroke-linecap:round;stroke-miterlimit:10;}
</style>
<g id="Layer_2_1_">
	<g id="deep_cleans">
		<g id="ac">
			<path id="Path_124" class="st0" d="M87.3,24.2l22.8-3.8c4.9-0.8,10-0.3,14.7,1.3l117.8,41.5c9.4,3.4,15.7,12.4,15.7,22.4v43
				c0,7.3-4.4,14-11.2,16.8l-22.5,6.7c-3.9,1.3-8.2,0.9-11.8-1.1L84.9,84.2c-4.4-2.4-7.1-7-7.1-12V34.3C77.9,29,82,24.7,87.3,24.2z"
				/>
			<g id="air_stream">
				<path id="stream_1" class="st1" d="M104.7,110.5c0,0-3.5,17.4-16.5,20.1c-10.5,2.2-31.2-1.1-32.7,20.1"/>
				<path id="stream_2" class="st1" d="M121.7,124.7c0,0-3.5,17.4-16.5,20.1c-10.5,2.2-31.2-1.1-32.7,20.1"/>
				<path id="stream_3" class="st1" d="M150.1,133.2c0,0-3.5,17.4-16.4,20.1c-10.5,2.2-31.2-1.1-32.7,20.1"/>
			</g>
			<line id="Line_8" class="st0" x1="123.3" y1="86" x2="147.4" y2="97.4"/>
			<path id="Path_128" class="st0" d="M90.6,27.8l117.6,46.7c6.2,2.6,10.3,8.8,10.3,15.5l-0.1,49.3"/>
			<path id="Path_129" class="st0" d="M82.7,74l118.5,60.5c3.3,1.7,6.3,4.2,8.5,7.1l0.9,1.1"/>
		</g>
		<path class="st2" d="M22.2,4.3l2,10.8l5.7,1.7l-5.7,1.7l-2,10.8l-2-10.8l-5.7-1.7l5.7-1.7L22.2,4.3z"/>
		<path class="st2" d="M43.8,79.2l-2-10.8l-5.7-1.7l5.7-1.7l2-10.8l2,10.8l5.7,1.7l-5.7,1.7L43.8,79.2z"/>
		<circle class="st2" cx="4.8" cy="50.8" r="4.1"/>
		<circle class="st2" cx="38.1" cy="40" r="2"/>
	</g>
</g>
</svg>
