<?xml version="1.0" encoding="utf-8"?>
<!-- Generator: Adobe Illustrator 25.3.1, SVG Export Plug-In . SVG Version: 6.00 Build 0)  -->
<svg version="1.1" id="Layer_1" xmlns="http://www.w3.org/2000/svg" xmlns:xlink="http://www.w3.org/1999/xlink" x="0px" y="0px"
	 viewBox="0 0 264.7 142.9" style="enable-background:new 0 0 264.7 142.9;" xml:space="preserve">
<style type="text/css">
	.st0{fill:none;stroke:#FFFFFF;stroke-width:1.5;stroke-linecap:round;stroke-miterlimit:10;}
</style>
<g id="Layer_2_1_">
	<g id="deep_cleans">
		<path class="st0" d="M75.9,81.5l-2.1-11.3l-6-1.8l6-1.8l2.1-11.4L78,66.6l6,1.8l-6,1.8L75.9,81.5z"/>
		<path class="st0" d="M98.7,134.1l-2.1-11.3l-6-1.8l6-1.8l2.1-11.4l2.1,11.4l6,1.8l-6,1.8L98.7,134.1z"/>
		<circle class="st0" cx="57.6" cy="104.2" r="4.3"/>
		<circle class="st0" cx="92.7" cy="92.8" r="2.2"/>
		<path class="st0" d="M185.6,32.3v5.8c0,0.1-0.1,0.3-0.3,0.3l0,0h-0.6c-0.1,0-0.3-0.1-0.3-0.3v0v-0.5h-1.9c-0.6,0-1-0.4-1-1V34
			c0-0.6,0.4-1,1-1h1.7c0.1,0,0.3-0.1,0.3-0.3v0v-0.4c0-0.1,0.1-0.3,0.3-0.3l0,0h0.6C185.5,32,185.6,32.2,185.6,32.3z"/>
		<path class="st0" d="M185.4,38.4l4.5,1c1,0.2,1.9,0.7,2.6,1.4l5.1,5c0.2,0.2,0.3,0.4,0.3,0.7v1"/>
		<path class="st0" d="M196.7,47.5h8.8c0.6,0,1,0.4,1,1v4.2c0,0.4,0.3,0.8,0.6,0.9l1.1,0.4c0.2,0.1,0.3,0.3,0.4,0.5V55
			c0,0.1-0.1,0.3-0.3,0.3l0,0h-11.6c-0.6,0-1-0.4-1-1v-5.8C195.7,48,196.2,47.5,196.7,47.5z"/>
		<path class="st0" d="M208.4,54.1h0.5c0.1,0,0.3-0.1,0.3-0.3v-4c0-0.8,0.4-1.6,1-2.1l0.9-0.7c0.3-0.2,0.6-0.4,1-0.3h6.8
			c0.3,0,0.5-0.2,0.5-0.5c0-0.1-0.1-0.3-0.2-0.4l-11.4-12.1c-1-1.1-2.4-1.7-3.9-1.7h-18.7"/>
		<path class="st0" d="M189.5,39.3v0.5c0,0.6,0.4,1,1,1h2.1"/>
		<path class="st0" d="M194.3,42.5h-4c-0.4,0-0.8,0.3-0.9,0.8l-0.6,2.6c-0.1,0.3-0.2,0.6-0.4,0.9l-3.6,5.2c-0.1,0.1-0.3,0.1-0.4,0
			c-0.1-0.1-0.1-0.2-0.1-0.3l1.5-3.5c0.3-0.7,0.5-1.4,0.4-2.1v-7.5"/>
		<path class="st0" d="M207.6,55.2v1c0,0.5-0.3,0.9-0.8,1c-1.5,0.3-3.1,0.4-4.6,0.5c-1.5,0-3.1-0.2-4.6-0.5c-0.5-0.1-0.8-0.5-0.8-1
			v-1"/>
		<path class="st0" d="M207.3,56.8c0.8,0.5,1.5,1.1,2.2,1.8c9.9,14.3,18.9,48.9,14.2,68c-3.2,11.9-3.6,13-7.2,14.2
			s-14.7,1.4-14.7,1.4s-9.9,0-13-1.5s-4.2-5.7-5.8-11.2s-1.9-17.3-1.9-17.3s-1.3-11.9,3.4-18.9c3.6-4.1,7-8.5,10.1-13
			c1.3-1.7,1.2-4-0.2-5.6c-0.3-0.4-0.3-0.9,0-1.3c1.7-1.9,0.9-4.7-0.4-6c-0.3-0.3-0.4-0.7-0.2-1.1c1-2.1-0.1-3.1-0.4-3.4
			c0,0-0.1-0.1-0.1-0.1l-0.7-2.9c-0.1-0.4,0.1-0.9,0.5-1.1l3.8-1.8"/>
		<path class="st0" d="M214.1,108.2v3.6c0,0.7-0.6,1.3-1.3,1.3h-5.7c-0.2,0-0.4,0.2-0.4,0.4v5.7c0,0.7-0.6,1.3-1.3,1.3h-3.6
			c-0.7,0-1.3-0.6-1.3-1.3v-5.7c0-0.2-0.2-0.4-0.4-0.4h-5.7c-0.7,0-1.3-0.6-1.3-1.3v-3.6c0-0.7,0.6-1.3,1.3-1.3h5.7
			c0.2,0,0.4-0.2,0.4-0.4l0,0v-5.7c0-0.7,0.6-1.3,1.3-1.3h3.6c0.7,0,1.3,0.6,1.3,1.3v5.7c0,0.2,0.2,0.4,0.4,0.4l0,0h5.7
			C213.5,106.9,214.1,107.4,214.1,108.2z"/>
		<path class="st0" d="M219.7,81.7h28.8c8.5,0,15.4-6.9,15.4-15.4c0,0,0,0,0,0V16.1c0-8.5-6.9-15.4-15.4-15.4c0,0,0,0,0,0H16.1
			C7.6,0.8,0.8,7.6,0.8,16.1v50.2c0,8.5,6.9,15.4,15.4,15.4l0,0h177.4"/>
		<path class="st0" d="M211.4,61.4h25.6c7.5,0,13.6,6.1,13.6,13.6l0,0"/>
		<line class="st0" x1="77.1" y1="61.4" x2="193.1" y2="61.4"/>
		<path class="st0" d="M12.6,75.1L12.6,75.1c0-7.5,6.1-13.6,13.6-13.6h48.4"/>
		<line class="st0" x1="111.4" y1="53.8" x2="148.1" y2="53.8"/>
	</g>
</g>
</svg>
