<svg xmlns="http://www.w3.org/2000/svg" width="19.396" height="13.638" viewBox="0 0 19.396 13.638">
  <path id="email_icon" data-name="email icon" d="M17.691,76H1.7A1.707,1.707,0,0,0,0,77.7V87.933a1.707,1.707,0,0,0,1.7,1.7H17.691a1.707,1.707,0,0,0,1.7-1.7V77.7A1.706,1.706,0,0,0,17.691,76Zm-.239,1.136L10.9,83.651a1.7,1.7,0,0,1-2.412,0L1.943,77.136ZM1.136,87.7V77.937l4.911,4.885Zm.808.8,4.909-4.878.836.831a2.841,2.841,0,0,0,4.017,0l.837-.832L17.451,88.5Zm16.315-.8-4.911-4.88,4.911-4.885Z" transform="translate(0 -76)" fill="#fff"/>
</svg>
