<svg xmlns="http://www.w3.org/2000/svg" width="12.118" height="21.564" viewBox="0 0 12.118 21.564">
  <path id="Path_164" data-name="Path 164" d="M32.776,0,30.109,0a4.683,4.683,0,0,0-4.932,5.061V7.394H22.5a.419.419,0,0,0-.419.42v3.381a.419.419,0,0,0,.419.419h2.681v8.531a.419.419,0,0,0,.419.419h3.5a.419.419,0,0,0,.419-.419V11.614h3.135a.419.419,0,0,0,.419-.419V7.814a.42.42,0,0,0-.42-.42H29.514V5.416c0-.951.227-1.433,1.465-1.433h1.8a.419.419,0,0,0,.419-.419V.424A.419.419,0,0,0,32.776,0Z" transform="translate(-21.577 0.5)" fill="none" stroke="#fff" stroke-width="1"/>
</svg>
