<svg id="location_pointer" data-name="location pointer" xmlns="http://www.w3.org/2000/svg" width="16.966" height="24.129" viewBox="0 0 16.966 24.129">
  <path id="inside_circle" data-name="inside circle" d="M170.241,90a4.241,4.241,0,1,0,4.241,4.241A4.246,4.246,0,0,0,170.241,90Zm0,7.078a2.837,2.837,0,1,1,2.832-2.837A2.839,2.839,0,0,1,170.241,97.078Z" transform="translate(-161.759 -85.759)" fill="#fff"/>
  <path id="pointer" d="M84.483,0a8.484,8.484,0,0,0-7.217,12.944L84,23.795a.707.707,0,0,0,.6.334h.006a.707.707,0,0,0,.6-.344l6.562-10.956A8.485,8.485,0,0,0,84.483,0Zm6.073,12.1L84.59,22.064,78.468,12.2a7.074,7.074,0,1,1,12.088-.1Z" transform="translate(-76)" fill="#fff"/>
</svg>
