<svg xmlns="http://www.w3.org/2000/svg" width="16.303" height="16.304" viewBox="0 0 16.303 16.304">
  <path id="phone_icon" data-name="phone icon" d="M15.894,12.025,13.868,10a1.435,1.435,0,0,0-2.027,0l-.921.921a1.087,1.087,0,0,1-1.535,0l-3.993-4a1.085,1.085,0,0,1,0-1.535l.921-.921a1.432,1.432,0,0,0,0-2.027L4.286.419a1.434,1.434,0,0,0-2.025,0l-.739.732a5.174,5.174,0,0,0,0,7.309l6.327,6.33a5.165,5.165,0,0,0,7.309,0l.737-.737A1.435,1.435,0,0,0,15.894,12.025ZM2.935,1.095a.478.478,0,0,1,.676,0l2.026,2.02a.477.477,0,0,1,0,.676L5.3,4.129l-2.7-2.7Zm5.59,13.018L2.2,7.783a4.2,4.2,0,0,1-.264-5.668L4.627,4.807A2.039,2.039,0,0,0,4.715,7.6l3.993,4h0a2.039,2.039,0,0,0,2.791.089l2.693,2.693A4.192,4.192,0,0,1,8.524,14.113Zm6.694-.737-.338.338-2.7-2.7.338-.338a.478.478,0,0,1,.676,0L15.219,12.7A.478.478,0,0,1,15.219,13.376Z" transform="translate(-0.011)" fill="#fff"/>
</svg>
