<svg xmlns="http://www.w3.org/2000/svg" viewBox="0 0 300.46 209.17"><defs><style>.cls-1{fill:none;stroke:#fff;stroke-miterlimit:10;stroke-width:1.5px;}</style></defs><g id="Layer_2" data-name="Layer 2"><g id="casette"><line class="cls-1" x1="168.85" y1="30.99" x2="168.98" y2="36.3"/><path class="cls-1" d="M1,133,168,36.57a2,2,0,0,1,2,0l129.43,74.8"/><path class="cls-1" d="M.75,132v-2a2,2,0,0,1,1-1.73L167.83,31.26a2,2,0,0,1,2,0l128.87,75.39a2,2,0,0,1,1,1.72v2a2,2,0,0,1-1,1.73l-166.29,96a2,2,0,0,1-2,0L1.75,133.7A2,2,0,0,1,.75,132Z"/><line class="cls-1" x1="127.61" y1="54.68" x2="127.61" y2="9.88"/><path class="cls-1" d="M283.86,98V60.6a2,2,0,0,0-1-1.73L183.23,1a2,2,0,0,0-2,0l-34.1,19.71L128.6,10.15a2,2,0,0,0-2,0L35.08,63a2,2,0,0,0-1,1.73v44.59"/><line class="cls-1" x1="147.12" y1="20.73" x2="147.12" y2="43.28"/><line class="cls-1" x1="182.23" y1="0.75" x2="182.23" y2="38.5"/><path class="cls-1" d="M132.7,184.22l122.49-70.08a1.11,1.11,0,0,0,0-1.92L170,62.45a2,2,0,0,0-2,0L45,132.84a1.12,1.12,0,0,0,0,1.93l85.72,49.44A2,2,0,0,0,132.7,184.22Z"/><path class="cls-1" d="M241.82,111.89,170,70.33a2,2,0,0,0-2,0L60.49,132.16a1.11,1.11,0,0,0,0,1.92L132,175.57a2,2,0,0,0,2,0l107.84-61.76A1.12,1.12,0,0,0,241.82,111.89Z"/><path class="cls-1" d="M57.52,121.87,148.45,70a1.11,1.11,0,0,0,0-1.93l-13-7.54a2,2,0,0,0-2,0L43.45,113a1.11,1.11,0,0,0,0,1.92l12.07,7A2,2,0,0,0,57.52,121.87Z"/><path class="cls-1" d="M164.89,185.35l90.8-51.55a1.11,1.11,0,0,0,0-1.93l-11.63-6.72a2,2,0,0,0-2,0L151.71,177a1.12,1.12,0,0,0,0,1.93l11.19,6.45A2,2,0,0,0,164.89,185.35Z"/><path class="cls-1" d="M187.77,67.26l12.45-7.68a2,2,0,0,1,2.05,0l49.37,28.54a1.12,1.12,0,0,1,0,1.93l-13,7.54a2,2,0,0,1-2,0l-48.8-28.4A1.11,1.11,0,0,1,187.77,67.26Z"/><path class="cls-1" d="M59.54,146.76,108.43,175a1.11,1.11,0,0,1,0,1.94l-10.78,5.85a2,2,0,0,1-1.94,0L46.41,154.5a1.11,1.11,0,0,1,0-1.95l11.17-5.83A2,2,0,0,1,59.54,146.76Z"/><path class="cls-1" d="M56,119l87.7-50.15a.56.56,0,0,0,0-1l-2-1.1a.54.54,0,0,0-.55,0L53.75,117a.56.56,0,0,0,0,1l1.68,1A.56.56,0,0,0,56,119Z"/><path class="cls-1" d="M238.54,95.42l2.14-1.24a.27.27,0,0,0,0-.48l-47.44-27a.54.54,0,0,0-.56,0l-1.88,1.12a.28.28,0,0,0,0,.48L238,95.42A.54.54,0,0,0,238.54,95.42Z"/><path class="cls-1" d="M158.38,179.49,246,129.21a.28.28,0,0,0,0-.49l-2-1.12a.57.57,0,0,0-.55,0l-87.15,50.06a.56.56,0,0,0,0,1l1.54.86A.57.57,0,0,0,158.38,179.49Z"/><path class="cls-1" d="M59.79,150.54l42.4,24.53a.55.55,0,0,1,0,1l-1.66.94a.61.61,0,0,1-.56,0L57.81,152.33a.55.55,0,0,1,0-1l1.42-.83A.56.56,0,0,1,59.79,150.54Z"/><line class="cls-1" x1="165.27" y1="72.27" x2="239.78" y2="115.29"/><line class="cls-1" x1="161.31" y1="74.49" x2="235.82" y2="117.51"/><line class="cls-1" x1="157.35" y1="76.71" x2="231.86" y2="119.73"/><line class="cls-1" x1="153.39" y1="78.93" x2="227.9" y2="121.95"/><line class="cls-1" x1="149.43" y1="81.15" x2="223.94" y2="124.17"/><line class="cls-1" x1="145.47" y1="83.37" x2="219.98" y2="126.39"/><line class="cls-1" x1="141.51" y1="85.58" x2="216.02" y2="128.61"/><line class="cls-1" x1="137.55" y1="87.8" x2="212.06" y2="130.83"/><line class="cls-1" x1="133.59" y1="90.02" x2="208.1" y2="133.05"/><line class="cls-1" x1="129.63" y1="92.24" x2="204.14" y2="135.26"/><line class="cls-1" x1="125.67" y1="94.46" x2="200.18" y2="137.48"/><line class="cls-1" x1="121.71" y1="96.68" x2="196.22" y2="139.7"/><line class="cls-1" x1="117.75" y1="98.9" x2="192.26" y2="141.92"/><line class="cls-1" x1="113.79" y1="101.12" x2="188.3" y2="144.14"/><line class="cls-1" x1="109.83" y1="103.34" x2="184.34" y2="146.36"/><line class="cls-1" x1="105.87" y1="105.56" x2="180.38" y2="148.58"/><line class="cls-1" x1="101.91" y1="107.78" x2="176.42" y2="150.8"/><line class="cls-1" x1="97.95" y1="110" x2="172.46" y2="153.02"/><line class="cls-1" x1="93.99" y1="112.22" x2="168.5" y2="155.24"/><line class="cls-1" x1="90.03" y1="114.43" x2="164.54" y2="157.46"/><line class="cls-1" x1="86.07" y1="116.65" x2="160.58" y2="159.68"/><line class="cls-1" x1="82.11" y1="118.87" x2="156.62" y2="161.89"/><line class="cls-1" x1="78.15" y1="121.09" x2="152.66" y2="164.11"/><line class="cls-1" x1="74.19" y1="123.31" x2="148.7" y2="166.33"/><line class="cls-1" x1="70.23" y1="125.53" x2="144.74" y2="168.55"/><line class="cls-1" x1="66.27" y1="127.75" x2="140.78" y2="170.77"/><line class="cls-1" x1="62.31" y1="129.97" x2="136.82" y2="172.99"/></g></g></svg>