<svg xmlns="http://www.w3.org/2000/svg" viewBox="0 0 405.98 282.38"><defs><style>.cls-1{fill:none;stroke:#fff;stroke-miterlimit:10;stroke-width:1.5px;}</style></defs><g id="Layer_2" data-name="Layer 2"><g id="ducted"><polyline class="cls-1" points="288.24 42.3 256.8 30.39 250.2 35.18"/><path class="cls-1" d="M36,109.34,71.34,89.26a1.5,1.5,0,0,1,1.44,0L137,123"/><line class="cls-1" x1="102.67" y1="194.37" x2="102.67" y2="148.08"/><line class="cls-1" x1="158.56" y1="128.94" x2="158.56" y2="174.16"/><line class="cls-1" x1="330.61" y1="38.98" x2="330.72" y2="27.82"/><line class="cls-1" x1="330.43" y1="58.29" x2="330.54" y2="46.82"/><path class="cls-1" d="M321.41,66.49l8.34-7.59a1.5,1.5,0,0,1,1.54-.29l52.62,19.94"/><line class="cls-1" x1="288.91" y1="100.87" x2="342.23" y2="122.53"/><line class="cls-1" x1="259.33" y1="88.85" x2="279.73" y2="97.14"/><line class="cls-1" x1="315.94" y1="40.45" x2="330.72" y2="27.82"/><path class="cls-1" d="M259.33,118V89.54a1.47,1.47,0,0,1,.53-1.13L291,61.78"/><line class="cls-1" x1="316.22" y1="149.31" x2="265.01" y2="125.61"/><line class="cls-1" x1="296.84" y1="88.85" x2="296.84" y2="75.72"/><path class="cls-1" d="M352.48,111.8,297.71,89.22a1.5,1.5,0,0,0-1.58.27l-6,5.45"/><line class="cls-1" x1="72.23" y1="52.19" x2="72.05" y2="88.85"/><path class="cls-1" d="M170,98.84,72.9,52.51a1.48,1.48,0,0,0-1.33,0l-70,35.91a1.48,1.48,0,0,0-.81,1.33v38.77a1.49,1.49,0,0,0,.69,1.26l100.43,64.06a1.32,1.32,0,0,0,1.55-.09l17.35-14"/><polyline class="cls-1" points="180.13 91.56 175.54 89.41 165.52 96.68"/><line class="cls-1" x1="175.55" y1="83.03" x2="175.54" y2="89.41"/><line class="cls-1" x1="175.59" y1="54.95" x2="175.57" y2="68.66"/><path class="cls-1" d="M188.73,85.72,170,98.84l-66.58,48.67a1.49,1.49,0,0,1-1.63.08L.75,88.85"/><line class="cls-1" x1="201.39" y1="114.9" x2="200.49" y2="115.63"/><path class="cls-1" d="M211.84,90.76v14.95a1.48,1.48,0,0,1-.55,1.16L208.62,109"/><line class="cls-1" x1="197.87" y1="63.88" x2="202.01" y2="65.54"/><line class="cls-1" x1="175.59" y1="54.95" x2="190.13" y2="60.78"/><line class="cls-1" x1="240.44" y1="226.63" x2="240.44" y2="281.71"/><line class="cls-1" x1="223.11" y1="144.03" x2="223.11" y2="130.55"/><path class="cls-1" d="M208.44,138.41l-12.06,9.11a1.5,1.5,0,0,1-1.59.13L159.4,129.37a1.5,1.5,0,0,0-1.6.15l-36.44,28a1.49,1.49,0,0,0-.59,1.18V205a1.33,1.33,0,0,0,.62,1.13l118,75.24a1.42,1.42,0,0,0,1.84-.28L404.87,87.05a1.49,1.49,0,0,0,.36-1V56.32a1.52,1.52,0,0,0-1-1.41L257.52.84a1.54,1.54,0,0,0-1.35.16L134.32,81.8"/><line class="cls-1" x1="219.89" y1="129.76" x2="217.32" y2="131.7"/><line class="cls-1" x1="195.63" y1="194.95" x2="195.63" y2="148.08"/><line class="cls-1" x1="194.79" y1="147.73" x2="194.79" y2="113.02"/><path class="cls-1" d="M214.39,177l-18,17.14a1.48,1.48,0,0,1-1.77.22l-35.2-19.73a1.48,1.48,0,0,0-1.69.15l-3.24,2.7"/><line class="cls-1" x1="272.08" y1="194.79" x2="232.81" y2="173.88"/><line class="cls-1" x1="232.1" y1="131.66" x2="301.04" y2="164.92"/><path class="cls-1" d="M168.25,133.94,194,113.29a1.51,1.51,0,0,1,1.63-.16l6.69,3.46"/><path class="cls-1" d="M342.23,122.53l-101,104a1.51,1.51,0,0,1-1.83.25L120.77,157.93"/><polyline class="cls-1" points="342.23 122.53 375.87 87.34 405.23 55.28"/><line class="cls-1" x1="375.87" y1="87.34" x2="303.03" y2="59.45"/><line class="cls-1" x1="256.8" y1="11.64" x2="256.8" y2="0.58"/><line class="cls-1" x1="256.8" y1="30.39" x2="256.8" y2="19.28"/><line class="cls-1" x1="281.54" y1="47.56" x2="281.54" y2="69.86"/><line class="cls-1" x1="221.64" y1="27.95" x2="221.64" y2="23.9"/><line class="cls-1" x1="221.64" y1="55.92" x2="221.64" y2="39.98"/><polyline class="cls-1" points="224.4 57.05 221.64 55.92 207.89 65.91"/><line class="cls-1" x1="273.14" y1="77.05" x2="240.64" y2="63.72"/><line class="cls-1" x1="314.34" y1="21.78" x2="314.34" y2="40.93"/><path class="cls-1" d="M232.46,28.17l48.28,19.07a1.49,1.49,0,0,0,1.48-.21l32.12-25.25"/><line class="cls-1" x1="221.64" y1="23.9" x2="224.66" y2="25.09"/><line class="cls-1" x1="208.98" y1="93.05" x2="208.98" y2="79.41"/><path class="cls-1" d="M191.93,73.68l.5,2.45a1.51,1.51,0,0,0,1.11,1.15l13.07,3.28"/><line class="cls-1" x1="211.84" y1="77.13" x2="217.16" y2="72.89"/><path class="cls-1" d="M190.5,71,208.14,79a1.52,1.52,0,0,0,1.56-.19l2.14-1.71"/><path class="cls-1" d="M206.61,92l1.53.71a1.52,1.52,0,0,0,1.56-.19L216.6,87a1.5,1.5,0,0,0,.56-1.17V73.9a1.48,1.48,0,0,0-.93-1.38L199.3,65.63a1.52,1.52,0,0,0-1.43.16l-6.73,4.71a1.48,1.48,0,0,0-.64,1.23V77"/><path class="cls-1" d="M191.67,85.63v.22a.32.32,0,0,0,0,.14l.54,1.45a1.49,1.49,0,0,0,1,.92l2.57.73"/><path class="cls-1" d="M204.15,91.47l1.93.55a.41.41,0,0,0,.53-.4V80.82a.42.42,0,0,0-.24-.37l-14.1-6.82a.42.42,0,0,0-.6.38v3.55"/><line class="cls-1" x1="192.62" y1="76.6" x2="192.62" y2="88.18"/><line class="cls-1" x1="221.96" y1="71.98" x2="217.16" y2="75.72"/><path class="cls-1" d="M217.16,84.35l4.49-3.55a1.51,1.51,0,0,0,.56-1.17V72.8a1.5,1.5,0,0,0-.94-1.39l-16.72-6.88a1.51,1.51,0,0,0-1.45.19L201,66.31"/><path class="cls-1" d="M247.26,53.53l-6,4.7a1.26,1.26,0,0,1-1.25.18l-15.54-6.24"/><line class="cls-1" x1="228.15" y1="60.72" x2="229.82" y2="61.43"/><path class="cls-1" d="M235.18,63.71l4.77,2a1.24,1.24,0,0,0,1.28-.17L247,61a1.27,1.27,0,0,0,.48-1V54.22a1.26,1.26,0,0,0-.8-1.17l-14.45-5.43a1.27,1.27,0,0,0-1.22.16l-6,4a1.26,1.26,0,0,0-.56,1.05v4.35"/><line class="cls-1" x1="240.64" y1="58.68" x2="240.64" y2="66.04"/><path class="cls-1" d="M216.58,69.48,229.05,60c1.21-1,2-1.68,1.74-3.12a2.35,2.35,0,0,0-3.87-1.59L210.74,67.08"/><path class="cls-1" d="M222.21,74.39l13.94-11.48c1.26-1,2.06-1.67,1.74-3.11A2.53,2.53,0,0,0,235,57.7a2.15,2.15,0,0,0-1,.51L218.22,70.16"/><path class="cls-1" d="M226.94,169.41l6.1,3.35a.5.5,0,0,1,.11.8l-9,8.57a.5.5,0,0,1-.59.07l-12.19-6.84a.51.51,0,0,1-.09-.81l6-5.52"/><path class="cls-1" d="M321.72,85l4.87,2.11a.5.5,0,0,1,.14.82l-7.56,7.16a.51.51,0,0,1-.55.1L308,90.47a.5.5,0,0,1-.13-.83l4.67-4.3"/><path class="cls-1" d="M353.67,51.45l7,2.8a.49.49,0,0,1,.16.82l-6.9,6.55a.49.49,0,0,1-.54.1L343,57.47a.5.5,0,0,1-.15-.83l3-2.75"/><path class="cls-1" d="M269.36,19.28,275,21.52a.5.5,0,0,1,.12.86l-6.87,5.26a.48.48,0,0,1-.49.07l-9.49-3.81a.49.49,0,0,1-.11-.86l2.68-2"/><path class="cls-1" d="M241.52,77.87l7.7,3.48a.5.5,0,0,1,.12.84l-8.45,7a.49.49,0,0,1-.53.06l-8.25-3.81"/><path class="cls-1" d="M182.2,78.11,174,84.17a.51.51,0,0,1-.52,0L163.4,79.3a.5.5,0,0,1-.07-.86L169.46,74"/><path class="cls-1" d="M217.4,128.94h0a14.81,14.81,0,0,0,2.5,10.15c3.87,5.62,7.09,8.11,7.09,35.67a3.12,3.12,0,0,1-.93,1.68c-1.63,1.64-4.82,1.89-7.09.55a5.17,5.17,0,0,1-1.18-1,3.05,3.05,0,0,1-.57-2.95c.45-22.34-2.75-25.49-7.05-31.7a22.45,22.45,0,0,1-3.7-9.18c-.57-3.45-.89-7.76.48-9.68"/><path class="cls-1" d="M192.62,85.29s-6.67,3.27-9.41-5.38a4.74,4.74,0,0,0-.75-1.53c-3.78-4-5,.78-5,.78a2.64,2.64,0,0,1-.84,1,7.21,7.21,0,0,1-6.78.35c-1.38-.67-2-1.68-1.79-2.63,0,0,1.88-9.75,10.53-9.53a12,12,0,0,1,10,6.2c1.18,2.08,2,3.14,3.79,3.14"/><path class="cls-1" d="M209.22,110.37a19,19,0,0,0,11-11.47,13.89,13.89,0,0,0,.59-3.2c1.48-18.25,6.31-19.43,10.72-20.54,2.84-.88,11.84.29,12.17,7.87a2.76,2.76,0,0,1-.94,1.65,6.38,6.38,0,0,1-6.78.66,4.22,4.22,0,0,1-1.2-1s-3.66-1-4.13,5.8c-1.49,15.51-4.64,22.78-16.09,26.44"/><path class="cls-1" d="M301,62.07c7.81-10.73,16.83-18,32.91-14.72,11.13,2.52,13.57,9.26,13.57,9.26a3,3,0,0,0,1.89,1.56c2,.8,4.73.43,6-.83a1.82,1.82,0,0,0,.31-2.56s-6.18-12.48-19.33-14.87C308.56,34.57,291.82,53.37,288.17,70"/><path class="cls-1" d="M219.89,129.76c6.64,1.92,15.17,2.53,26.17,1.36a55.27,55.27,0,0,0,31-13.65c5.35-4.79,10.19-10.52,11.76-16.11.91-3.69,1.59-7.71,2.11-10.55.34-1.8.77-3.84,1.34-5.92,1.46-12.91,20.38-21.55,20.49,4.45h0a3.36,3.36,0,0,0,1.89,2.14,6.2,6.2,0,0,0,6.49-.9,2.46,2.46,0,0,0,.82-1.72,69.69,69.69,0,0,0-1.27-11.61c-1.4-6.8-5-11.19-11.21-14.19-8.21-3.94-25.43,1.11-27.79,25-.07.73-1.05,14.66-10.88,23.09-12.58,10.67-49.19,22.28-62.16-2.1"/><path class="cls-1" d="M208.62,109c-3-5.69-4.76-13.35-4.61-23.44a3,3,0,0,0,0-.6,4.61,4.61,0,0,0-2.48-3.81,4.46,4.46,0,0,0-4.09,0,3.1,3.1,0,0,0-2,2.67c1.21,18.4,2.26,39.48,24.44,45.9"/><path class="cls-1" d="M186.72,72s12.55-5.49,42.16-40.32a39.16,39.16,0,0,1,16.85-11.09c10.29-3.38,16.15-.29,16.76,2.19,0,.66.49,1.31,1.52,1.71a6.18,6.18,0,0,0,5.43-.55,1.73,1.73,0,0,0,.77-1.18S270,9.18,249,12c-27.21,3.21-45.15,44.66-70.4,56.27"/><path class="cls-1" d="M55.8,164V131.79a.5.5,0,0,1,.76-.43l32.61,19.48a1.83,1.83,0,0,1,.88,1.55v33.45"/><path class="cls-1" d="M41.26,155V123.66a1.82,1.82,0,0,0-.87-1.55L11.8,105a.5.5,0,0,0-.75.43v30.22"/><path class="cls-1" d="M191.64,234.76l-15.44-9.61a1.83,1.83,0,0,1-.85-1.53v-13.5a.5.5,0,0,1,.76-.43l15.43,9.37a1.8,1.8,0,0,1,.87,1.54v13.74A.5.5,0,0,1,191.64,234.76Z"/><path class="cls-1" d="M212.64,248l-15.22-9.48a1.77,1.77,0,0,1-.85-1.52V223.12a.5.5,0,0,1,.76-.43l15.21,9.24a1.79,1.79,0,0,1,.86,1.54v14.06A.5.5,0,0,1,212.64,248Z"/></g></g></svg>