<svg xmlns="http://www.w3.org/2000/svg" viewBox="0 0 414.51 203.63"><defs><style>.cls-1{fill:none;stroke:#fff;stroke-linecap:round;stroke-miterlimit:10;stroke-width:1.5px;}</style></defs><g id="Layer_2" data-name="Layer 2"><g id="multihead_lines" data-name="multihead lines"><rect class="cls-1" x="0.75" y="79.37" width="187.14" height="122.64" rx="3.81"/><rect class="cls-1" x="12.66" y="95.82" width="95.88" height="95.88" rx="3.81"/><circle class="cls-1" cx="60.9" cy="143.76" r="42.29"/><path class="cls-1" d="M94.85,136.84a4.12,4.12,0,0,0-4.75.8,24.11,24.11,0,0,1-20.23,6.75,9,9,0,0,0-1.72-4.88c4.92-.91,10.59-5.17,12.94-13.16a11.46,11.46,0,0,0-3.51-11.9,31.86,31.86,0,0,0-19.06-7.27A4.87,4.87,0,0,0,54,109.81a4.14,4.14,0,0,0,.79,4.75,24.14,24.14,0,0,1,6.75,20.31,3.89,3.89,0,0,0,0,.9l-.72,0a9.08,9.08,0,0,0-4.1,1c-.82-5-5.08-10.77-13.19-13.15a11.46,11.46,0,0,0-11.89,3.5,31.73,31.73,0,0,0-7.27,19.06A4.88,4.88,0,0,0,27,150.67a4.12,4.12,0,0,0,4.75-.8,24.09,24.09,0,0,1,20.13-6.76,9.11,9.11,0,0,0-.17,1.75,9.28,9.28,0,0,0,.68,3.46c-4.58,1.36-9.49,5.55-11.63,12.85a11.44,11.44,0,0,0,3.51,11.89,31.79,31.79,0,0,0,19.06,7.27,4.88,4.88,0,0,0,4.53-2.62A4.12,4.12,0,0,0,67,173a24.05,24.05,0,0,1-6.88-19c.22,0,.43,0,.65,0a9.06,9.06,0,0,0,4.78-1.36C67,157.1,71.17,161.85,78.31,164a11.44,11.44,0,0,0,11.89-3.51,31.79,31.79,0,0,0,7.27-19.06A4.9,4.9,0,0,0,94.85,136.84Z"/><circle class="cls-1" cx="60.67" cy="145.01" r="5.31"/><rect class="cls-1" x="224.05" y="0.75" width="189.71" height="58.37" rx="11.1"/><path class="cls-1" d="M232.58,54.34h0a9.84,9.84,0,0,1,9.84-9.84H394.29a9.85,9.85,0,0,1,9.84,9.84h0"/><line class="cls-1" x1="303.81" y1="38.98" x2="330.3" y2="38.98"/><rect class="cls-1" x="224.05" y="72.63" width="189.71" height="58.37" rx="11.1"/><path class="cls-1" d="M232.58,126.22h0a9.84,9.84,0,0,1,9.84-9.84H394.29a9.85,9.85,0,0,1,9.84,9.84h0"/><line class="cls-1" x1="303.81" y1="110.86" x2="330.3" y2="110.86"/><rect class="cls-1" x="224.05" y="144.51" width="189.71" height="58.37" rx="11.1"/><path class="cls-1" d="M232.58,198.1h0a9.83,9.83,0,0,1,9.84-9.84H394.29a9.84,9.84,0,0,1,9.84,9.84h0"/><line class="cls-1" x1="303.81" y1="182.74" x2="330.3" y2="182.74"/><rect class="cls-1" x="9.88" y="18.72" width="20.06" height="49.72" rx="2"/><rect class="cls-1" x="12.49" y="22.69" width="14.83" height="13.05" rx="0.73"/><path class="cls-1" d="M21.24,41.61l2.19-2.5a.41.41,0,0,1,.63,0l2.22,2.46a.51.51,0,0,1-.31.86l-4.41,0A.51.51,0,0,1,21.24,41.61Z"/><path class="cls-1" d="M26.29,45.11l-2.19,2.5a.41.41,0,0,1-.63,0l-2.22-2.46a.51.51,0,0,1,.31-.86l4.41,0A.51.51,0,0,1,26.29,45.11Z"/><rect class="cls-1" x="13.4" y="39.1" width="4.96" height="3.36" rx="0.5"/><rect class="cls-1" x="13.4" y="44.4" width="4.96" height="3.36" rx="0.5"/><rect class="cls-1" x="38.19" y="18.72" width="20.06" height="49.72" rx="2"/><rect class="cls-1" x="40.81" y="22.69" width="14.83" height="13.05" rx="0.73"/><path class="cls-1" d="M49.56,41.61l2.19-2.5a.41.41,0,0,1,.63,0l2.22,2.46a.51.51,0,0,1-.31.86l-4.41,0A.51.51,0,0,1,49.56,41.61Z"/><path class="cls-1" d="M54.6,45.11l-2.19,2.5a.41.41,0,0,1-.63,0l-2.22-2.46a.51.51,0,0,1,.31-.86l4.41,0A.51.51,0,0,1,54.6,45.11Z"/><rect class="cls-1" x="41.71" y="39.1" width="4.96" height="3.36" rx="0.5"/><rect class="cls-1" x="41.71" y="44.4" width="4.96" height="3.36" rx="0.5"/><rect class="cls-1" x="66.51" y="18.72" width="20.06" height="49.72" rx="2"/><rect class="cls-1" x="69.12" y="22.69" width="14.83" height="13.05" rx="0.73"/><path class="cls-1" d="M77.88,41.61l2.19-2.5a.41.41,0,0,1,.63,0l2.21,2.46a.51.51,0,0,1-.31.86l-4.4,0A.51.51,0,0,1,77.88,41.61Z"/><path class="cls-1" d="M82.92,45.11l-2.19,2.5a.41.41,0,0,1-.63,0l-2.22-2.46a.51.51,0,0,1,.31-.86l4.41,0A.51.51,0,0,1,82.92,45.11Z"/><rect class="cls-1" x="70.03" y="39.1" width="4.96" height="3.36" rx="0.5"/><rect class="cls-1" x="70.03" y="44.4" width="4.96" height="3.36" rx="0.5"/><path class="cls-1" d="M224.05,29.93h0a16.8,16.8,0,0,0-16.8,16.8V156.9a16.8,16.8,0,0,0,16.8,16.79h0"/><line class="cls-1" x1="207.25" y1="101.81" x2="224.05" y2="101.81"/><line class="cls-1" x1="187.89" y1="139.7" x2="207.25" y2="139.7"/></g></g></svg>