<svg xmlns="http://www.w3.org/2000/svg" viewBox="0 0 404.36 158.31"><defs><style>.cls-1,.cls-2{fill:none;stroke:#fff;stroke-miterlimit:10;stroke-width:1.5px;}.cls-2{stroke-linecap:round;}</style></defs><g id="Layer_2" data-name="Layer 2"><g id="wall_hang_split" data-name="wall hang split"><path class="cls-1" d="M140.44,142.16V92a15.4,15.4,0,0,1,15.41-15.4h64.42V17.31a3.62,3.62,0,0,0-3.62-3.61H4.37A3.62,3.62,0,0,0,.75,17.31V153.94a3.62,3.62,0,0,0,3.62,3.62H155.85A15.41,15.41,0,0,1,140.44,142.16Z"/><path class="cls-1" d="M388.2,76.59H155.85A15.4,15.4,0,0,0,140.44,92v50.17a15.41,15.41,0,0,0,15.41,15.4H388.2a15.41,15.41,0,0,0,15.41-15.4V92A15.4,15.4,0,0,0,388.2,76.59Z"/><rect class="cls-2" x="240.81" y="0.75" width="23.53" height="58.32" rx="2"/><rect class="cls-2" x="243.87" y="5.41" width="17.4" height="15.31" rx="0.73"/><path class="cls-2" d="M254.14,27.6l2.57-2.93a.48.48,0,0,1,.74,0l2.6,2.89a.6.6,0,0,1-.36,1l-5.17,0A.6.6,0,0,1,254.14,27.6Z"/><path class="cls-2" d="M260.06,31.71l-2.57,2.93a.48.48,0,0,1-.74,0l-2.6-2.9a.6.6,0,0,1,.36-1l5.17,0A.6.6,0,0,1,260.06,31.71Z"/><rect class="cls-2" x="244.94" y="24.66" width="5.81" height="3.94" rx="0.5"/><rect class="cls-2" x="244.94" y="30.88" width="5.81" height="3.94" rx="0.5"/><rect class="cls-2" x="14.38" y="32.99" width="112.47" height="112.47" rx="3.81"/><circle class="cls-2" cx="70.96" cy="89.23" r="49.61"/><path class="cls-2" d="M110.79,81.12a4.84,4.84,0,0,0-5.58.94A28.29,28.29,0,0,1,81.49,90a10.63,10.63,0,0,0-2-5.73c5.77-1.07,12.42-6.06,15.18-15.44a13.42,13.42,0,0,0-4.12-14c-6.18-5.39-14.74-8.22-22.36-8.53a5.73,5.73,0,0,0-5.32,3.07A4.86,4.86,0,0,0,63.79,55,28.27,28.27,0,0,1,71.7,78.81a5.27,5.27,0,0,0,0,1c-.28,0-.56,0-.84,0A10.59,10.59,0,0,0,66,81c-1-5.83-6-12.63-15.48-15.42a13.42,13.42,0,0,0-13.95,4.11C31.2,75.84,28.37,84.4,28.06,92a5.75,5.75,0,0,0,3.08,5.32,4.84,4.84,0,0,0,5.57-.94,28.26,28.26,0,0,1,23.62-7.93,10.42,10.42,0,0,0,.6,6.11c-5.38,1.6-11.14,6.51-13.65,15.07a13.44,13.44,0,0,0,4.11,13.95c6.19,5.39,14.75,8.22,22.36,8.53a5.71,5.71,0,0,0,5.32-3.08,4.84,4.84,0,0,0-.93-5.57,28.2,28.2,0,0,1-8.08-22.3c.25,0,.5,0,.76,0a10.62,10.62,0,0,0,5.61-1.6c1.71,5.28,6.58,10.84,14.95,13.3a13.45,13.45,0,0,0,14-4.11c5.38-6.18,8.22-14.75,8.53-22.36A5.73,5.73,0,0,0,110.79,81.12Z"/><circle class="cls-2" cx="70.7" cy="90.7" r="6.23"/><path class="cls-2" d="M152.28,150.93h0a13.65,13.65,0,0,1,13.64-13.65H376.6a13.65,13.65,0,0,1,13.65,13.65h0"/><line class="cls-2" x1="251.08" y1="129.62" x2="287.83" y2="129.62"/></g></g></svg>