<svg xmlns="http://www.w3.org/2000/svg" viewBox="0 0 77.93 77.93"><defs><style>.cls-1{fill:none;stroke:#fff;stroke-miterlimit:10;stroke-width:1.5px;}</style></defs><g id="Layer_2" data-name="Layer 2"><g id="vent_types" data-name="vent types"><rect class="cls-1" x="8.16" y="8.16" width="61.61" height="61.61" rx="0.48"/><rect class="cls-1" x="0.75" y="0.75" width="76.43" height="76.43" rx="0.48"/><line class="cls-1" x1="38.97" y1="8.16" x2="38.97" y2="69.77"/><line class="cls-1" x1="8.16" y1="38.97" x2="69.77" y2="38.97"/><line class="cls-1" x1="38.69" y1="12.99" x2="69.5" y2="12.99"/><line class="cls-1" x1="38.69" y1="18.38" x2="69.5" y2="18.38"/><line class="cls-1" x1="38.69" y1="23.76" x2="69.5" y2="23.76"/><line class="cls-1" x1="38.69" y1="29.14" x2="69.5" y2="29.14"/><line class="cls-1" x1="38.69" y1="34.53" x2="69.5" y2="34.53"/><line class="cls-1" x1="34.42" y1="8.36" x2="34.42" y2="39.16"/><line class="cls-1" x1="29.03" y1="8.36" x2="29.03" y2="39.16"/><line class="cls-1" x1="23.65" y1="8.36" x2="23.65" y2="39.16"/><line class="cls-1" x1="18.27" y1="8.36" x2="18.27" y2="39.16"/><line class="cls-1" x1="12.88" y1="8.36" x2="12.88" y2="39.16"/><line class="cls-1" x1="64.86" y1="38.77" x2="64.86" y2="69.58"/><line class="cls-1" x1="59.48" y1="38.77" x2="59.48" y2="69.58"/><line class="cls-1" x1="54.1" y1="38.77" x2="54.1" y2="69.58"/><line class="cls-1" x1="48.71" y1="38.77" x2="48.71" y2="69.58"/><line class="cls-1" x1="43.33" y1="38.77" x2="43.33" y2="69.58"/><line class="cls-1" x1="8.25" y1="43.41" x2="39.05" y2="43.41"/><line class="cls-1" x1="8.25" y1="48.79" x2="39.05" y2="48.79"/><line class="cls-1" x1="8.25" y1="54.17" x2="39.05" y2="54.17"/><line class="cls-1" x1="8.25" y1="59.56" x2="39.05" y2="59.56"/><line class="cls-1" x1="8.25" y1="64.94" x2="39.05" y2="64.94"/></g></g></svg>