<svg xmlns="http://www.w3.org/2000/svg" viewBox="0 0 484.5 342.92"><defs><style>.cls-1{fill:none;stroke:#fff;stroke-linecap:round;stroke-linejoin:round;}.cls-2{fill:#fff;}</style></defs><g id="Layer_2" data-name="Layer 2"><g id="Layer_14" data-name="Layer 14"><path class="cls-1" d="M65.71,289.52l0-68.26v-1a25.87,25.87,0,0,0-8.86-19.56L41.18,187.16a11.54,11.54,0,0,0-7.51-2.84l-24.41-.17A8.81,8.81,0,0,0,.5,193.06V304.71a30.63,30.63,0,0,0,4.48,16L14.41,336a13.16,13.16,0,0,0,11.21,6.35H61.38a4.41,4.41,0,0,0,4.35-4.46Zm0,0,0,0,.31.28a7.33,7.33,0,0,0,5,1.94l138.41,0,13.94.3h.12a6.14,6.14,0,0,0,6.08-6.21V266.17a18.37,18.37,0,0,0-2.08-8.52.46.46,0,0,0-.07-.14M65.81,255.66l.44.41a6.45,6.45,0,0,0,4.38,1.73l156.84-.15h.32m-162.32,82,1.08.91a5.81,5.81,0,0,0,3.73,1.36l152.05.55a7.22,7.22,0,0,0,7-5.59,6.87,6.87,0,0,0,.22-1.77V296.34c0-.15,0-.3,0-.44a4.28,4.28,0,0,0-4.21-3.88h-2m4.05-34.51h-.47m142.54,34.22h0l-133.7.41H233a3.55,3.55,0,0,0-3.51,3.58v.17l-.2,40.93V337a4.8,4.8,0,0,0,4.73,4.87l134,.16a3.93,3.93,0,0,0,3.88-3.94l.38-43.37A2.93,2.93,0,0,0,369.47,291.73ZM372,340.28l27.24,0A13.12,13.12,0,0,0,412.16,327l.34-106.33a21,21,0,0,0-10.08-18.06l-35.1-21A35.56,35.56,0,0,0,349,176.53H332.63l-.38,4.4L361,201.05a25.3,25.3,0,0,1,10.71,21.22l.23,35.6,0,31.28a2.55,2.55,0,0,1-2.48,2.58h0m-139.89-5.92v.91a5.3,5.3,0,0,0,4.9,5.34l1.29.08m-55.3-123.3a4,4,0,0,1,3.9-4.17H310.4a13.46,13.46,0,0,1,6.24,1.54l12.93,6.9a7.82,7.82,0,0,1,2.67,6l-.08,42.34m-78.27-.09-35.58-.05m-152.84,0h6.12m-37.1-36.92V173.79a9,9,0,0,1,8.91-9.12h4.54m46.05.15-11.33,0"/><path class="cls-1" d="M370.85,257.83l-143.45-.32a17.81,17.81,0,0,0-3.76-4.89l-1.7-1.57,1.11-.15a47.55,47.55,0,0,1,14,.31,21.33,21.33,0,0,0,5.88.59c3.45-.37,6.78-3.22,6.34-6.92a4.91,4.91,0,0,0-2.81-3.85c-2.3-1.06-4,.24-5.81,1-2.89,1.22-6.16,1.07-9.26.61-5-.73-10.09-2.37-13.57-6a17.83,17.83,0,0,1-1.91-2.42c14.51,4.53,34.1,4.69,48.48-.08-.23.67-.3,1.18.12,1.18.89,0,13-1.27,18.17-.68,3.53.41,7.16,1.94,10.51.76,3.7-1.32,5.57-5.49,6.16-9.38.24-1.53.34-3.08.47-4.62l32.35,0,39.41,34.47A1.11,1.11,0,0,1,370.85,257.83Z"/><path class="cls-1" d="M162.11,214.9q-.54.72-1.11,1.44h0c-1.31,1.67-2.64,3.32-4,4.91-2.57,3-5.21,5.88-7.84,8.5a8.68,8.68,0,0,0-1.5-2.66,70.16,70.16,0,0,0-4.9-5.84,60.7,60.7,0,0,0-19-14,70.35,70.35,0,0,0,16.7-14.35c1.42-1.67,2.75-3.39,4.14-5a19.22,19.22,0,0,1,10.71-6.4,12.77,12.77,0,0,0,3.23-1.12c2.09-1,5.83-5.32,4.59-7.3s-6.57-.48-8.89.11c-6.3,1.61-11.84,5.29-17.24,8.91l-23.4,15.66-.27.19c-4.09-4.5-11.08-7.66-16-11.48,4.7-1.35,9.49-7.33,13.89-10.75.47-.36,1-.83.92-1.42a1.45,1.45,0,0,0-.53-.91c3.23-2.78,6.63-5.61,10.12-8.48l47.29.15a19.25,19.25,0,0,1,10.83,3.37l.58.4,6.15,4.22a7.06,7.06,0,0,1,3,4.61,7.48,7.48,0,0,1,.1,1.26l0,7"/><path class="cls-1" d="M184.6,215.46a38.38,38.38,0,0,1-4.4-4.62,31.64,31.64,0,0,1-6.11-14.54,130.42,130.42,0,0,1-12,18.6"/><path class="cls-1" d="M57.51,208.21l-23.16.2A12.71,12.71,0,0,0,21.8,221.29l.05,20.37"/><path class="cls-1" d="M314.59,172.25l-114.43.37a7.08,7.08,0,0,0-7,7.14v.17"/><path class="cls-1" d="M73.74,184a20.25,20.25,0,0,1,15.85,5.45A4.82,4.82,0,0,1,91,191.58c.37,1.36-.33,2.76-1,4L84.3,206.17a2.63,2.63,0,0,1-1,1.16,2.31,2.31,0,0,1-1.58.08c-3.61-.77-6.45-3.47-9.06-6.07-3.51-3.51-7.22-7.63-7.17-12.59"/><path class="cls-1" d="M86.31,154A27.49,27.49,0,0,0,85,156.54a13.76,13.76,0,0,0-.32,3.29,9,9,0,0,1-2,5,8.61,8.61,0,0,1-1.28,1.28A18.32,18.32,0,0,0,79.06,168a4.62,4.62,0,0,0-1.23,3.37,3.08,3.08,0,0,0,1.12,2.2,2,2,0,0,0,.7.39A1.87,1.87,0,0,0,80,174c1.63.25,3.42,2.11,2.73,3.56s-2.44,2.39-4.08,2.93a23.66,23.66,0,0,1-8.8,1.49,2.68,2.68,0,0,1-1.8-3.55h0a0,0,0,0,1,0,0,.39.39,0,0,1,.06-.17,3.84,3.84,0,0,0-1.89-3.81A12.58,12.58,0,0,0,62,173.2a30.13,30.13,0,0,1-6.28-1.84,15.79,15.79,0,0,1-7.14-5.56,10.59,10.59,0,0,1-.66-1.12c-2.58-4.86-1.77-11.18,1.2-15.89,3.2-5.08,8.49-8.52,14-10.88a8.62,8.62,0,0,1,3.77-.92,3.52,3.52,0,0,1,2.14.9,9.28,9.28,0,0,0,3.26,2.05c3.19,1.07,6.08,2.44,7.77,5.42,1,1.83,1.6,4.24,3.56,5,.82.31,1.82.28,2.46.89A2.46,2.46,0,0,1,86.31,154Z"/><path class="cls-1" d="M97.39,186.42c-.36-.28-.82-.43-1.15-.72-3.91-3.32-4.55-5.11-9.52-6.39"/><path class="cls-1" d="M158.58,180.39a12.77,12.77,0,0,1-3.23,1.12,19.22,19.22,0,0,0-10.71,6.4c-1.39,1.62-2.72,3.34-4.14,5a70.35,70.35,0,0,1-16.7,14.35c-.8.49-1.6,1-2.42,1.42a87.85,87.85,0,0,1-2.94,12.57A94.54,94.54,0,0,1,106.91,246c-.43.62-.87,1.25-1.36,1.83a8.68,8.68,0,0,1-2,1.8c-3,2-9.19,2.95-13.51-1.37-1-1-12.27-15.18-18.47-27q-.69-1.32-1.29-2.58c-3.6-7.63-13.78-34-2.26-40.25a2.68,2.68,0,0,0,1.8,3.55,23.66,23.66,0,0,0,8.8-1.49c1.64-.54,3.35-1.37,4.08-2.93S81.62,174.25,80,174a1.87,1.87,0,0,1-.34-.08,8.9,8.9,0,0,1,2.76-2.59c2-1.34,4.44-2.48,6-3.36L94,164.83l2.32-1.31a2.66,2.66,0,0,1,.8-.33,1.83,1.83,0,0,1,1.5.48.9.9,0,0,1,.15.19c.22.34.45.67.68,1A22.14,22.14,0,0,0,107,171.3a37.83,37.83,0,0,0,4.29,1.93,1.11,1.11,0,0,1,.3.17h0a1.45,1.45,0,0,1,.53.91c.07.59-.45,1.06-.92,1.42-4.4,3.42-9.19,9.4-13.89,10.75,5,3.82,11.94,7,16,11.48l.27-.19L137,182.11c5.4-3.62,10.94-7.3,17.24-8.91,2.32-.59,7.62-2.14,8.89-.11S160.67,179.35,158.58,180.39Z"/><path class="cls-1" d="M91.17,192.64c3.81,1.89,9.31,5.24,13.33,6.62a10.39,10.39,0,0,0,4,.78,10.58,10.58,0,0,0,4.85-2.08"/><path class="cls-1" d="M85,205.09c6.1,4,15.49,8.2,22.77,8.07,4.76-.09,9.29-2,13.44-4.34l.22-.13"/><path class="cls-1" d="M242.92,251.8a21.33,21.33,0,0,1-5.88-.59,47.55,47.55,0,0,0-14-.31l-1.11.15c-5.26.78-10.61,2.18-15.71.77a6.9,6.9,0,0,1-4.21-2.76c-1.42-2.36-.4-5.41-.9-8.11a11,11,0,0,0-1.82-4.21c-2.32-3.39-6.13-6.17-8.58-9.43-.92-1.24-2.18-1.66-1.22-2.87h.29a16.17,16.17,0,0,0,3-.18c3-.48,4.79-1.8,6.77-3l.71-.41a14.3,14.3,0,0,0,4.06-3.08,6.62,6.62,0,0,0,1.48-3h0c0-.1,0-.2,0-.3a.29.29,0,0,1,.55-.08c.36.83.74,1.64,1.14,2.44.72,1.49,1.47,2.95,2.21,4.42.93,1.84,1.84,3.7,2.63,5.65a41.1,41.1,0,0,0,3.52,7.28,17.83,17.83,0,0,0,1.91,2.42c3.48,3.65,8.58,5.29,13.57,6,3.1.46,6.37.61,9.26-.61,1.83-.77,3.51-2.07,5.81-1a4.91,4.91,0,0,1,2.81,3.85C249.7,248.58,246.37,251.43,242.92,251.8Z"/><path class="cls-1" d="M174.09,196.3c1.51-2.9,3-5.79,4.2-8.73"/><path class="cls-1" d="M189.83,224.64a1.18,1.18,0,0,0,0-.2"/><path class="cls-1" d="M164,173.92c3.85-.91,5.8-3.24,9.76-3.24,5.63,0,9.66,5.24,12.66,10,1.15,1.82,2.23,3.57,3.28,5.27,6,9.73,10.54,17.86,16.1,28.85h0a6.62,6.62,0,0,1-1.48,3,14.3,14.3,0,0,1-4.06,3.08l-.71.41c-2,1.19-3.75,2.51-6.77,3a16.17,16.17,0,0,1-3,.18,14.32,14.32,0,0,0-.85-3.18,13.85,13.85,0,0,0-2.26-3.58,26.94,26.94,0,0,0-2.07-2.21h0"/><path class="cls-1" d="M205.83,214.87l0-.06"/><path class="cls-1" d="M147,235.81a35.48,35.48,0,0,1-12.18,9.28,42.83,42.83,0,0,1-29.31,2.7c.49-.58.93-1.21,1.36-1.83a94.54,94.54,0,0,0,11.53-24.7,87.85,87.85,0,0,0,2.94-12.57c.82-.45,1.62-.93,2.42-1.42a60.7,60.7,0,0,1,19,14,70.16,70.16,0,0,1,4.9,5.84,8.68,8.68,0,0,1,1.5,2.66,4.48,4.48,0,0,1,.11.5C149.61,232.29,148.36,234.23,147,235.81Z"/><path class="cls-1" d="M161,216.35a31.56,31.56,0,0,1-.4,4.91c-1,6.59-3.84,13.25-6.62,19.11a11.91,11.91,0,0,1-2.26,3.53h0a4.55,4.55,0,0,1-1.63,1.06,8.43,8.43,0,0,1-2.88.33c-3.65,0-8.64-.2-12.33-.21A35.48,35.48,0,0,0,147,235.81c1.32-1.58,2.57-3.52,2.23-5.55a4.48,4.48,0,0,0-.11-.5c2.63-2.62,5.27-5.48,7.84-8.5C158.36,219.67,159.69,218,161,216.35Z"/><path class="cls-1" d="M162.11,214.9c3.95-.06,9.34,0,13-.07a36.08,36.08,0,0,1,9.51.63h0a26.94,26.94,0,0,1,2.07,2.21,13.85,13.85,0,0,1,2.26,3.58,14.32,14.32,0,0,1,.85,3.18h-.29c-1,1.21.3,1.63,1.22,2.87,2.45,3.26,6.26,6,8.58,9.43-14.32,3.63-32.72,6.82-47.58,7.16a11.91,11.91,0,0,0,2.26-3.53c2.78-5.86,5.61-12.52,6.62-19.11a31.56,31.56,0,0,0,.4-4.91h0q.57-.72,1.11-1.44"/><path class="cls-1" d="M305.68,206.31c-1.46,2.73-3.49,5.17-4.59,8.07a25.16,25.16,0,0,0-1.28,7c-.13,1.54-.23,3.09-.47,4.62-.59,3.89-2.46,8.06-6.16,9.38-3.35,1.18-7-.35-10.51-.76-5.14-.59-17.28.68-18.17.68-.42,0-.35-.51-.12-1.18.12-.4.3-.85.47-1.29,1.47-4-.6-9.05-4.14-11.5h0l-.1-.07a.45.45,0,0,1-.15-.16.54.54,0,0,1,.43-.81,80,80,0,0,0,19.28-3.64A34.43,34.43,0,0,0,292,211c3.43-2.78,6.05-6.81,6.3-11.22a18.8,18.8,0,0,1,.3-3.83,3.17,3.17,0,0,1,2.6-2.5,3.68,3.68,0,0,1,2.16.74,8.56,8.56,0,0,1,3.2,3.26C308,200.17,307.14,203.57,305.68,206.31Z"/><path class="cls-1" d="M261,221.09l-.5,0c-2.13.09-4.29.16-6.46.23"/><path class="cls-1" d="M264.85,232.84c-.17.44-.35.89-.47,1.29-14.38,4.77-34,4.61-48.48.08a41.1,41.1,0,0,1-3.52-7.28c-.79-2-1.7-3.81-2.63-5.65-.74-1.47-1.49-2.93-2.21-4.42,1.94,0,5.79,1.67,7,2.58a12.46,12.46,0,0,0,3.72,1.85h0c3.26,1,6.95.93,10.43.78,8.19-.36,16.78-.48,25.15-.73h6.82C264.25,223.79,266.32,228.87,264.85,232.84Z"/><path class="cls-1" d="M167,124.82c-.37.58-2.2.43-3.54.33-1.39,1.16-2.87,2.4-4.31,3.57a2.54,2.54,0,0,0-.31,3.66c1,1.17,2.25,2.56,3.25,3.72a2.94,2.94,0,0,0,.66.57l-1.45-.3A11,11,0,0,0,153,139c-9.77,8.53-20.9,17.36-31.27,25.88q-3.92,3.21-7.64,6.37l-2.48,2.11h0a1.11,1.11,0,0,0-.3-.17A37.83,37.83,0,0,1,107,171.3a22.14,22.14,0,0,1-7.58-6.45c-.23-.32-.46-.65-.68-1a.9.9,0,0,0-.15-.19c19.78-7.95,36.13-26.6,55.17-36.13.89-.81,1.83-1.56,2.71-2.36a19,19,0,0,1,4-3,6.32,6.32,0,0,1,4.84-.55C166.62,122.07,167.78,123.64,167,124.82Z"/><path class="cls-1" d="M162.78,136.67h0a3,3,0,0,0,3.55-.31l1.51-1.37"/><path class="cls-1" d="M181,123.92l6.78-6.91a2.77,2.77,0,0,0,.08-4l-4-4.06a1.85,1.85,0,0,0-2.56,0l-14.56,13.51"/><path class="cls-1" d="M168,134.92c1.78,0,5.66-1.73,7.44-3.42a33,33,0,0,0,4.56-5.76,4.33,4.33,0,0,0,1.06-2.89c-.11-.7-.93-1-2-1.21a4.74,4.74,0,0,0-3.31.76c-1.73,1.14-2.74,2.62-4.29,3.94a5.71,5.71,0,0,0-1.67,1.93,2.18,2.18,0,0,0,0,1.68,2.71,2.71,0,0,1,0,2.28A9.35,9.35,0,0,1,168,134.92Z"/><path class="cls-1" d="M363.64,3.41,379.72.76A21.16,21.16,0,0,1,390,1.69L473,30.88a16.82,16.82,0,0,1,11,15.79V76.94a12.88,12.88,0,0,1-7.85,11.86l-15.82,4.7a10.53,10.53,0,0,1-8.33-.76L362,45.61a9.6,9.6,0,0,1-5-8.44V10.53A7.22,7.22,0,0,1,363.64,3.41Z"/><path class="cls-2" d="M375.92,64.18a22,22,0,0,1-5.4,11.14,12,12,0,0,1-5.43,3.27,37.23,37.23,0,0,1-6.21.91c-4.08.34-8.27.76-11.76,2.82a10.77,10.77,0,0,0-4.11,4.3,16.91,16.91,0,0,0-1.74,5.87,15.8,15.8,0,0,1,1.3-6.08,11.3,11.3,0,0,1,4.14-4.74,17.33,17.33,0,0,1,5.89-2.29,52.39,52.39,0,0,1,6.19-.88,35.23,35.23,0,0,0,6.06-.79A11.93,11.93,0,0,0,370,74.77a18.83,18.83,0,0,0,3.62-4.88A27.91,27.91,0,0,0,375.92,64.18Z"/><path class="cls-2" d="M387.92,74.18a22,22,0,0,1-5.4,11.14,12,12,0,0,1-5.43,3.27,37.23,37.23,0,0,1-6.21.91c-4.08.34-8.27.76-11.76,2.82a10.77,10.77,0,0,0-4.11,4.3,16.91,16.91,0,0,0-1.74,5.87,15.8,15.8,0,0,1,1.3-6.08,11.3,11.3,0,0,1,4.14-4.74,17.33,17.33,0,0,1,5.89-2.29,52.39,52.39,0,0,1,6.19-.88,35.23,35.23,0,0,0,6.06-.79A11.93,11.93,0,0,0,382,84.77a18.83,18.83,0,0,0,3.62-4.88A27.91,27.91,0,0,0,387.92,74.18Z"/><path class="cls-2" d="M407.92,80.18a22,22,0,0,1-5.4,11.14,12,12,0,0,1-5.43,3.27,37.23,37.23,0,0,1-6.21.91c-4.08.34-8.27.76-11.76,2.82a10.77,10.77,0,0,0-4.11,4.3,16.91,16.91,0,0,0-1.74,5.87,15.8,15.8,0,0,1,1.3-6.08,11.3,11.3,0,0,1,4.14-4.74,17.33,17.33,0,0,1,5.89-2.29,52.39,52.39,0,0,1,6.19-.88,35.23,35.23,0,0,0,6.06-.79A11.93,11.93,0,0,0,402,90.77a18.83,18.83,0,0,0,3.62-4.88A27.91,27.91,0,0,0,407.92,80.18Z"/><line class="cls-1" x1="389" y1="46.92" x2="406" y2="54.92"/><path class="cls-2" d="M366,5.92c10.74,4,21.44,8.18,32.14,12.34l32,12.59,16,6.39,2,.8a14.4,14.4,0,0,1,2,.92,11.92,11.92,0,0,1,3.42,2.82A12.23,12.23,0,0,1,456.45,50l-.17,17.21L456,84.42l-.21-17.21L455.68,50a11.58,11.58,0,0,0-2.75-7.65,11.32,11.32,0,0,0-3.19-2.61,13.94,13.94,0,0,0-1.92-.85l-2-.79-16-6.31L397.85,19Q381.91,12.52,366,5.92Z"/><path class="cls-2" d="M360.45,38.46c7.71,3.7,15.37,7.51,23,11.32l22.89,11.57,22.79,11.77,11.36,6,2.83,1.51a20.88,20.88,0,0,1,2.76,1.67,18.39,18.39,0,0,1,4.4,4.66A19.18,19.18,0,0,0,446,82.48a20.36,20.36,0,0,0-2.78-1.55l-2.88-1.41L428.8,73.81,405.91,62.24,383.12,50.47C375.54,46.51,368,42.53,360.45,38.46Z"/></g></g></svg>