<?xml version="1.0" encoding="utf-8"?>
<!-- Generator: Adobe Illustrator 25.3.1, SVG Export Plug-In . SVG Version: 6.00 Build 0)  -->
<svg version="1.1" id="Layer_1" xmlns="http://www.w3.org/2000/svg" xmlns:xlink="http://www.w3.org/1999/xlink" x="0px" y="0px"
	 viewBox="0 0 957 303.2" style="enable-background:new 0 0 957 303.2;" xml:space="preserve">
<style type="text/css">
	.st0{fill:none;}
	.st1{fill:#FFFFFF;}
	.st2{opacity:0.3;}
	.st3{fill:url(#SVGID_2_);}
</style>
<pattern  y="303.2" width="533.4" height="939.6" patternUnits="userSpaceOnUse" id="SVGID_1_" viewBox="15.1 -944.8 533.4 939.6" style="overflow:visible;">
	<g>
		<rect x="15.1" y="-944.8" class="st0" width="533.4" height="939.6"/>
		<g>
			<rect x="15.1" y="-944.8" class="st0" width="533.4" height="939.6"/>
			<g>
				<rect x="15.1" y="-944.8" class="st0" width="533.4" height="939.6"/>
				<rect x="15.1" y="-944.8" class="st0" width="533.4" height="939.6"/>
				<rect x="15.1" y="-944.8" class="st0" width="533.4" height="939.6"/>
				<rect x="15.1" y="-944.8" class="st0" width="533.4" height="939.6"/>
				<circle class="st1" cx="549.9" cy="-762" r="12.5"/>
				<circle class="st1" cx="517.4" cy="-764.9" r="12.5"/>
				<circle class="st1" cx="486" cy="-773.6" r="12.5"/>
				<circle class="st1" cx="456.6" cy="-787.8" r="12.5"/>
				<circle class="st1" cx="430.2" cy="-806.9" r="12.5"/>
				<circle class="st1" cx="407.7" cy="-830.5" r="12.5"/>
				<circle class="st1" cx="389.7" cy="-857.7" r="12.5"/>
				<circle class="st1" cx="376.9" cy="-887.7" r="12.5"/>
				<circle class="st1" cx="369.6" cy="-919.5" r="12.5"/>
				<circle class="st1" cx="368.1" cy="-952.1" r="12.5"/>
				<circle class="st1" cx="549.2" cy="-694.1" r="15.8"/>
				
					<ellipse transform="matrix(0.3162 -0.9487 0.9487 0.3162 1007.058 1.2636)" class="st1" cx="504.4" cy="-698" rx="15.8" ry="15.8"/>
				<circle class="st1" cx="461" cy="-709.9" r="15.8"/>
				<circle class="st1" cx="420.3" cy="-729.3" r="15.8"/>
				<circle class="st1" cx="383.8" cy="-755.7" r="15.8"/>
				<circle class="st1" cx="352.6" cy="-788.2" r="15.8"/>
				<circle class="st1" cx="327.7" cy="-825.7" r="15.8"/>
				<circle class="st1" cx="309.9" cy="-867" r="15.8"/>
				<circle class="st1" cx="299.8" cy="-910.9" r="15.8"/>
				<circle class="st1" cx="297.7" cy="-955.9" r="15.8"/>
				<circle class="st1" cx="548.6" cy="-730.4" r="8.6"/>
				<circle class="st1" cx="522.2" cy="-732.1" r="8.6"/>
				<circle class="st1" cx="496.3" cy="-737" r="8.6"/>
				<circle class="st1" cx="471.2" cy="-745.1" r="8.6"/>
				<circle class="st1" cx="447.3" cy="-756.2" r="8.6"/>
				<circle class="st1" cx="424.9" cy="-770.1" r="8.6"/>
				<circle class="st1" cx="404.4" cy="-786.7" r="8.6"/>
				<circle class="st1" cx="386.1" cy="-805.7" r="8.6"/>
				<circle class="st1" cx="370.3" cy="-826.8" r="8.6"/>
				<circle class="st1" cx="357.2" cy="-849.7" r="8.6"/>
				<circle class="st1" cx="347" cy="-874" r="8.6"/>
				<circle class="st1" cx="339.8" cy="-899.4" r="8.6"/>
				<circle class="st1" cx="335.9" cy="-925.5" r="8.6"/>
				<circle class="st1" cx="335.1" cy="-951.8" r="8.6"/>
				<circle class="st1" cx="550.8" cy="-842.8" r="6.9"/>
				<ellipse class="st1" cx="533" cy="-844.4" rx="6.9" ry="6.9"/>
				
					<ellipse transform="matrix(0.8385 -0.5449 0.5449 0.8385 546.0487 143.9006)" class="st1" cx="515.8" cy="-849.2" rx="6.9" ry="6.9"/>
				<circle class="st1" cx="499.7" cy="-856.9" r="6.9"/>
				<circle class="st1" cx="485.3" cy="-867.4" r="6.9"/>
				<circle class="st1" cx="472.9" cy="-880.3" r="6.9"/>
				<circle class="st1" cx="463.1" cy="-895.2" r="6.9"/>
				<circle class="st1" cx="456.1" cy="-911.7" r="6.9"/>
				<circle class="st1" cx="452.1" cy="-929.1" r="6.9"/>
				<circle class="st1" cx="451.3" cy="-946.9" r="6.9"/>
				<circle class="st1" cx="550.5" cy="-805.6" r="8.7"/>
				<circle class="st1" cx="525.9" cy="-807.8" r="8.7"/>
				<circle class="st1" cx="502.1" cy="-814.3" r="8.7"/>
				<circle class="st1" cx="479.9" cy="-824.9" r="8.7"/>
				<circle class="st1" cx="459.9" cy="-839.4" r="8.7"/>
				<circle class="st1" cx="442.8" cy="-857.1" r="8.7"/>
				<circle class="st1" cx="429.2" cy="-877.7" r="8.7"/>
				<circle class="st1" cx="419.4" cy="-900.3" r="8.7"/>
				<circle class="st1" cx="413.9" cy="-924.3" r="8.7"/>
				<circle class="st1" cx="412.7" cy="-949" r="8.7"/>
				<circle class="st1" cx="550.1" cy="-825.5" r="4.7"/>
				<circle class="st1" cx="535.7" cy="-826.4" r="4.7"/>
				<circle class="st1" cx="521.5" cy="-829.1" r="4.7"/>
				<circle class="st1" cx="507.8" cy="-833.5" r="4.7"/>
				<circle class="st1" cx="494.6" cy="-839.6" r="4.7"/>
				<circle class="st1" cx="482.4" cy="-847.2" r="4.7"/>
				<circle class="st1" cx="471.2" cy="-856.3" r="4.7"/>
				<circle class="st1" cx="461.1" cy="-866.7" r="4.7"/>
				<circle class="st1" cx="452.5" cy="-878.3" r="4.7"/>
				<circle class="st1" cx="445.3" cy="-890.8" r="4.7"/>
				<circle class="st1" cx="439.7" cy="-904.1" r="4.7"/>
				<circle class="st1" cx="435.8" cy="-918" r="4.7"/>
				<circle class="st1" cx="433.6" cy="-932.3" r="4.7"/>
				<circle class="st1" cx="433.2" cy="-946.8" r="4.7"/>
				<circle class="st1" cx="16.5" cy="-762" r="12.5"/>
				<circle class="st1" cx="198.2" cy="-952.1" r="12.5"/>
				<circle class="st1" cx="196.8" cy="-919.5" r="12.5"/>
				<circle class="st1" cx="189.5" cy="-887.7" r="12.5"/>
				<circle class="st1" cx="176.7" cy="-857.7" r="12.5"/>
				<circle class="st1" cx="158.7" cy="-830.5" r="12.5"/>
				<circle class="st1" cx="136.2" cy="-806.9" r="12.5"/>
				<circle class="st1" cx="109.8" cy="-787.8" r="12.5"/>
				<circle class="st1" cx="80.4" cy="-773.6" r="12.5"/>
				<circle class="st1" cx="49" cy="-764.9" r="12.5"/>
				
					<ellipse transform="matrix(1 -3.631819e-03 3.631819e-03 1 2.5209 5.280550e-02)" class="st1" cx="15.8" cy="-694.1" rx="15.8" ry="15.8"/>
				
					<ellipse transform="matrix(0.2076 -0.9782 0.9782 0.2076 1147.1287 -498.288)" class="st1" cx="266" cy="-957.2" rx="15.8" ry="15.8"/>
				
					<ellipse transform="matrix(0.2298 -0.9732 0.9732 0.2298 1091.22 -445.5843)" class="st1" cx="264.1" cy="-912.2" rx="15.8" ry="15.8"/>
				<circle class="st1" cx="254.2" cy="-868.3" r="15.8"/>
				<circle class="st1" cx="236.6" cy="-826.8" r="15.8"/>
				<circle class="st1" cx="211.9" cy="-789.2" r="15.8"/>
				<circle class="st1" cx="180.9" cy="-756.5" r="15.8"/>
				<circle class="st1" cx="144.5" cy="-730" r="15.8"/>
				<circle class="st1" cx="104" cy="-710.4" r="15.8"/>
				<circle class="st1" cx="60.7" cy="-698.3" r="15.8"/>
				<ellipse class="st1" cx="15.1" cy="-730.5" rx="8.6" ry="8.6"/>
				<circle class="st1" cx="230" cy="-950.5" r="8.6"/>
				<circle class="st1" cx="229.1" cy="-924.2" r="8.6"/>
				<circle class="st1" cx="225" cy="-898.1" r="8.6"/>
				<circle class="st1" cx="217.7" cy="-872.8" r="8.6"/>
				<circle class="st1" cx="207.3" cy="-848.5" r="8.6"/>
				<circle class="st1" cx="194" cy="-825.7" r="8.6"/>
				<circle class="st1" cx="178.1" cy="-804.7" r="8.6"/>
				<circle class="st1" cx="159.7" cy="-785.8" r="8.6"/>
				<ellipse class="st1" cx="139.2" cy="-769.4" rx="8.6" ry="8.6"/>
				<circle class="st1" cx="116.6" cy="-755.5" r="8.6"/>
				<circle class="st1" cx="92.6" cy="-744.6" r="8.6"/>
				<circle class="st1" cx="67.4" cy="-736.7" r="8.6"/>
				<circle class="st1" cx="41.5" cy="-731.9" r="8.6"/>
				<ellipse class="st1" cx="17.4" cy="-842.8" rx="6.9" ry="6.9"/>
				<circle class="st1" cx="116.9" cy="-946.9" r="6.9"/>
				<circle class="st1" cx="116.1" cy="-929.1" r="6.9"/>
				<circle class="st1" cx="112.2" cy="-911.7" r="6.9"/>
				<circle class="st1" cx="105.1" cy="-895.2" r="6.9"/>
				<circle class="st1" cx="95.3" cy="-880.3" r="6.9"/>
				<circle class="st1" cx="83" cy="-867.4" r="6.9"/>
				<circle class="st1" cx="68.5" cy="-856.9" r="6.9"/>
				<ellipse class="st1" cx="52.4" cy="-849.2" rx="6.9" ry="6.9"/>
				<ellipse class="st1" cx="35.1" cy="-844.4" rx="6.9" ry="6.9"/>
				<ellipse class="st1" cx="17.1" cy="-805.6" rx="8.7" ry="8.7"/>
				<circle class="st1" cx="154.1" cy="-949.7" r="8.7"/>
				<circle class="st1" cx="153" cy="-925" r="8.7"/>
				<circle class="st1" cx="147.6" cy="-901" r="8.7"/>
				<ellipse class="st1" cx="138" cy="-878.3" rx="8.7" ry="8.7"/>
				<ellipse class="st1" cx="124.3" cy="-857.7" rx="8.7" ry="8.7"/>
				<circle class="st1" cx="107.4" cy="-839.8" r="8.7"/>
				<ellipse class="st1" cx="87.5" cy="-825.2" rx="8.7" ry="8.7"/>
				<ellipse class="st1" cx="65.3" cy="-814.5" rx="8.7" ry="8.7"/>
				<ellipse class="st1" cx="42.1" cy="-808" rx="8.7" ry="8.7"/>
				<ellipse class="st1" cx="16.6" cy="-825.5" rx="4.7" ry="4.7"/>
				<circle class="st1" cx="134.3" cy="-946" r="4.7"/>
				<circle class="st1" cx="133.8" cy="-931.6" r="4.7"/>
				<circle class="st1" cx="131.6" cy="-917.3" r="4.7"/>
				<ellipse class="st1" cx="127.5" cy="-903.5" rx="4.7" ry="4.7"/>
				<circle class="st1" cx="121.9" cy="-890.2" r="4.7"/>
				<circle class="st1" cx="114.6" cy="-877.7" r="4.7"/>
				<circle class="st1" cx="105.9" cy="-866.2" r="4.7"/>
				<circle class="st1" cx="95.8" cy="-855.9" r="4.7"/>
				<circle class="st1" cx="84.5" cy="-846.8" r="4.7"/>
				<circle class="st1" cx="72.2" cy="-839.3" r="4.7"/>
				<circle class="st1" cx="59.1" cy="-833.3" r="4.7"/>
				<circle class="st1" cx="45.3" cy="-828.9" r="4.7"/>
				<ellipse class="st1" cx="31.1" cy="-826.3" rx="4.7" ry="4.7"/>
				<circle class="st1" cx="283.2" cy="-292.2" r="12.5"/>
				
					<ellipse transform="matrix(0.3162 -0.9487 0.9487 0.3162 451.3559 36.0634)" class="st1" cx="250.7" cy="-295.1" rx="12.5" ry="12.5"/>
				<circle class="st1" cx="219.3" cy="-303.8" r="12.5"/>
				<circle class="st1" cx="189.9" cy="-318" r="12.5"/>
				<circle class="st1" cx="163.5" cy="-337.1" r="12.5"/>
				<circle class="st1" cx="140.9" cy="-360.7" r="12.5"/>
				<circle class="st1" cx="123" cy="-387.9" r="12.5"/>
				<circle class="st1" cx="110.2" cy="-417.9" r="12.5"/>
				<circle class="st1" cx="102.9" cy="-449.7" r="12.5"/>
				<circle class="st1" cx="101.4" cy="-482.3" r="12.5"/>
				<circle class="st1" cx="105.8" cy="-514.6" r="12.5"/>
				<circle class="st1" cx="115.9" cy="-545.7" r="12.5"/>
				<circle class="st1" cx="131.4" cy="-574.4" r="12.5"/>
				<circle class="st1" cx="151.7" cy="-599.9" r="12.5"/>
				<circle class="st1" cx="176.2" cy="-621.3" r="12.5"/>
				<circle class="st1" cx="204.2" cy="-638" r="12.5"/>
				<circle class="st1" cx="234.8" cy="-649.5" r="12.5"/>
				<circle class="st1" cx="266.9" cy="-655.4" r="12.5"/>
				<circle class="st1" cx="299.5" cy="-655.3" r="12.5"/>
				<circle class="st1" cx="331.6" cy="-649.5" r="12.5"/>
				<circle class="st1" cx="362.1" cy="-638" r="12.5"/>
				<circle class="st1" cx="390.1" cy="-621.3" r="12.5"/>
				<circle class="st1" cx="414.7" cy="-599.9" r="12.5"/>
				<circle class="st1" cx="435" cy="-574.4" r="12.5"/>
				<circle class="st1" cx="450.5" cy="-545.7" r="12.5"/>
				<circle class="st1" cx="460.6" cy="-514.6" r="12.5"/>
				<circle class="st1" cx="464.9" cy="-482.3" r="12.5"/>
				<circle class="st1" cx="463.5" cy="-449.7" r="12.5"/>
				<circle class="st1" cx="456.2" cy="-417.9" r="12.5"/>
				<circle class="st1" cx="443.4" cy="-387.9" r="12.5"/>
				<circle class="st1" cx="425.4" cy="-360.7" r="12.5"/>
				<circle class="st1" cx="402.9" cy="-337.1" r="12.5"/>
				<circle class="st1" cx="376.5" cy="-318" r="12.5"/>
				<circle class="st1" cx="347.1" cy="-303.8" r="12.5"/>
				<circle class="st1" cx="315.7" cy="-295.1" r="12.5"/>
				<ellipse class="st1" cx="282.5" cy="-224.3" rx="15.8" ry="15.8"/>
				<circle class="st1" cx="237.7" cy="-228.2" r="15.8"/>
				<circle class="st1" cx="194.2" cy="-240.1" r="15.8"/>
				<circle class="st1" cx="153.6" cy="-259.5" r="15.8"/>
				
					<ellipse transform="matrix(0.9565 -0.2917 0.2917 0.9565 88.4826 21.7311)" class="st1" cx="117.1" cy="-285.9" rx="15.8" ry="15.8"/>
				
					<ellipse transform="matrix(3.328099e-02 -0.9994 0.9994 3.328099e-02 401.3263 -221.9169)" class="st1" cx="85.9" cy="-318.4" rx="15.8" ry="15.8"/>
				
					<ellipse transform="matrix(9.973813e-02 -0.995 0.995 9.973813e-02 409.0942 -259.7275)" class="st1" cx="61" cy="-355.9" rx="15.8" ry="15.8"/>
				
					<ellipse transform="matrix(9.089008e-03 -1 1 9.089008e-03 439.933 -350.4171)" class="st1" cx="43.2" cy="-397.2" rx="15.8" ry="15.8"/>
				
					<ellipse transform="matrix(0.9999 -1.020346e-02 1.020346e-02 0.9999 4.5027 0.3148)" class="st1" cx="33.1" cy="-441.1" rx="15.8" ry="15.8"/>
				
					<ellipse transform="matrix(0.9998 -2.143717e-02 2.143717e-02 0.9998 10.4281 0.5528)" class="st1" cx="31" cy="-486.1" rx="15.8" ry="15.8"/>
				
					<ellipse transform="matrix(0.9999 -1.020346e-02 1.020346e-02 0.9999 5.4171 0.3489)" class="st1" cx="36.9" cy="-530.7" rx="15.8" ry="15.8"/>
				<circle class="st1" cx="50.7" cy="-573.6" r="15.8"/>
				
					<ellipse transform="matrix(9.973809e-02 -0.995 0.995 9.973809e-02 674.9839 -480.5326)" class="st1" cx="71.9" cy="-613.3" rx="15.8" ry="15.8"/>
				<circle class="st1" cx="99.9" cy="-648.5" r="15.8"/>
				
					<ellipse transform="matrix(0.9951 -9.854408e-02 9.854408e-02 0.9951 67.4843 9.8741)" class="st1" cx="133.7" cy="-678.2" rx="15.8" ry="15.8"/>
				<circle class="st1" cx="172.3" cy="-701.5" r="15.8"/>
				<circle class="st1" cx="214.4" cy="-717.4" r="15.8"/>
				
					<ellipse transform="matrix(0.2298 -0.9732 0.9732 0.2298 905.355 -307.0346)" class="st1" cx="258.7" cy="-725.5" rx="15.8" ry="15.8"/>
				<circle class="st1" cx="303.7" cy="-725.7" r="15.8"/>
				<circle class="st1" cx="348" cy="-717.7" r="15.8"/>
				<circle class="st1" cx="390.2" cy="-702" r="15.8"/>
				<circle class="st1" cx="429" cy="-679" r="15.8"/>
				<circle class="st1" cx="462.9" cy="-649.5" r="15.8"/>
				<circle class="st1" cx="491.1" cy="-614.4" r="15.8"/>
				<ellipse class="st1" cx="512.5" cy="-574.8" rx="15.8" ry="15.8"/>
				<circle class="st1" cx="526.6" cy="-532" r="15.8"/>
				<circle class="st1" cx="532.7" cy="-487.4" r="15.8"/>
				<circle class="st1" cx="530.8" cy="-442.4" r="15.8"/>
				<circle class="st1" cx="520.9" cy="-398.5" r="15.8"/>
				<circle class="st1" cx="503.3" cy="-357" r="15.8"/>
				<circle class="st1" cx="478.6" cy="-319.4" r="15.8"/>
				<circle class="st1" cx="447.6" cy="-286.8" r="15.8"/>
				<circle class="st1" cx="411.2" cy="-260.2" r="15.8"/>
				<circle class="st1" cx="370.7" cy="-240.6" r="15.8"/>
				<circle class="st1" cx="327.4" cy="-228.5" r="15.8"/>
				<circle class="st1" cx="281.9" cy="-260.6" r="8.6"/>
				<circle class="st1" cx="255.6" cy="-262.3" r="8.6"/>
				<circle class="st1" cx="229.6" cy="-267.2" r="8.6"/>
				<circle class="st1" cx="204.5" cy="-275.3" r="8.6"/>
				<circle class="st1" cx="180.6" cy="-286.4" r="8.6"/>
				<circle class="st1" cx="158.2" cy="-300.3" r="8.6"/>
				<circle class="st1" cx="137.7" cy="-316.9" r="8.6"/>
				<circle class="st1" cx="119.4" cy="-335.9" r="8.6"/>
				<circle class="st1" cx="103.6" cy="-357" r="8.6"/>
				<circle class="st1" cx="90.5" cy="-379.9" r="8.6"/>
				<circle class="st1" cx="80.3" cy="-404.2" r="8.6"/>
				
					<ellipse transform="matrix(4.536029e-02 -0.999 0.999 4.536029e-02 498.9886 -337.0976)" class="st1" cx="73.1" cy="-429.6" rx="8.6" ry="8.6"/>
				<circle class="st1" cx="69.2" cy="-455.7" r="8.6"/>
				<circle class="st1" cx="68.4" cy="-482.1" r="8.6"/>
				<circle class="st1" cx="70.9" cy="-508.3" r="8.6"/>
				<circle class="st1" cx="76.7" cy="-534.1" r="8.6"/>
				<circle class="st1" cx="85.5" cy="-558.9" r="8.6"/>
				<circle class="st1" cx="97.3" cy="-582.5" r="8.6"/>
				<circle class="st1" cx="112" cy="-604.4" r="8.6"/>
				<ellipse class="st1" cx="129.1" cy="-622.4" rx="8.6" ry="8.6"/>
				<ellipse class="st1" cx="148.7" cy="-642" rx="8.6" ry="8.6"/>
				<circle class="st1" cx="170.3" cy="-657.3" r="8.6"/>
				<circle class="st1" cx="193.6" cy="-669.7" r="8.6"/>
				<circle class="st1" cx="218.2" cy="-679.2" r="8.6"/>
				<circle class="st1" cx="243.8" cy="-685.5" r="8.6"/>
				<circle class="st1" cx="270" cy="-688.7" r="8.6"/>
				<circle class="st1" cx="296.4" cy="-688.6" r="8.6"/>
				<circle class="st1" cx="322.5" cy="-685.3" r="8.6"/>
				<circle class="st1" cx="348.1" cy="-678.8" r="8.6"/>
				<circle class="st1" cx="372.7" cy="-669.1" r="8.6"/>
				<circle class="st1" cx="395.9" cy="-656.6" r="8.6"/>
				<circle class="st1" cx="417.3" cy="-641.3" r="8.6"/>
				<circle class="st1" cx="436.8" cy="-623.5" r="8.6"/>
				<circle class="st1" cx="453.9" cy="-603.4" r="8.6"/>
				<circle class="st1" cx="468.4" cy="-581.4" r="8.6"/>
				<circle class="st1" cx="480.1" cy="-557.7" r="8.6"/>
				<circle class="st1" cx="488.8" cy="-532.8" r="8.6"/>
				<circle class="st1" cx="494.3" cy="-507" r="8.6"/>
				<circle class="st1" cx="496.7" cy="-480.7" r="8.6"/>
				<circle class="st1" cx="495.8" cy="-454.4" r="8.6"/>
				<circle class="st1" cx="491.6" cy="-428.3" r="8.6"/>
				<circle class="st1" cx="484.4" cy="-403" r="8.6"/>
				<circle class="st1" cx="474" cy="-378.7" r="8.6"/>
				<circle class="st1" cx="460.7" cy="-355.9" r="8.6"/>
				<circle class="st1" cx="444.8" cy="-334.9" r="8.6"/>
				<circle class="st1" cx="426.4" cy="-316" r="8.6"/>
				<circle class="st1" cx="405.8" cy="-299.6" r="8.6"/>
				<circle class="st1" cx="383.3" cy="-285.8" r="8.6"/>
				<circle class="st1" cx="359.3" cy="-274.8" r="8.6"/>
				<circle class="st1" cx="334.1" cy="-266.9" r="8.6"/>
				<circle class="st1" cx="308.2" cy="-262.1" r="8.6"/>
				<circle class="st1" cx="284.1" cy="-373" r="6.9"/>
				<ellipse class="st1" cx="266.3" cy="-374.6" rx="6.9" ry="6.9"/>
				<circle class="st1" cx="249.1" cy="-379.4" r="6.9"/>
				<circle class="st1" cx="233" cy="-387.1" r="6.9"/>
				<circle class="st1" cx="218.6" cy="-397.6" r="6.9"/>
				<circle class="st1" cx="206.2" cy="-410.5" r="6.9"/>
				<circle class="st1" cx="196.4" cy="-425.4" r="6.9"/>
				<circle class="st1" cx="189.4" cy="-441.9" r="6.9"/>
				<circle class="st1" cx="185.4" cy="-459.3" r="6.9"/>
				<circle class="st1" cx="184.6" cy="-477.1" r="6.9"/>
				<circle class="st1" cx="187" cy="-494.8" r="6.9"/>
				<circle class="st1" cx="192.5" cy="-511.8" r="6.9"/>
				<circle class="st1" cx="201" cy="-527.5" r="6.9"/>
				<circle class="st1" cx="212.1" cy="-541.5" r="6.9"/>
				<circle class="st1" cx="225.6" cy="-553.2" r="6.9"/>
				<circle class="st1" cx="240.9" cy="-562.4" r="6.9"/>
				<circle class="st1" cx="257.6" cy="-568.7" r="6.9"/>
				<circle class="st1" cx="275.2" cy="-571.9" r="6.9"/>
				<circle class="st1" cx="293.1" cy="-571.9" r="6.9"/>
				<circle class="st1" cx="310.6" cy="-568.7" r="6.9"/>
				<circle class="st1" cx="327.3" cy="-562.4" r="6.9"/>
				<circle class="st1" cx="342.7" cy="-553.2" r="6.9"/>
				<circle class="st1" cx="356.1" cy="-541.5" r="6.9"/>
				<circle class="st1" cx="367.3" cy="-527.5" r="6.9"/>
				<circle class="st1" cx="375.7" cy="-511.8" r="6.9"/>
				<circle class="st1" cx="381.2" cy="-494.8" r="6.9"/>
				<circle class="st1" cx="383.6" cy="-477.1" r="6.9"/>
				<circle class="st1" cx="382.8" cy="-459.3" r="6.9"/>
				<circle class="st1" cx="378.9" cy="-441.9" r="6.9"/>
				<circle class="st1" cx="371.9" cy="-425.4" r="6.9"/>
				<circle class="st1" cx="362" cy="-410.5" r="6.9"/>
				<circle class="st1" cx="349.7" cy="-397.6" r="6.9"/>
				<circle class="st1" cx="335.2" cy="-387.1" r="6.9"/>
				<circle class="st1" cx="319.1" cy="-379.4" r="6.9"/>
				<circle class="st1" cx="301.9" cy="-374.6" r="6.9"/>
				<circle class="st1" cx="283.8" cy="-335.8" r="8.7"/>
				<circle class="st1" cx="259.2" cy="-338" r="8.7"/>
				<circle class="st1" cx="235.4" cy="-344.5" r="8.7"/>
				<circle class="st1" cx="213.2" cy="-355.1" r="8.7"/>
				<circle class="st1" cx="193.2" cy="-369.6" r="8.7"/>
				<circle class="st1" cx="176.1" cy="-387.3" r="8.7"/>
				<circle class="st1" cx="162.5" cy="-407.9" r="8.7"/>
				<circle class="st1" cx="152.7" cy="-430.5" r="8.7"/>
				<circle class="st1" cx="147.2" cy="-454.6" r="8.7"/>
				<circle class="st1" cx="146" cy="-479.2" r="8.7"/>
				<circle class="st1" cx="149.2" cy="-503.6" r="8.7"/>
				<circle class="st1" cx="156.8" cy="-527.1" r="8.7"/>
				<circle class="st1" cx="168.4" cy="-548.8" r="8.7"/>
				<circle class="st1" cx="183.7" cy="-568.2" r="8.7"/>
				<circle class="st1" cx="202.3" cy="-584.4" r="8.7"/>
				<circle class="st1" cx="223.4" cy="-597.1" r="8.7"/>
				<circle class="st1" cx="246.5" cy="-605.9" r="8.7"/>
				<circle class="st1" cx="270.7" cy="-610.3" r="8.7"/>
				<circle class="st1" cx="295.4" cy="-610.4" r="8.7"/>
				<circle class="st1" cx="319.6" cy="-606" r="8.7"/>
				<circle class="st1" cx="342.7" cy="-597.4" r="8.7"/>
				<circle class="st1" cx="363.9" cy="-584.9" r="8.7"/>
				<circle class="st1" cx="382.6" cy="-568.7" r="8.7"/>
				<circle class="st1" cx="398" cy="-549.4" r="8.7"/>
				<circle class="st1" cx="409.7" cy="-527.8" r="8.7"/>
				<circle class="st1" cx="417.4" cy="-504.3" r="8.7"/>
				<circle class="st1" cx="420.8" cy="-479.9" r="8.7"/>
				<circle class="st1" cx="419.7" cy="-455.3" r="8.7"/>
				<circle class="st1" cx="414.3" cy="-431.2" r="8.7"/>
				<circle class="st1" cx="404.7" cy="-408.5" r="8.7"/>
				<circle class="st1" cx="391.1" cy="-387.9" r="8.7"/>
				<circle class="st1" cx="374.1" cy="-370" r="8.7"/>
				<circle class="st1" cx="354.2" cy="-355.5" r="8.7"/>
				<circle class="st1" cx="332.1" cy="-344.7" r="8.7"/>
				<circle class="st1" cx="308.3" cy="-338.1" r="8.7"/>
				<circle class="st1" cx="283.4" cy="-355.7" r="4.7"/>
				<circle class="st1" cx="269" cy="-356.6" r="4.7"/>
				<circle class="st1" cx="254.8" cy="-359.3" r="4.7"/>
				<circle class="st1" cx="241" cy="-363.7" r="4.7"/>
				<circle class="st1" cx="227.9" cy="-369.8" r="4.7"/>
				<circle class="st1" cx="215.7" cy="-377.5" r="4.7"/>
				<circle class="st1" cx="204.5" cy="-386.6" r="4.7"/>
				<circle class="st1" cx="194.4" cy="-397" r="4.7"/>
				<circle class="st1" cx="185.8" cy="-408.5" r="4.7"/>
				<circle class="st1" cx="178.6" cy="-421" r="4.7"/>
				<circle class="st1" cx="173" cy="-434.4" r="4.7"/>
				<circle class="st1" cx="169.1" cy="-448.3" r="4.7"/>
				<circle class="st1" cx="166.9" cy="-462.5" r="4.7"/>
				<circle class="st1" cx="166.5" cy="-477" r="4.7"/>
				<circle class="st1" cx="167.9" cy="-491.4" r="4.7"/>
				<circle class="st1" cx="171" cy="-505.5" r="4.7"/>
				<circle class="st1" cx="175.9" cy="-519.1" r="4.7"/>
				<circle class="st1" cx="182.3" cy="-532" r="4.7"/>
				<circle class="st1" cx="190.4" cy="-544" r="4.7"/>
				<circle class="st1" cx="199.8" cy="-554.9" r="4.7"/>
				<circle class="st1" cx="210.5" cy="-564.6" r="4.7"/>
				<circle class="st1" cx="222.3" cy="-572.9" r="4.7"/>
				<circle class="st1" cx="235.1" cy="-579.7" r="4.7"/>
				<circle class="st1" cx="248.5" cy="-584.9" r="4.7"/>
				<circle class="st1" cx="262.5" cy="-588.4" r="4.7"/>
				<circle class="st1" cx="276.9" cy="-590.1" r="4.7"/>
				<circle class="st1" cx="291.3" cy="-590.1" r="4.7"/>
				<circle class="st1" cx="305.7" cy="-588.3" r="4.7"/>
				<circle class="st1" cx="319.7" cy="-584.7" r="4.7"/>
				<circle class="st1" cx="333.1" cy="-579.4" r="4.7"/>
				<circle class="st1" cx="345.8" cy="-572.6" r="4.7"/>
				<circle class="st1" cx="357.6" cy="-564.2" r="4.7"/>
				<circle class="st1" cx="368.2" cy="-554.4" r="4.7"/>
				<circle class="st1" cx="377.6" cy="-543.4" r="4.7"/>
				<circle class="st1" cx="385.5" cy="-531.4" r="4.7"/>
				<circle class="st1" cx="391.9" cy="-518.4" r="4.7"/>
				<circle class="st1" cx="396.7" cy="-504.8" r="4.7"/>
				<circle class="st1" cx="399.7" cy="-490.7" r="4.7"/>
				<circle class="st1" cx="401" cy="-476.3" r="4.7"/>
				<circle class="st1" cx="400.5" cy="-461.8" r="4.7"/>
				<circle class="st1" cx="398.3" cy="-447.6" r="4.7"/>
				<circle class="st1" cx="394.3" cy="-433.7" r="4.7"/>
				<circle class="st1" cx="388.6" cy="-420.4" r="4.7"/>
				<circle class="st1" cx="381.4" cy="-407.9" r="4.7"/>
				<circle class="st1" cx="372.6" cy="-396.4" r="4.7"/>
				<circle class="st1" cx="362.5" cy="-386.1" r="4.7"/>
				<circle class="st1" cx="351.2" cy="-377.1" r="4.7"/>
				<circle class="st1" cx="338.9" cy="-369.5" r="4.7"/>
				<circle class="st1" cx="325.8" cy="-363.5" r="4.7"/>
				<circle class="st1" cx="312" cy="-359.2" r="4.7"/>
				<circle class="st1" cx="297.8" cy="-356.5" r="4.7"/>
				<circle class="st1" cx="368.1" cy="-12.5" r="12.5"/>
				<circle class="st1" cx="372.5" cy="-44.8" r="12.5"/>
				<circle class="st1" cx="382.6" cy="-75.9" r="12.5"/>
				<circle class="st1" cx="398.1" cy="-104.6" r="12.5"/>
				<circle class="st1" cx="418.4" cy="-130.1" r="12.5"/>
				<circle class="st1" cx="443" cy="-151.5" r="12.5"/>
				<circle class="st1" cx="471" cy="-168.3" r="12.5"/>
				<circle class="st1" cx="501.5" cy="-179.7" r="12.5"/>
				<circle class="st1" cx="533.5" cy="-185.6" r="12.5"/>
				<circle class="st1" cx="297.7" cy="-16.3" r="15.8"/>
				<circle class="st1" cx="303.6" cy="-60.9" r="15.8"/>
				<circle class="st1" cx="317.4" cy="-103.8" r="15.8"/>
				<circle class="st1" cx="338.6" cy="-143.5" r="15.8"/>
				<circle class="st1" cx="366.6" cy="-178.8" r="15.8"/>
				<circle class="st1" cx="400.4" cy="-208.5" r="15.8"/>
				<circle class="st1" cx="439" cy="-231.7" r="15.8"/>
				<circle class="st1" cx="481.1" cy="-247.6" r="15.8"/>
				<circle class="st1" cx="525.4" cy="-255.8" r="15.8"/>
				<circle class="st1" cx="335.1" cy="-12.3" r="8.6"/>
				<circle class="st1" cx="337.6" cy="-38.5" r="8.6"/>
				<circle class="st1" cx="343.4" cy="-64.3" r="8.6"/>
				<circle class="st1" cx="352.2" cy="-89.1" r="8.6"/>
				<circle class="st1" cx="364" cy="-112.7" r="8.6"/>
				<circle class="st1" cx="378.7" cy="-134.6" r="8.6"/>
				<circle class="st1" cx="395.9" cy="-154.6" r="8.6"/>
				<circle class="st1" cx="415.4" cy="-172.3" r="8.6"/>
				<circle class="st1" cx="437" cy="-187.5" r="8.6"/>
				<circle class="st1" cx="460.3" cy="-199.9" r="8.6"/>
				<circle class="st1" cx="484.9" cy="-209.4" r="8.6"/>
				
					<ellipse transform="matrix(0.9733 -0.2297 0.2297 0.9733 63.2045 111.5122)" class="st1" cx="510.5" cy="-215.7" rx="8.6" ry="8.6"/>
				<circle class="st1" cx="536.7" cy="-218.9" r="8.6"/>
				<circle class="st1" cx="451.3" cy="-7.3" r="6.9"/>
				<circle class="st1" cx="453.7" cy="-25" r="6.9"/>
				<circle class="st1" cx="459.2" cy="-42" r="6.9"/>
				<circle class="st1" cx="467.7" cy="-57.8" r="6.9"/>
				<circle class="st1" cx="478.8" cy="-71.7" r="6.9"/>
				<circle class="st1" cx="492.3" cy="-83.5" r="6.9"/>
				<circle class="st1" cx="507.6" cy="-92.6" r="6.9"/>
				<ellipse class="st1" cx="524.4" cy="-98.9" rx="6.9" ry="6.9"/>
				<circle class="st1" cx="541.9" cy="-102.1" r="6.9"/>
				<circle class="st1" cx="412.7" cy="-9.4" r="8.7"/>
				<circle class="st1" cx="415.9" cy="-33.8" r="8.7"/>
				<circle class="st1" cx="423.5" cy="-57.3" r="8.7"/>
				<circle class="st1" cx="435.1" cy="-79" r="8.7"/>
				<circle class="st1" cx="450.4" cy="-98.4" r="8.7"/>
				<circle class="st1" cx="469" cy="-114.6" r="8.7"/>
				<circle class="st1" cx="490.1" cy="-127.3" r="8.7"/>
				<circle class="st1" cx="513.2" cy="-136.1" r="8.7"/>
				<circle class="st1" cx="537.4" cy="-140.5" r="8.7"/>
				<circle class="st1" cx="433.2" cy="-7.2" r="4.7"/>
				<circle class="st1" cx="434.6" cy="-21.6" r="4.7"/>
				<circle class="st1" cx="437.7" cy="-35.7" r="4.7"/>
				<circle class="st1" cx="442.6" cy="-49.3" r="4.7"/>
				<circle class="st1" cx="449" cy="-62.2" r="4.7"/>
				<circle class="st1" cx="457.1" cy="-74.2" r="4.7"/>
				<circle class="st1" cx="466.5" cy="-85.1" r="4.7"/>
				<circle class="st1" cx="477.2" cy="-94.8" r="4.7"/>
				<circle class="st1" cx="489" cy="-103.2" r="4.7"/>
				<circle class="st1" cx="501.8" cy="-109.9" r="4.7"/>
				<circle class="st1" cx="515.2" cy="-115.1" r="4.7"/>
				<circle class="st1" cx="529.3" cy="-118.6" r="4.7"/>
				<circle class="st1" cx="543.6" cy="-120.3" r="4.7"/>
				<circle class="st1" cx="32.8" cy="-185.6" r="12.5"/>
				<circle class="st1" cx="64.9" cy="-179.7" r="12.5"/>
				<circle class="st1" cx="95.4" cy="-168.3" r="12.5"/>
				<circle class="st1" cx="123.4" cy="-151.5" r="12.5"/>
				<circle class="st1" cx="148" cy="-130.1" r="12.5"/>
				<circle class="st1" cx="168.3" cy="-104.6" r="12.5"/>
				<circle class="st1" cx="183.8" cy="-75.9" r="12.5"/>
				<circle class="st1" cx="193.9" cy="-44.8" r="12.5"/>
				<circle class="st1" cx="198.2" cy="-12.5" r="12.5"/>
				<circle class="st1" cx="37" cy="-255.9" r="15.8"/>
				<circle class="st1" cx="81.3" cy="-247.9" r="15.8"/>
				<circle class="st1" cx="123.5" cy="-232.2" r="15.8"/>
				<circle class="st1" cx="162.2" cy="-209.2" r="15.8"/>
				<circle class="st1" cx="196.2" cy="-179.7" r="15.8"/>
				<circle class="st1" cx="224.4" cy="-144.6" r="15.8"/>
				<circle class="st1" cx="245.8" cy="-105" r="15.8"/>
				<ellipse class="st1" cx="260" cy="-62.2" rx="15.8" ry="15.8"/>
				<ellipse class="st1" cx="266" cy="-17.6" rx="15.8" ry="15.8"/>
				
					<ellipse transform="matrix(9.089769e-03 -1 1 9.089769e-03 248.221 -187.1123)" class="st1" cx="29.7" cy="-218.8" rx="8.6" ry="8.6"/>
				<circle class="st1" cx="55.8" cy="-215.5" r="8.6"/>
				<circle class="st1" cx="81.4" cy="-209" r="8.6"/>
				<circle class="st1" cx="106" cy="-199.4" r="8.6"/>
				
					<ellipse transform="matrix(3.327788e-02 -0.9994 0.9994 3.327788e-02 311.597 -51.4552)" class="st1" cx="129.2" cy="-186.8" rx="8.6" ry="8.6"/>
				<circle class="st1" cx="150.6" cy="-171.5" r="8.6"/>
				<circle class="st1" cx="170.1" cy="-153.7" r="8.6"/>
				<circle class="st1" cx="187.2" cy="-133.6" r="8.6"/>
				<circle class="st1" cx="201.7" cy="-111.6" r="8.6"/>
				<circle class="st1" cx="213.4" cy="-87.9" r="8.6"/>
				<circle class="st1" cx="222.1" cy="-63" r="8.6"/>
				<circle class="st1" cx="227.6" cy="-37.2" r="8.6"/>
				<circle class="st1" cx="230" cy="-11" r="8.6"/>
				
					<ellipse transform="matrix(2.415442e-03 -1 1 2.415442e-03 110.5792 -93.3533)" class="st1" cx="8.5" cy="-102.1" rx="6.9" ry="6.9"/>
				
					<ellipse transform="matrix(0.9999 -1.020251e-02 1.020251e-02 0.9999 1.043 0.263)" class="st1" cx="26.3" cy="-102.1" rx="6.9" ry="6.9"/>
				<circle class="st1" cx="43.9" cy="-98.9" r="6.9"/>
				<circle class="st1" cx="60.6" cy="-92.6" r="6.9"/>
				<circle class="st1" cx="76" cy="-83.5" r="6.9"/>
				<circle class="st1" cx="89.4" cy="-71.7" r="6.9"/>
				<circle class="st1" cx="100.6" cy="-57.8" r="6.9"/>
				<circle class="st1" cx="109" cy="-42" r="6.9"/>
				<circle class="st1" cx="114.5" cy="-25" r="6.9"/>
				<circle class="st1" cx="116.9" cy="-7.3" r="6.9"/>
				<circle class="st1" cx="28.7" cy="-140.6" r="8.7"/>
				<circle class="st1" cx="52.9" cy="-136.3" r="8.7"/>
				<circle class="st1" cx="76" cy="-127.6" r="8.7"/>
				<circle class="st1" cx="97.2" cy="-115.1" r="8.7"/>
				<circle class="st1" cx="115.8" cy="-98.9" r="8.7"/>
				<circle class="st1" cx="131.3" cy="-79.6" r="8.7"/>
				<circle class="st1" cx="143" cy="-58" r="8.7"/>
				<circle class="st1" cx="150.7" cy="-34.5" r="8.7"/>
				<circle class="st1" cx="154.1" cy="-10.1" r="8.7"/>
				<circle class="st1" cx="24.6" cy="-120.3" r="4.7"/>
				<circle class="st1" cx="39" cy="-118.5" r="4.7"/>
				<circle class="st1" cx="53" cy="-114.9" r="4.7"/>
				
					<ellipse transform="matrix(3.327798e-02 -0.9994 0.9994 3.327798e-02 173.7296 -39.5895)" class="st1" cx="66.4" cy="-109.6" rx="4.7" ry="4.7"/>
				<circle class="st1" cx="79.1" cy="-102.8" r="4.7"/>
				<circle class="st1" cx="90.9" cy="-94.4" r="4.7"/>
				<circle class="st1" cx="101.5" cy="-84.6" r="4.7"/>
				<circle class="st1" cx="110.9" cy="-73.6" r="4.7"/>
				<circle class="st1" cx="118.8" cy="-61.6" r="4.7"/>
				<circle class="st1" cx="125.2" cy="-48.6" r="4.7"/>
				<circle class="st1" cx="130" cy="-35" r="4.7"/>
				<circle class="st1" cx="133" cy="-20.9" r="4.7"/>
				<circle class="st1" cx="134.3" cy="-6.5" r="4.7"/>
			</g>
		</g>
	</g>
</pattern>
<g id="Layer_2_1_" class="st2">
	<g id="Layer_1-2">
		<g id="Layer_2-2">
			<g id="hex_pattern">
				<pattern  id="SVGID_2_" xlink:href="#SVGID_1_" patternTransform="matrix(0.4 0.15 -0.15 0.4 -18928.0176 14543.7305)">
				</pattern>
				<path class="st3" d="M0,303.2c0,0,0.6-165.3,0.6-303.2c168.8,1.7,137.9,106,240,118.7C362.9,134,372.1-34.5,566.8,35.1
					c100.8,53.6,76,143,196.6,152.6C928.2,199.2,957,302.9,957,302.9L0,303.2z"/>
			</g>
		</g>
	</g>
</g>
</svg>
